<svg width="1143" height="147" viewBox="0 0 1143 147" fill="none" xmlns="http://www.w3.org/2000/svg">
<g clip-path="url(#clip0_1804_4608)">
<path d="M34.94 18.28C32.8467 18.28 31.1067 17.58 29.72 16.18C28.3467 14.7933 27.66 13.0667 27.66 11C27.66 8.92 28.3467 7.19333 29.72 5.82C31.1067 4.42 32.8467 3.72 34.94 3.72C36.2067 3.72 37.3733 4.02 38.44 4.62C39.52 5.20667 40.36 6.00667 40.96 7.02L38.58 8.4C38.2333 7.77333 37.74 7.28667 37.1 6.94C36.46 6.58 35.74 6.4 34.94 6.4C33.58 6.4 32.48 6.82667 31.64 7.68C30.8133 8.54667 30.4 9.65333 30.4 11C30.4 12.3333 30.8133 13.4333 31.64 14.3C32.48 15.1533 33.58 15.58 34.94 15.58C35.74 15.58 36.46 15.4067 37.1 15.06C37.7533 14.7 38.2467 14.2133 38.58 13.6L40.96 14.98C40.36 15.9933 39.52 16.8 38.44 17.4C37.3733 17.9867 36.2067 18.28 34.94 18.28ZM45.4155 12.22V15.36H51.3155V18H42.6555V4H51.2155V6.64H45.4155V9.62H50.7155V12.22H45.4155ZM61.5809 2.72H55.7809V0.479999H61.5809V2.72ZM64.1209 18H61.3609V9.46L55.3609 18H53.2609V4H56.0209V12.56L62.0209 4H64.1209V18ZM74.018 10.2V4H76.778V18H74.018V12.88C73.1646 13.24 72.2513 13.42 71.278 13.42C69.878 13.42 68.7113 13.0267 67.778 12.24C66.8713 11.44 66.418 10.36 66.418 9V4H69.178V8.64C69.178 9.30667 69.3713 9.83333 69.758 10.22C70.158 10.5933 70.6846 10.78 71.338 10.78C72.2846 10.78 73.178 10.5867 74.018 10.2ZM91.3742 18H88.3742L87.5342 15.48H81.9542L81.1142 18H78.1342L83.0342 4H86.4542L91.3742 18ZM84.7542 7.18L82.8342 12.9H86.6742L84.7542 7.18ZM98.8658 18.28C96.7724 18.28 95.0324 17.58 93.6458 16.18C92.2724 14.7933 91.5858 13.0667 91.5858 11C91.5858 8.92 92.2724 7.19333 93.6458 5.82C95.0324 4.42 96.7724 3.72 98.8658 3.72C100.132 3.72 101.299 4.02 102.366 4.62C103.446 5.20667 104.286 6.00667 104.886 7.02L102.506 8.4C102.159 7.77333 101.666 7.28667 101.026 6.94C100.386 6.58 99.6658 6.4 98.8658 6.4C97.5058 6.4 96.4058 6.82667 95.5658 7.68C94.7391 8.54667 94.3258 9.65333 94.3258 11C94.3258 12.3333 94.7391 13.4333 95.5658 14.3C96.4058 15.1533 97.5058 15.58 98.8658 15.58C99.6658 15.58 100.386 15.4067 101.026 15.06C101.679 14.7 102.172 14.2133 102.506 13.6L104.886 14.98C104.286 15.9933 103.446 16.8 102.366 17.4C101.299 17.9867 100.132 18.28 98.8658 18.28ZM122.598 18H119.838V9.46L113.838 18H111.738V4H114.498V12.56L120.498 4H122.598V18ZM141.455 4V15.36H142.955V20.68H140.195V18H125.195V4H127.955V15.36H131.955V4H134.695V15.36H138.695V4H141.455ZM149.218 10.76L151.978 4H154.738L150.538 14.14C149.418 16.86 147.578 18.1467 145.018 18V15.42C145.751 15.4867 146.344 15.3867 146.798 15.12C147.264 14.8533 147.658 14.4067 147.978 13.78L143.398 4H146.158L149.218 10.76ZM155.19 4H165.49V6.64H161.71V18H158.95V6.64H155.19V4Z" fill="#414D6A"/>
<g opacity="0.538951">
<path fill-rule="evenodd" clip-rule="evenodd" d="M19.8968 22.3623L14.3611 16.5262C15.7731 15.0899 16.6482 13.1116 16.6482 10.9304C16.6482 6.55668 13.1368 3 8.82408 3C4.50898 3 1 6.55668 1 10.9304C1 15.3023 4.50898 18.8608 8.82408 18.8608C10.7176 18.8608 12.4551 18.1731 13.8102 17.0355L19.3585 22.8858C19.4311 22.9632 19.5294 23 19.6277 23C19.7203 23 19.813 22.9651 19.8861 22.8952C20.0333 22.7512 20.0389 22.5115 19.8968 22.3623ZM8.82408 18.1047C4.92019 18.1047 1.74604 14.8855 1.74604 10.9304C1.74604 6.97347 4.92019 3.75618 8.82408 3.75618C12.7261 3.75618 15.9021 6.97347 15.9021 10.9304C15.9021 14.8855 12.7261 18.1047 8.82408 18.1047Z" fill="#787993"/>
<path d="M19.8968 22.3623L19.5341 22.7064L19.5347 22.7071L19.8968 22.3623ZM14.3611 16.5262L14.0046 16.1757L13.6661 16.52L13.9984 16.8703L14.3611 16.5262ZM13.8102 17.0355L14.173 16.6915L13.8492 16.35L13.4888 16.6526L13.8102 17.0355ZM19.3585 22.8858L19.7231 22.5436L19.7213 22.5417L19.3585 22.8858ZM19.8861 22.8952L20.2316 23.2567L20.2358 23.2526L19.8861 22.8952ZM20.2596 22.0182L14.7239 16.1821L13.9984 16.8703L19.5341 22.7064L20.2596 22.0182ZM14.7177 16.8767C16.218 15.3505 17.1482 13.2478 17.1482 10.9304H16.1482C16.1482 12.9755 15.3282 14.8292 14.0046 16.1757L14.7177 16.8767ZM17.1482 10.9304C17.1482 6.28682 13.4192 2.5 8.82408 2.5V3.5C12.8545 3.5 16.1482 6.82653 16.1482 10.9304H17.1482ZM8.82408 2.5C4.2265 2.5 0.5 6.28692 0.5 10.9304H1.5C1.5 6.82643 4.79147 3.5 8.82408 3.5V2.5ZM0.5 10.9304C0.5 15.572 4.22642 19.3608 8.82408 19.3608V18.3608C4.79155 18.3608 1.5 15.0326 1.5 10.9304H0.5ZM8.82408 19.3608C10.8411 19.3608 12.6912 18.6277 14.1317 17.4185L13.4888 16.6526C12.219 17.7185 10.594 18.3608 8.82408 18.3608V19.3608ZM13.4474 17.3796L18.9957 23.2298L19.7213 22.5417L14.173 16.6915L13.4474 17.3796ZM18.9939 23.2279C19.1701 23.4157 19.405 23.5 19.6277 23.5V22.5C19.6538 22.5 19.6922 22.5107 19.7231 22.5436L18.9939 23.2279ZM19.6277 23.5C19.8471 23.5 20.064 23.4168 20.2315 23.2567L19.5407 22.5337C19.562 22.5134 19.5935 22.5 19.6277 22.5V23.5ZM20.2358 23.2526C20.5762 22.9196 20.5917 22.367 20.2589 22.0175L19.5347 22.7071C19.486 22.6559 19.4904 22.5829 19.5365 22.5378L20.2358 23.2526ZM8.82408 17.6047C5.20276 17.6047 2.24604 14.6158 2.24604 10.9304H1.24604C1.24604 15.1552 4.63762 18.6047 8.82408 18.6047V17.6047ZM2.24604 10.9304C2.24604 7.24323 5.20267 4.25618 8.82408 4.25618V3.25618C4.6377 3.25618 1.24604 6.70372 1.24604 10.9304H2.24604ZM8.82408 4.25618C12.4437 4.25618 15.4021 7.24332 15.4021 10.9304H16.4021C16.4021 6.70363 13.0085 3.25618 8.82408 3.25618V4.25618ZM15.4021 10.9304C15.4021 14.6157 12.4436 17.6047 8.82408 17.6047V18.6047C13.0086 18.6047 16.4021 15.1552 16.4021 10.9304H15.4021Z" fill="#787993"/>
</g>
<path d="M1.5 50.4042V146.596" stroke="#979797" stroke-opacity="0.356686" stroke-linecap="square"/>
<path d="M1142.25 50.4042V146.596" stroke="#979797" stroke-opacity="0.356686" stroke-linecap="square"/>
<rect x="2" y="52" width="1139" height="92" fill="white"/>
<mask id="mask0_1804_4608" style="mask-type:alpha" maskUnits="userSpaceOnUse" x="2" y="52" width="1139" height="92">
<rect x="2" y="52" width="1139" height="92" fill="white"/>
</mask>
<g mask="url(#mask0_1804_4608)">
<g clip-path="url(#clip1_1804_4608)">
<g filter="url(#filter0_d_1804_4608)">
<rect x="19" y="60" width="245" height="73" fill="white"/>
</g>
<path d="M45.008 84.952L48.32 89H45.92L43.008 85.368V89H40.944V81H43.008V84.52L45.76 81H48.224L45.008 84.952ZM52.7121 86.376L54.4881 81H56.6961L53.7841 89C52.9735 91.2507 51.5655 92.3173 49.5601 92.2V90.28C50.1041 90.2907 50.5308 90.1893 50.8401 89.976C51.1601 89.7627 51.4161 89.4053 51.6081 88.904L48.3761 81H50.5681L52.7121 86.376ZM57.6784 81H64.9904V89H62.9264V82.936H59.7424V89H57.6784V81ZM68.8975 85.544L72.6575 81H74.1935V89H72.1775V84.456L68.4175 89H66.8815V81H68.8975V85.544ZM75.3006 81H82.3886V82.984H79.8926V89H77.8286V82.984H75.3006V81ZM85.5549 83.56H87.1069C88.0135 83.56 88.7442 83.8107 89.2989 84.312C89.8535 84.8027 90.1309 85.4587 90.1309 86.28C90.1309 87.1013 89.8535 87.7627 89.2989 88.264C88.7442 88.7547 88.0135 89 87.1069 89H83.4909V81H85.5549V83.56ZM85.5549 87.176H87.1229C87.4109 87.176 87.6455 87.096 87.8269 86.936C88.0189 86.7653 88.1149 86.5467 88.1149 86.28C88.1149 86.0133 88.0189 85.7947 87.8269 85.624C87.6455 85.4533 87.4109 85.368 87.1229 85.368H85.5549V87.176ZM104.212 77.8H106.484V89H104.292V81.736L101.14 86.936H100.884L97.7324 81.752V89H95.5244V77.8H97.7964L101.012 83.096L104.212 77.8ZM111.147 81H114.891V89H112.875V86.504H112.155L110.315 89H107.931L109.931 86.264C109.419 86.0507 109.009 85.7147 108.699 85.256C108.401 84.7973 108.251 84.296 108.251 83.752C108.251 83.016 108.518 82.3707 109.051 81.816C109.574 81.272 110.273 81 111.147 81ZM112.875 82.84H111.307C111.009 82.84 110.758 82.9307 110.555 83.112C110.363 83.2933 110.267 83.528 110.267 83.816C110.267 84.104 110.363 84.3333 110.555 84.504C110.758 84.6747 111.009 84.76 111.307 84.76H112.875V82.84ZM120.58 89.224C119.375 89.224 118.367 88.8187 117.556 88.008C116.756 87.1973 116.356 86.1947 116.356 85C116.356 83.8053 116.756 82.8027 117.556 81.992C118.367 81.1813 119.375 80.776 120.58 80.776C121.359 80.776 122.068 80.9627 122.708 81.336C123.348 81.7093 123.833 82.2107 124.164 82.84L122.388 83.88C122.228 83.5493 121.983 83.288 121.652 83.096C121.332 82.904 120.969 82.808 120.564 82.808C119.945 82.808 119.433 83.016 119.028 83.432C118.623 83.8373 118.42 84.36 118.42 85C118.42 85.6187 118.623 86.1413 119.028 86.568C119.433 86.9733 119.945 87.176 120.564 87.176C120.98 87.176 121.348 87.0853 121.668 86.904C121.999 86.712 122.244 86.4507 122.404 86.12L124.196 87.144C123.844 87.784 123.343 88.2907 122.692 88.664C122.052 89.0373 121.348 89.224 120.58 89.224ZM130.598 84.024V81H132.662V89H130.598V85.96H127.414V89H125.35V81H127.414V84.024H130.598ZM140.633 81.944V81H142.697V89H140.633V88.056C140.015 88.8347 139.145 89.224 138.025 89.224C136.959 89.224 136.041 88.8187 135.273 88.008C134.516 87.1867 134.137 86.184 134.137 85C134.137 83.8267 134.516 82.8293 135.273 82.008C136.041 81.1867 136.959 80.776 138.025 80.776C139.145 80.776 140.015 81.1653 140.633 81.944ZM136.825 86.632C137.241 87.048 137.769 87.256 138.409 87.256C139.049 87.256 139.577 87.048 139.993 86.632C140.42 86.2053 140.633 85.6613 140.633 85C140.633 84.3387 140.42 83.8 139.993 83.384C139.577 82.9573 139.049 82.744 138.409 82.744C137.769 82.744 137.241 82.9573 136.825 83.384C136.409 83.8 136.201 84.3387 136.201 85C136.201 85.6613 136.409 86.2053 136.825 86.632ZM147.241 81H150.985V89H148.969V86.504H148.249L146.409 89H144.025L146.025 86.264C145.513 86.0507 145.102 85.7147 144.793 85.256C144.494 84.7973 144.345 84.296 144.345 83.752C144.345 83.016 144.612 82.3707 145.145 81.816C145.668 81.272 146.366 81 147.241 81ZM148.969 82.84H147.401C147.102 82.84 146.852 82.9307 146.649 83.112C146.457 83.2933 146.361 83.528 146.361 83.816C146.361 84.104 146.457 84.3333 146.649 84.504C146.852 84.6747 147.102 84.76 147.401 84.76H148.969V82.84ZM156.866 81H164.178V89H162.114V82.936H158.93V89H156.866V81ZM170.725 80.776C171.802 80.776 172.72 81.1867 173.477 82.008C174.245 82.8293 174.629 83.8267 174.629 85C174.629 86.1947 174.245 87.1973 173.477 88.008C172.73 88.8187 171.813 89.224 170.725 89.224C169.605 89.224 168.741 88.8347 168.133 88.056V92.2H166.069V81H168.133V81.944C168.741 81.1653 169.605 80.776 170.725 80.776ZM168.757 86.632C169.173 87.048 169.701 87.256 170.341 87.256C170.981 87.256 171.509 87.048 171.925 86.632C172.352 86.2053 172.565 85.6613 172.565 85C172.565 84.3387 172.352 83.8 171.925 83.384C171.509 82.9573 170.981 82.744 170.341 82.744C169.701 82.744 169.173 82.9573 168.757 83.384C168.341 83.8 168.133 84.3387 168.133 85C168.133 85.6613 168.341 86.2053 168.757 86.632ZM182.901 88.008C182.09 88.8187 181.087 89.224 179.893 89.224C178.698 89.224 177.695 88.8187 176.885 88.008C176.074 87.1973 175.669 86.1947 175.669 85C175.669 83.816 176.074 82.8187 176.885 82.008C177.706 81.1867 178.709 80.776 179.893 80.776C181.077 80.776 182.079 81.1867 182.901 82.008C183.722 82.8293 184.133 83.8267 184.133 85C184.133 86.184 183.722 87.1867 182.901 88.008ZM178.341 86.584C178.757 87 179.274 87.208 179.893 87.208C180.511 87.208 181.029 87 181.445 86.584C181.861 86.168 182.069 85.64 182.069 85C182.069 84.36 181.861 83.832 181.445 83.416C181.029 83 180.511 82.792 179.893 82.792C179.274 82.792 178.757 83 178.341 83.416C177.935 83.8427 177.733 84.3707 177.733 85C177.733 85.6293 177.935 86.1573 178.341 86.584ZM192.472 81V87.064H193.528V91.144H191.512V89H186.552V91.144H184.536V87.064H185.512C185.971 86.3813 186.2 85.4373 186.2 84.232V81H192.472ZM187.72 87.064H190.456V82.856H188.216V84.232C188.216 85.384 188.051 86.328 187.72 87.064ZM197.962 86.376L199.738 81H201.946L199.034 89C198.223 91.2507 196.815 92.3173 194.81 92.2V90.28C195.354 90.2907 195.781 90.1893 196.09 89.976C196.41 89.7627 196.666 89.4053 196.858 88.904L193.626 81H195.818L197.962 86.376ZM206.992 84.952L210.304 89H207.904L204.992 85.368V89H202.928V81H204.992V84.52L207.744 81H210.208L206.992 84.952ZM218.375 81V87.064H219.719V91.144H217.703V89H211.335V81H213.399V87.064H216.311V81H218.375ZM223.038 85.544L226.798 81H228.334V89H226.318V84.456L222.558 89H221.022V81H223.038V85.544ZM232.897 81H236.641V89H234.625V86.504H233.905L232.065 89H229.681L231.681 86.264C231.169 86.0507 230.759 85.7147 230.449 85.256C230.151 84.7973 230.001 84.296 230.001 83.752C230.001 83.016 230.268 82.3707 230.801 81.816C231.324 81.272 232.023 81 232.897 81ZM234.625 82.84H233.057C232.759 82.84 232.508 82.9307 232.305 83.112C232.113 83.2933 232.017 83.528 232.017 83.816C232.017 84.104 232.113 84.3333 232.305 84.504C232.508 84.6747 232.759 84.76 233.057 84.76H234.625V82.84Z" fill="#4E72CA"/>
<path d="M67.832 113H61.504V111.936L64.962 108.408C65.886 107.484 66.348 106.691 66.348 106.028C66.348 105.487 66.18 105.062 65.844 104.754C65.5173 104.437 65.1067 104.278 64.612 104.278C63.688 104.278 63.016 104.717 62.596 105.594L61.504 104.95C61.8027 104.325 62.2227 103.849 62.764 103.522C63.3053 103.186 63.9167 103.018 64.598 103.018C65.4287 103.018 66.1427 103.289 66.74 103.83C67.3467 104.381 67.65 105.109 67.65 106.014C67.65 107.003 67.0667 108.081 65.9 109.248L63.394 111.74H67.832V113ZM77.2168 109.346V106H78.4348V113H77.2168V110.48C76.6475 110.723 76.0175 110.844 75.3268 110.844C74.4215 110.844 73.7261 110.629 73.2408 110.2C72.7555 109.771 72.5128 109.145 72.5128 108.324V106H73.7308V108.254C73.7308 108.767 73.8661 109.141 74.1368 109.374C74.4168 109.598 74.8415 109.71 75.4108 109.71C76.0548 109.71 76.6568 109.589 77.2168 109.346ZM86.0813 107.204V106H87.2993V113H86.0813V111.796C85.484 112.72 84.602 113.182 83.4353 113.182C82.446 113.182 81.6107 112.827 80.9293 112.118C80.2387 111.399 79.8933 110.527 79.8933 109.5C79.8933 108.483 80.2387 107.615 80.9293 106.896C81.62 106.177 82.4553 105.818 83.4353 105.818C84.602 105.818 85.484 106.28 86.0813 107.204ZM83.5893 112.006C84.2987 112.006 84.8913 111.768 85.3673 111.292C85.8433 110.797 86.0813 110.2 86.0813 109.5C86.0813 108.791 85.8433 108.198 85.3673 107.722C84.8913 107.237 84.2987 106.994 83.5893 106.994C82.8893 106.994 82.3013 107.237 81.8253 107.722C81.3493 108.198 81.1113 108.791 81.1113 109.5C81.1113 110.2 81.3493 110.797 81.8253 111.292C82.3013 111.768 82.8893 112.006 83.5893 112.006ZM92.4347 113.182C91.38 113.182 90.5027 112.832 89.8027 112.132C89.1027 111.423 88.7527 110.545 88.7527 109.5C88.7527 108.455 89.1027 107.582 89.8027 106.882C90.5027 106.173 91.38 105.818 92.4347 105.818C93.1254 105.818 93.746 105.986 94.2967 106.322C94.8474 106.649 95.258 107.092 95.5287 107.652L94.5067 108.24C94.3294 107.867 94.054 107.568 93.6807 107.344C93.3167 107.12 92.9014 107.008 92.4347 107.008C91.7347 107.008 91.1467 107.246 90.6707 107.722C90.204 108.207 89.9707 108.8 89.9707 109.5C89.9707 110.191 90.204 110.779 90.6707 111.264C91.1467 111.74 91.7347 111.978 92.4347 111.978C92.9014 111.978 93.3214 111.871 93.6947 111.656C94.068 111.432 94.3527 111.133 94.5487 110.76L95.5847 111.362C95.2767 111.922 94.8427 112.365 94.2827 112.692C93.7227 113.019 93.1067 113.182 92.4347 113.182ZM102.488 107.204V106H103.706V113H102.488V111.796C101.89 112.72 101.008 113.182 99.8416 113.182C98.8522 113.182 98.0169 112.827 97.3356 112.118C96.6449 111.399 96.2996 110.527 96.2996 109.5C96.2996 108.483 96.6449 107.615 97.3356 106.896C98.0262 106.177 98.8616 105.818 99.8416 105.818C101.008 105.818 101.89 106.28 102.488 107.204ZM99.9956 112.006C100.705 112.006 101.298 111.768 101.774 111.292C102.25 110.797 102.488 110.2 102.488 109.5C102.488 108.791 102.25 108.198 101.774 107.722C101.298 107.237 100.705 106.994 99.9956 106.994C99.2956 106.994 98.7076 107.237 98.2316 107.722C97.7556 108.198 97.5176 108.791 97.5176 109.5C97.5176 110.2 97.7556 110.797 98.2316 111.292C98.7076 111.768 99.2956 112.006 99.9956 112.006ZM113.895 108.912V106H115.113V113H113.895V110.074H110.269V113H109.051V106H110.269V108.912H113.895ZM122.763 107.204V106H123.981V113H122.763V111.796C122.166 112.72 121.284 113.182 120.117 113.182C119.128 113.182 118.292 112.827 117.611 112.118C116.92 111.399 116.575 110.527 116.575 109.5C116.575 108.483 116.92 107.615 117.611 106.896C118.302 106.177 119.137 105.818 120.117 105.818C121.284 105.818 122.166 106.28 122.763 107.204ZM120.271 112.006C120.98 112.006 121.573 111.768 122.049 111.292C122.525 110.797 122.763 110.2 122.763 109.5C122.763 108.791 122.525 108.198 122.049 107.722C121.573 107.237 120.98 106.994 120.271 106.994C119.571 106.994 118.983 107.237 118.507 107.722C118.031 108.198 117.793 108.791 117.793 109.5C117.793 110.2 118.031 110.797 118.507 111.292C118.983 111.768 119.571 112.006 120.271 112.006ZM129.606 109.416C130.381 109.743 130.768 110.298 130.768 111.082C130.768 111.689 130.53 112.193 130.054 112.594C129.578 112.986 128.92 113.182 128.08 113.182C126.68 113.182 125.742 112.622 125.266 111.502L126.288 110.9C126.55 111.665 127.152 112.048 128.094 112.048C128.552 112.048 128.911 111.95 129.172 111.754C129.434 111.558 129.564 111.297 129.564 110.97C129.564 110.69 129.457 110.461 129.242 110.284C129.037 110.107 128.757 110.018 128.402 110.018H127.38V108.912H128.136C128.491 108.912 128.766 108.828 128.962 108.66C129.158 108.483 129.256 108.245 129.256 107.946C129.256 107.638 129.14 107.395 128.906 107.218C128.673 107.031 128.36 106.938 127.968 106.938C127.184 106.938 126.652 107.269 126.372 107.932L125.378 107.358C125.873 106.331 126.736 105.818 127.968 105.818C128.715 105.818 129.312 106.014 129.76 106.406C130.218 106.789 130.446 107.269 130.446 107.848C130.446 108.557 130.166 109.08 129.606 109.416ZM137.884 107.204V106H139.102V113H137.884V111.796C137.287 112.72 136.405 113.182 135.238 113.182C134.249 113.182 133.413 112.827 132.732 112.118C132.041 111.399 131.696 110.527 131.696 109.5C131.696 108.483 132.041 107.615 132.732 106.896C133.423 106.177 134.258 105.818 135.238 105.818C136.405 105.818 137.287 106.28 137.884 107.204ZM135.392 112.006C136.101 112.006 136.694 111.768 137.17 111.292C137.646 110.797 137.884 110.2 137.884 109.5C137.884 108.791 137.646 108.198 137.17 107.722C136.694 107.237 136.101 106.994 135.392 106.994C134.692 106.994 134.104 107.237 133.628 107.722C133.152 108.198 132.914 108.791 132.914 109.5C132.914 110.2 133.152 110.797 133.628 111.292C134.104 111.768 134.692 112.006 135.392 112.006ZM146.967 106V111.838H147.933V114.876H146.729V113H141.479V114.876H140.275V111.838H141.129C141.577 111.222 141.801 110.359 141.801 109.248V106H146.967ZM142.515 111.838H145.763V107.134H143.005V109.248C143.005 110.275 142.842 111.138 142.515 111.838Z" fill="#AAAAB6"/>
<g opacity="0.538951">
<path fill-rule="evenodd" clip-rule="evenodd" d="M53.7301 114.869L50.0009 110.99C50.9521 110.035 51.5416 108.72 51.5416 107.271C51.5416 104.364 49.1761 102 46.2708 102C43.3639 102 41 104.364 41 107.271C41 110.176 43.3639 112.542 46.2708 112.542C47.5464 112.542 48.7168 112.084 49.6298 111.328L53.3674 115.217C53.4163 115.268 53.4825 115.293 53.5487 115.293C53.6112 115.293 53.6736 115.269 53.7228 115.223C53.822 115.127 53.8257 114.968 53.7301 114.869ZM46.2708 112.039C43.6409 112.039 41.5026 109.899 41.5026 107.271C41.5026 104.641 43.6409 102.503 46.2708 102.503C48.8994 102.503 51.039 104.641 51.039 107.271C51.039 109.899 48.8994 112.039 46.2708 112.039Z" fill="#787993"/>
<path d="M53.7301 114.869L53.3696 115.215L53.3703 115.216L53.7301 114.869ZM50.0009 110.99L49.6467 110.637L49.3013 110.984L49.6404 111.336L50.0009 110.99ZM49.6298 111.328L49.9902 110.982L49.6684 110.647L49.3108 110.943L49.6298 111.328ZM53.3674 115.217L53.7297 114.872L53.7279 114.87L53.3674 115.217ZM53.7228 115.223L54.0658 115.587L54.0701 115.583L53.7228 115.223ZM54.0905 114.522L50.3613 110.643L49.6404 111.336L53.3696 115.215L54.0905 114.522ZM50.3551 111.343C51.3953 110.299 52.0416 108.859 52.0416 107.271H51.0416C51.0416 108.582 50.5089 109.772 49.6467 110.637L50.3551 111.343ZM52.0416 107.271C52.0416 104.088 49.4522 101.5 46.2708 101.5V102.5C48.9001 102.5 51.0416 104.64 51.0416 107.271H52.0416ZM46.2708 101.5C43.0877 101.5 40.5 104.088 40.5 107.271H41.5C41.5 104.64 43.64 102.5 46.2708 102.5V101.5ZM40.5 107.271C40.5 110.452 43.0876 113.042 46.2708 113.042V112.042C43.6401 112.042 41.5 109.9 41.5 107.271H40.5ZM46.2708 113.042C47.668 113.042 48.9502 112.54 49.9487 111.713L49.3108 110.943C48.4835 111.629 47.4247 112.042 46.2708 112.042V113.042ZM49.2693 111.675L53.0069 115.563L53.7279 114.87L49.9902 110.982L49.2693 111.675ZM53.0051 115.561C53.1582 115.722 53.3603 115.793 53.5487 115.793V114.793C53.6047 114.793 53.6745 114.814 53.7297 114.872L53.0051 115.561ZM53.5487 115.793C53.7359 115.793 53.9218 115.723 54.0658 115.587L53.3799 114.859C53.4254 114.816 53.4864 114.793 53.5487 114.793V115.793ZM54.0701 115.583C54.3654 115.298 54.3797 114.822 54.0898 114.521L53.3703 115.216C53.2718 115.114 53.2785 114.957 53.3756 114.863L54.0701 115.583ZM46.2708 111.539C43.9171 111.539 42.0026 109.623 42.0026 107.271H41.0026C41.0026 110.175 43.3647 112.539 46.2708 112.539V111.539ZM42.0026 107.271C42.0026 104.917 43.917 103.003 46.2708 103.003V102.003C43.3647 102.003 41.0026 104.365 41.0026 107.271H42.0026ZM46.2708 103.003C48.6234 103.003 50.539 104.917 50.539 107.271H51.539C51.539 104.365 49.1755 102.003 46.2708 102.003V103.003ZM50.539 107.271C50.539 109.623 48.6233 111.539 46.2708 111.539V112.539C49.1756 112.539 51.539 110.176 51.539 107.271H50.539Z" fill="#787993"/>
</g>
</g>
<g clip-path="url(#clip2_1804_4608)">
<g filter="url(#filter1_d_1804_4608)">
<rect x="281" y="60" width="245" height="73" fill="white"/>
</g>
<path d="M307.008 84.952L310.32 89H307.92L305.008 85.368V89H302.944V81H305.008V84.52L307.76 81H310.224L307.008 84.952ZM314.712 86.376L316.488 81H318.696L315.784 89C314.973 91.2507 313.565 92.3173 311.56 92.2V90.28C312.104 90.2907 312.531 90.1893 312.84 89.976C313.16 89.7627 313.416 89.4053 313.608 88.904L310.376 81H312.568L314.712 86.376ZM319.678 81H326.99V89H324.926V82.936H321.742V89H319.678V81ZM330.898 85.544L334.658 81H336.194V89H334.178V84.456L330.418 89H328.882V81H330.898V85.544ZM337.301 81H344.389V82.984H341.893V89H339.829V82.984H337.301V81ZM347.555 83.56H349.107C350.014 83.56 350.744 83.8107 351.299 84.312C351.854 84.8027 352.131 85.4587 352.131 86.28C352.131 87.1013 351.854 87.7627 351.299 88.264C350.744 88.7547 350.014 89 349.107 89H345.491V81H347.555V83.56ZM347.555 87.176H349.123C349.411 87.176 349.646 87.096 349.827 86.936C350.019 86.7653 350.115 86.5467 350.115 86.28C350.115 86.0133 350.019 85.7947 349.827 85.624C349.646 85.4533 349.411 85.368 349.123 85.368H347.555V87.176ZM366.212 77.8H368.484V89H366.292V81.736L363.14 86.936H362.884L359.732 81.752V89H357.524V77.8H359.796L363.012 83.096L366.212 77.8ZM373.147 81H376.891V89H374.875V86.504H374.155L372.315 89H369.931L371.931 86.264C371.419 86.0507 371.009 85.7147 370.699 85.256C370.401 84.7973 370.251 84.296 370.251 83.752C370.251 83.016 370.518 82.3707 371.051 81.816C371.574 81.272 372.273 81 373.147 81ZM374.875 82.84H373.307C373.009 82.84 372.758 82.9307 372.555 83.112C372.363 83.2933 372.267 83.528 372.267 83.816C372.267 84.104 372.363 84.3333 372.555 84.504C372.758 84.6747 373.009 84.76 373.307 84.76H374.875V82.84ZM382.58 89.224C381.375 89.224 380.367 88.8187 379.556 88.008C378.756 87.1973 378.356 86.1947 378.356 85C378.356 83.8053 378.756 82.8027 379.556 81.992C380.367 81.1813 381.375 80.776 382.58 80.776C383.359 80.776 384.068 80.9627 384.708 81.336C385.348 81.7093 385.833 82.2107 386.164 82.84L384.388 83.88C384.228 83.5493 383.983 83.288 383.652 83.096C383.332 82.904 382.969 82.808 382.564 82.808C381.945 82.808 381.433 83.016 381.028 83.432C380.623 83.8373 380.42 84.36 380.42 85C380.42 85.6187 380.623 86.1413 381.028 86.568C381.433 86.9733 381.945 87.176 382.564 87.176C382.98 87.176 383.348 87.0853 383.668 86.904C383.999 86.712 384.244 86.4507 384.404 86.12L386.196 87.144C385.844 87.784 385.343 88.2907 384.692 88.664C384.052 89.0373 383.348 89.224 382.58 89.224ZM392.598 84.024V81H394.662V89H392.598V85.96H389.414V89H387.35V81H389.414V84.024H392.598ZM402.633 81.944V81H404.697V89H402.633V88.056C402.015 88.8347 401.145 89.224 400.025 89.224C398.959 89.224 398.041 88.8187 397.273 88.008C396.516 87.1867 396.137 86.184 396.137 85C396.137 83.8267 396.516 82.8293 397.273 82.008C398.041 81.1867 398.959 80.776 400.025 80.776C401.145 80.776 402.015 81.1653 402.633 81.944ZM398.825 86.632C399.241 87.048 399.769 87.256 400.409 87.256C401.049 87.256 401.577 87.048 401.993 86.632C402.42 86.2053 402.633 85.6613 402.633 85C402.633 84.3387 402.42 83.8 401.993 83.384C401.577 82.9573 401.049 82.744 400.409 82.744C399.769 82.744 399.241 82.9573 398.825 83.384C398.409 83.8 398.201 84.3387 398.201 85C398.201 85.6613 398.409 86.2053 398.825 86.632ZM409.241 81H412.985V89H410.969V86.504H410.249L408.409 89H406.025L408.025 86.264C407.513 86.0507 407.102 85.7147 406.793 85.256C406.494 84.7973 406.345 84.296 406.345 83.752C406.345 83.016 406.612 82.3707 407.145 81.816C407.668 81.272 408.366 81 409.241 81ZM410.969 82.84H409.401C409.102 82.84 408.852 82.9307 408.649 83.112C408.457 83.2933 408.361 83.528 408.361 83.816C408.361 84.104 408.457 84.3333 408.649 84.504C408.852 84.6747 409.102 84.76 409.401 84.76H410.969V82.84ZM418.866 81H426.178V89H424.114V82.936H420.93V89H418.866V81ZM432.725 80.776C433.802 80.776 434.72 81.1867 435.477 82.008C436.245 82.8293 436.629 83.8267 436.629 85C436.629 86.1947 436.245 87.1973 435.477 88.008C434.73 88.8187 433.813 89.224 432.725 89.224C431.605 89.224 430.741 88.8347 430.133 88.056V92.2H428.069V81H430.133V81.944C430.741 81.1653 431.605 80.776 432.725 80.776ZM430.757 86.632C431.173 87.048 431.701 87.256 432.341 87.256C432.981 87.256 433.509 87.048 433.925 86.632C434.352 86.2053 434.565 85.6613 434.565 85C434.565 84.3387 434.352 83.8 433.925 83.384C433.509 82.9573 432.981 82.744 432.341 82.744C431.701 82.744 431.173 82.9573 430.757 83.384C430.341 83.8 430.133 84.3387 430.133 85C430.133 85.6613 430.341 86.2053 430.757 86.632ZM444.901 88.008C444.09 88.8187 443.087 89.224 441.893 89.224C440.698 89.224 439.695 88.8187 438.885 88.008C438.074 87.1973 437.669 86.1947 437.669 85C437.669 83.816 438.074 82.8187 438.885 82.008C439.706 81.1867 440.709 80.776 441.893 80.776C443.077 80.776 444.079 81.1867 444.901 82.008C445.722 82.8293 446.133 83.8267 446.133 85C446.133 86.184 445.722 87.1867 444.901 88.008ZM440.341 86.584C440.757 87 441.274 87.208 441.893 87.208C442.511 87.208 443.029 87 443.445 86.584C443.861 86.168 444.069 85.64 444.069 85C444.069 84.36 443.861 83.832 443.445 83.416C443.029 83 442.511 82.792 441.893 82.792C441.274 82.792 440.757 83 440.341 83.416C439.935 83.8427 439.733 84.3707 439.733 85C439.733 85.6293 439.935 86.1573 440.341 86.584ZM454.472 81V87.064H455.528V91.144H453.512V89H448.552V91.144H446.536V87.064H447.512C447.971 86.3813 448.2 85.4373 448.2 84.232V81H454.472ZM449.72 87.064H452.456V82.856H450.216V84.232C450.216 85.384 450.051 86.328 449.72 87.064ZM459.962 86.376L461.738 81H463.946L461.034 89C460.223 91.2507 458.815 92.3173 456.81 92.2V90.28C457.354 90.2907 457.781 90.1893 458.09 89.976C458.41 89.7627 458.666 89.4053 458.858 88.904L455.626 81H457.818L459.962 86.376ZM468.992 84.952L472.304 89H469.904L466.992 85.368V89H464.928V81H466.992V84.52L469.744 81H472.208L468.992 84.952ZM480.375 81V87.064H481.719V91.144H479.703V89H473.335V81H475.399V87.064H478.311V81H480.375ZM485.038 85.544L488.798 81H490.334V89H488.318V84.456L484.558 89H483.022V81H485.038V85.544ZM494.897 81H498.641V89H496.625V86.504H495.905L494.065 89H491.681L493.681 86.264C493.169 86.0507 492.759 85.7147 492.449 85.256C492.151 84.7973 492.001 84.296 492.001 83.752C492.001 83.016 492.268 82.3707 492.801 81.816C493.324 81.272 494.023 81 494.897 81ZM496.625 82.84H495.057C494.759 82.84 494.508 82.9307 494.305 83.112C494.113 83.2933 494.017 83.528 494.017 83.816C494.017 84.104 494.113 84.3333 494.305 84.504C494.508 84.6747 494.759 84.76 495.057 84.76H496.625V82.84Z" fill="#4E72CA"/>
<path d="M329.832 113H323.504V111.936L326.962 108.408C327.886 107.484 328.348 106.691 328.348 106.028C328.348 105.487 328.18 105.062 327.844 104.754C327.517 104.437 327.107 104.278 326.612 104.278C325.688 104.278 325.016 104.717 324.596 105.594L323.504 104.95C323.803 104.325 324.223 103.849 324.764 103.522C325.305 103.186 325.917 103.018 326.598 103.018C327.429 103.018 328.143 103.289 328.74 103.83C329.347 104.381 329.65 105.109 329.65 106.014C329.65 107.003 329.067 108.081 327.9 109.248L325.394 111.74H329.832V113ZM339.217 109.346V106H340.435V113H339.217V110.48C338.647 110.723 338.017 110.844 337.327 110.844C336.421 110.844 335.726 110.629 335.241 110.2C334.755 109.771 334.513 109.145 334.513 108.324V106H335.731V108.254C335.731 108.767 335.866 109.141 336.137 109.374C336.417 109.598 336.841 109.71 337.411 109.71C338.055 109.71 338.657 109.589 339.217 109.346ZM348.081 107.204V106H349.299V113H348.081V111.796C347.484 112.72 346.602 113.182 345.435 113.182C344.446 113.182 343.611 112.827 342.929 112.118C342.239 111.399 341.893 110.527 341.893 109.5C341.893 108.483 342.239 107.615 342.929 106.896C343.62 106.177 344.455 105.818 345.435 105.818C346.602 105.818 347.484 106.28 348.081 107.204ZM345.589 112.006C346.299 112.006 346.891 111.768 347.367 111.292C347.843 110.797 348.081 110.2 348.081 109.5C348.081 108.791 347.843 108.198 347.367 107.722C346.891 107.237 346.299 106.994 345.589 106.994C344.889 106.994 344.301 107.237 343.825 107.722C343.349 108.198 343.111 108.791 343.111 109.5C343.111 110.2 343.349 110.797 343.825 111.292C344.301 111.768 344.889 112.006 345.589 112.006ZM354.435 113.182C353.38 113.182 352.503 112.832 351.803 112.132C351.103 111.423 350.753 110.545 350.753 109.5C350.753 108.455 351.103 107.582 351.803 106.882C352.503 106.173 353.38 105.818 354.435 105.818C355.125 105.818 355.746 105.986 356.297 106.322C356.847 106.649 357.258 107.092 357.529 107.652L356.507 108.24C356.329 107.867 356.054 107.568 355.681 107.344C355.317 107.12 354.901 107.008 354.435 107.008C353.735 107.008 353.147 107.246 352.671 107.722C352.204 108.207 351.971 108.8 351.971 109.5C351.971 110.191 352.204 110.779 352.671 111.264C353.147 111.74 353.735 111.978 354.435 111.978C354.901 111.978 355.321 111.871 355.695 111.656C356.068 111.432 356.353 111.133 356.549 110.76L357.585 111.362C357.277 111.922 356.843 112.365 356.283 112.692C355.723 113.019 355.107 113.182 354.435 113.182ZM364.488 107.204V106H365.706V113H364.488V111.796C363.89 112.72 363.008 113.182 361.842 113.182C360.852 113.182 360.017 112.827 359.336 112.118C358.645 111.399 358.3 110.527 358.3 109.5C358.3 108.483 358.645 107.615 359.336 106.896C360.026 106.177 360.862 105.818 361.842 105.818C363.008 105.818 363.89 106.28 364.488 107.204ZM361.996 112.006C362.705 112.006 363.298 111.768 363.774 111.292C364.25 110.797 364.488 110.2 364.488 109.5C364.488 108.791 364.25 108.198 363.774 107.722C363.298 107.237 362.705 106.994 361.996 106.994C361.296 106.994 360.708 107.237 360.232 107.722C359.756 108.198 359.518 108.791 359.518 109.5C359.518 110.2 359.756 110.797 360.232 111.292C360.708 111.768 361.296 112.006 361.996 112.006ZM375.895 108.912V106H377.113V113H375.895V110.074H372.269V113H371.051V106H372.269V108.912H375.895ZM384.763 107.204V106H385.981V113H384.763V111.796C384.166 112.72 383.284 113.182 382.117 113.182C381.128 113.182 380.292 112.827 379.611 112.118C378.92 111.399 378.575 110.527 378.575 109.5C378.575 108.483 378.92 107.615 379.611 106.896C380.302 106.177 381.137 105.818 382.117 105.818C383.284 105.818 384.166 106.28 384.763 107.204ZM382.271 112.006C382.98 112.006 383.573 111.768 384.049 111.292C384.525 110.797 384.763 110.2 384.763 109.5C384.763 108.791 384.525 108.198 384.049 107.722C383.573 107.237 382.98 106.994 382.271 106.994C381.571 106.994 380.983 107.237 380.507 107.722C380.031 108.198 379.793 108.791 379.793 109.5C379.793 110.2 380.031 110.797 380.507 111.292C380.983 111.768 381.571 112.006 382.271 112.006ZM391.606 109.416C392.381 109.743 392.768 110.298 392.768 111.082C392.768 111.689 392.53 112.193 392.054 112.594C391.578 112.986 390.92 113.182 390.08 113.182C388.68 113.182 387.742 112.622 387.266 111.502L388.288 110.9C388.55 111.665 389.152 112.048 390.094 112.048C390.552 112.048 390.911 111.95 391.172 111.754C391.434 111.558 391.564 111.297 391.564 110.97C391.564 110.69 391.457 110.461 391.242 110.284C391.037 110.107 390.757 110.018 390.402 110.018H389.38V108.912H390.136C390.491 108.912 390.766 108.828 390.962 108.66C391.158 108.483 391.256 108.245 391.256 107.946C391.256 107.638 391.14 107.395 390.906 107.218C390.673 107.031 390.36 106.938 389.968 106.938C389.184 106.938 388.652 107.269 388.372 107.932L387.378 107.358C387.873 106.331 388.736 105.818 389.968 105.818C390.715 105.818 391.312 106.014 391.76 106.406C392.218 106.789 392.446 107.269 392.446 107.848C392.446 108.557 392.166 109.08 391.606 109.416ZM399.884 107.204V106H401.102V113H399.884V111.796C399.287 112.72 398.405 113.182 397.238 113.182C396.249 113.182 395.413 112.827 394.732 112.118C394.041 111.399 393.696 110.527 393.696 109.5C393.696 108.483 394.041 107.615 394.732 106.896C395.423 106.177 396.258 105.818 397.238 105.818C398.405 105.818 399.287 106.28 399.884 107.204ZM397.392 112.006C398.101 112.006 398.694 111.768 399.17 111.292C399.646 110.797 399.884 110.2 399.884 109.5C399.884 108.791 399.646 108.198 399.17 107.722C398.694 107.237 398.101 106.994 397.392 106.994C396.692 106.994 396.104 107.237 395.628 107.722C395.152 108.198 394.914 108.791 394.914 109.5C394.914 110.2 395.152 110.797 395.628 111.292C396.104 111.768 396.692 112.006 397.392 112.006ZM408.967 106V111.838H409.933V114.876H408.729V113H403.479V114.876H402.275V111.838H403.129C403.577 111.222 403.801 110.359 403.801 109.248V106H408.967ZM404.515 111.838H407.763V107.134H405.005V109.248C405.005 110.275 404.842 111.138 404.515 111.838Z" fill="#AAAAB6"/>
<g opacity="0.538951">
<path fill-rule="evenodd" clip-rule="evenodd" d="M315.73 114.869L312.001 110.99C312.952 110.035 313.542 108.72 313.542 107.271C313.542 104.364 311.176 102 308.271 102C305.364 102 303 104.364 303 107.271C303 110.176 305.364 112.542 308.271 112.542C309.546 112.542 310.717 112.084 311.63 111.328L315.367 115.217C315.416 115.268 315.483 115.293 315.549 115.293C315.611 115.293 315.674 115.269 315.723 115.223C315.822 115.127 315.826 114.968 315.73 114.869ZM308.271 112.039C305.641 112.039 303.503 109.899 303.503 107.271C303.503 104.641 305.641 102.503 308.271 102.503C310.899 102.503 313.039 104.641 313.039 107.271C313.039 109.899 310.899 112.039 308.271 112.039Z" fill="#787993"/>
<path d="M315.73 114.869L315.37 115.215L315.37 115.216L315.73 114.869ZM312.001 110.99L311.647 110.637L311.301 110.984L311.64 111.336L312.001 110.99ZM311.63 111.328L311.99 110.982L311.668 110.647L311.311 110.943L311.63 111.328ZM315.367 115.217L315.73 114.872L315.728 114.87L315.367 115.217ZM315.723 115.223L316.066 115.587L316.07 115.583L315.723 115.223ZM316.09 114.522L312.361 110.643L311.64 111.336L315.37 115.215L316.09 114.522ZM312.355 111.343C313.395 110.299 314.042 108.859 314.042 107.271H313.042C313.042 108.582 312.509 109.772 311.647 110.637L312.355 111.343ZM314.042 107.271C314.042 104.088 311.452 101.5 308.271 101.5V102.5C310.9 102.5 313.042 104.64 313.042 107.271H314.042ZM308.271 101.5C305.088 101.5 302.5 104.088 302.5 107.271H303.5C303.5 104.64 305.64 102.5 308.271 102.5V101.5ZM302.5 107.271C302.5 110.452 305.088 113.042 308.271 113.042V112.042C305.64 112.042 303.5 109.9 303.5 107.271H302.5ZM308.271 113.042C309.668 113.042 310.95 112.54 311.949 111.713L311.311 110.943C310.484 111.629 309.425 112.042 308.271 112.042V113.042ZM311.269 111.675L315.007 115.563L315.728 114.87L311.99 110.982L311.269 111.675ZM315.005 115.561C315.158 115.722 315.36 115.793 315.549 115.793V114.793C315.605 114.793 315.675 114.814 315.73 114.872L315.005 115.561ZM315.549 115.793C315.736 115.793 315.922 115.723 316.066 115.587L315.38 114.859C315.425 114.816 315.486 114.793 315.549 114.793V115.793ZM316.07 115.583C316.365 115.298 316.38 114.822 316.09 114.521L315.37 115.216C315.272 115.114 315.279 114.957 315.376 114.863L316.07 115.583ZM308.271 111.539C305.917 111.539 304.003 109.623 304.003 107.271H303.003C303.003 110.175 305.365 112.539 308.271 112.539V111.539ZM304.003 107.271C304.003 104.917 305.917 103.003 308.271 103.003V102.003C305.365 102.003 303.003 104.365 303.003 107.271H304.003ZM308.271 103.003C310.623 103.003 312.539 104.917 312.539 107.271H313.539C313.539 104.365 311.175 102.003 308.271 102.003V103.003ZM312.539 107.271C312.539 109.623 310.623 111.539 308.271 111.539V112.539C311.176 112.539 313.539 110.176 313.539 107.271H312.539Z" fill="#787993"/>
</g>
</g>
<g clip-path="url(#clip3_1804_4608)">
<g filter="url(#filter2_d_1804_4608)">
<rect x="543" y="60" width="245" height="73" fill="white"/>
</g>
<path d="M569.008 84.952L572.32 89H569.92L567.008 85.368V89H564.944V81H567.008V84.52L569.76 81H572.224L569.008 84.952ZM576.712 86.376L578.488 81H580.696L577.784 89C576.973 91.2507 575.565 92.3173 573.56 92.2V90.28C574.104 90.2907 574.531 90.1893 574.84 89.976C575.16 89.7627 575.416 89.4053 575.608 88.904L572.376 81H574.568L576.712 86.376ZM581.678 81H588.99V89H586.926V82.936H583.742V89H581.678V81ZM592.898 85.544L596.658 81H598.194V89H596.178V84.456L592.418 89H590.882V81H592.898V85.544ZM599.301 81H606.389V82.984H603.893V89H601.829V82.984H599.301V81ZM609.555 83.56H611.107C612.014 83.56 612.744 83.8107 613.299 84.312C613.854 84.8027 614.131 85.4587 614.131 86.28C614.131 87.1013 613.854 87.7627 613.299 88.264C612.744 88.7547 612.014 89 611.107 89H607.491V81H609.555V83.56ZM609.555 87.176H611.123C611.411 87.176 611.646 87.096 611.827 86.936C612.019 86.7653 612.115 86.5467 612.115 86.28C612.115 86.0133 612.019 85.7947 611.827 85.624C611.646 85.4533 611.411 85.368 611.123 85.368H609.555V87.176ZM628.212 77.8H630.484V89H628.292V81.736L625.14 86.936H624.884L621.732 81.752V89H619.524V77.8H621.796L625.012 83.096L628.212 77.8ZM635.147 81H638.891V89H636.875V86.504H636.155L634.315 89H631.931L633.931 86.264C633.419 86.0507 633.009 85.7147 632.699 85.256C632.401 84.7973 632.251 84.296 632.251 83.752C632.251 83.016 632.518 82.3707 633.051 81.816C633.574 81.272 634.273 81 635.147 81ZM636.875 82.84H635.307C635.009 82.84 634.758 82.9307 634.555 83.112C634.363 83.2933 634.267 83.528 634.267 83.816C634.267 84.104 634.363 84.3333 634.555 84.504C634.758 84.6747 635.009 84.76 635.307 84.76H636.875V82.84ZM644.58 89.224C643.375 89.224 642.367 88.8187 641.556 88.008C640.756 87.1973 640.356 86.1947 640.356 85C640.356 83.8053 640.756 82.8027 641.556 81.992C642.367 81.1813 643.375 80.776 644.58 80.776C645.359 80.776 646.068 80.9627 646.708 81.336C647.348 81.7093 647.833 82.2107 648.164 82.84L646.388 83.88C646.228 83.5493 645.983 83.288 645.652 83.096C645.332 82.904 644.969 82.808 644.564 82.808C643.945 82.808 643.433 83.016 643.028 83.432C642.623 83.8373 642.42 84.36 642.42 85C642.42 85.6187 642.623 86.1413 643.028 86.568C643.433 86.9733 643.945 87.176 644.564 87.176C644.98 87.176 645.348 87.0853 645.668 86.904C645.999 86.712 646.244 86.4507 646.404 86.12L648.196 87.144C647.844 87.784 647.343 88.2907 646.692 88.664C646.052 89.0373 645.348 89.224 644.58 89.224ZM654.598 84.024V81H656.662V89H654.598V85.96H651.414V89H649.35V81H651.414V84.024H654.598ZM664.633 81.944V81H666.697V89H664.633V88.056C664.015 88.8347 663.145 89.224 662.025 89.224C660.959 89.224 660.041 88.8187 659.273 88.008C658.516 87.1867 658.137 86.184 658.137 85C658.137 83.8267 658.516 82.8293 659.273 82.008C660.041 81.1867 660.959 80.776 662.025 80.776C663.145 80.776 664.015 81.1653 664.633 81.944ZM660.825 86.632C661.241 87.048 661.769 87.256 662.409 87.256C663.049 87.256 663.577 87.048 663.993 86.632C664.42 86.2053 664.633 85.6613 664.633 85C664.633 84.3387 664.42 83.8 663.993 83.384C663.577 82.9573 663.049 82.744 662.409 82.744C661.769 82.744 661.241 82.9573 660.825 83.384C660.409 83.8 660.201 84.3387 660.201 85C660.201 85.6613 660.409 86.2053 660.825 86.632ZM671.241 81H674.985V89H672.969V86.504H672.249L670.409 89H668.025L670.025 86.264C669.513 86.0507 669.102 85.7147 668.793 85.256C668.494 84.7973 668.345 84.296 668.345 83.752C668.345 83.016 668.612 82.3707 669.145 81.816C669.668 81.272 670.366 81 671.241 81ZM672.969 82.84H671.401C671.102 82.84 670.852 82.9307 670.649 83.112C670.457 83.2933 670.361 83.528 670.361 83.816C670.361 84.104 670.457 84.3333 670.649 84.504C670.852 84.6747 671.102 84.76 671.401 84.76H672.969V82.84ZM680.866 81H688.178V89H686.114V82.936H682.93V89H680.866V81ZM694.725 80.776C695.802 80.776 696.72 81.1867 697.477 82.008C698.245 82.8293 698.629 83.8267 698.629 85C698.629 86.1947 698.245 87.1973 697.477 88.008C696.73 88.8187 695.813 89.224 694.725 89.224C693.605 89.224 692.741 88.8347 692.133 88.056V92.2H690.069V81H692.133V81.944C692.741 81.1653 693.605 80.776 694.725 80.776ZM692.757 86.632C693.173 87.048 693.701 87.256 694.341 87.256C694.981 87.256 695.509 87.048 695.925 86.632C696.352 86.2053 696.565 85.6613 696.565 85C696.565 84.3387 696.352 83.8 695.925 83.384C695.509 82.9573 694.981 82.744 694.341 82.744C693.701 82.744 693.173 82.9573 692.757 83.384C692.341 83.8 692.133 84.3387 692.133 85C692.133 85.6613 692.341 86.2053 692.757 86.632ZM706.901 88.008C706.09 88.8187 705.087 89.224 703.893 89.224C702.698 89.224 701.695 88.8187 700.885 88.008C700.074 87.1973 699.669 86.1947 699.669 85C699.669 83.816 700.074 82.8187 700.885 82.008C701.706 81.1867 702.709 80.776 703.893 80.776C705.077 80.776 706.079 81.1867 706.901 82.008C707.722 82.8293 708.133 83.8267 708.133 85C708.133 86.184 707.722 87.1867 706.901 88.008ZM702.341 86.584C702.757 87 703.274 87.208 703.893 87.208C704.511 87.208 705.029 87 705.445 86.584C705.861 86.168 706.069 85.64 706.069 85C706.069 84.36 705.861 83.832 705.445 83.416C705.029 83 704.511 82.792 703.893 82.792C703.274 82.792 702.757 83 702.341 83.416C701.935 83.8427 701.733 84.3707 701.733 85C701.733 85.6293 701.935 86.1573 702.341 86.584ZM716.472 81V87.064H717.528V91.144H715.512V89H710.552V91.144H708.536V87.064H709.512C709.971 86.3813 710.2 85.4373 710.2 84.232V81H716.472ZM711.72 87.064H714.456V82.856H712.216V84.232C712.216 85.384 712.051 86.328 711.72 87.064ZM721.962 86.376L723.738 81H725.946L723.034 89C722.223 91.2507 720.815 92.3173 718.81 92.2V90.28C719.354 90.2907 719.781 90.1893 720.09 89.976C720.41 89.7627 720.666 89.4053 720.858 88.904L717.626 81H719.818L721.962 86.376ZM730.992 84.952L734.304 89H731.904L728.992 85.368V89H726.928V81H728.992V84.52L731.744 81H734.208L730.992 84.952ZM742.375 81V87.064H743.719V91.144H741.703V89H735.335V81H737.399V87.064H740.311V81H742.375ZM747.038 85.544L750.798 81H752.334V89H750.318V84.456L746.558 89H745.022V81H747.038V85.544ZM756.897 81H760.641V89H758.625V86.504H757.905L756.065 89H753.681L755.681 86.264C755.169 86.0507 754.759 85.7147 754.449 85.256C754.151 84.7973 754.001 84.296 754.001 83.752C754.001 83.016 754.268 82.3707 754.801 81.816C755.324 81.272 756.023 81 756.897 81ZM758.625 82.84H757.057C756.759 82.84 756.508 82.9307 756.305 83.112C756.113 83.2933 756.017 83.528 756.017 83.816C756.017 84.104 756.113 84.3333 756.305 84.504C756.508 84.6747 756.759 84.76 757.057 84.76H758.625V82.84Z" fill="#4E72CA"/>
<path d="M591.832 113H585.504V111.936L588.962 108.408C589.886 107.484 590.348 106.691 590.348 106.028C590.348 105.487 590.18 105.062 589.844 104.754C589.517 104.437 589.107 104.278 588.612 104.278C587.688 104.278 587.016 104.717 586.596 105.594L585.504 104.95C585.803 104.325 586.223 103.849 586.764 103.522C587.305 103.186 587.917 103.018 588.598 103.018C589.429 103.018 590.143 103.289 590.74 103.83C591.347 104.381 591.65 105.109 591.65 106.014C591.65 107.003 591.067 108.081 589.9 109.248L587.394 111.74H591.832V113ZM601.217 109.346V106H602.435V113H601.217V110.48C600.647 110.723 600.017 110.844 599.327 110.844C598.421 110.844 597.726 110.629 597.241 110.2C596.755 109.771 596.513 109.145 596.513 108.324V106H597.731V108.254C597.731 108.767 597.866 109.141 598.137 109.374C598.417 109.598 598.841 109.71 599.411 109.71C600.055 109.71 600.657 109.589 601.217 109.346ZM610.081 107.204V106H611.299V113H610.081V111.796C609.484 112.72 608.602 113.182 607.435 113.182C606.446 113.182 605.611 112.827 604.929 112.118C604.239 111.399 603.893 110.527 603.893 109.5C603.893 108.483 604.239 107.615 604.929 106.896C605.62 106.177 606.455 105.818 607.435 105.818C608.602 105.818 609.484 106.28 610.081 107.204ZM607.589 112.006C608.299 112.006 608.891 111.768 609.367 111.292C609.843 110.797 610.081 110.2 610.081 109.5C610.081 108.791 609.843 108.198 609.367 107.722C608.891 107.237 608.299 106.994 607.589 106.994C606.889 106.994 606.301 107.237 605.825 107.722C605.349 108.198 605.111 108.791 605.111 109.5C605.111 110.2 605.349 110.797 605.825 111.292C606.301 111.768 606.889 112.006 607.589 112.006ZM616.435 113.182C615.38 113.182 614.503 112.832 613.803 112.132C613.103 111.423 612.753 110.545 612.753 109.5C612.753 108.455 613.103 107.582 613.803 106.882C614.503 106.173 615.38 105.818 616.435 105.818C617.125 105.818 617.746 105.986 618.297 106.322C618.847 106.649 619.258 107.092 619.529 107.652L618.507 108.24C618.329 107.867 618.054 107.568 617.681 107.344C617.317 107.12 616.901 107.008 616.435 107.008C615.735 107.008 615.147 107.246 614.671 107.722C614.204 108.207 613.971 108.8 613.971 109.5C613.971 110.191 614.204 110.779 614.671 111.264C615.147 111.74 615.735 111.978 616.435 111.978C616.901 111.978 617.321 111.871 617.695 111.656C618.068 111.432 618.353 111.133 618.549 110.76L619.585 111.362C619.277 111.922 618.843 112.365 618.283 112.692C617.723 113.019 617.107 113.182 616.435 113.182ZM626.488 107.204V106H627.706V113H626.488V111.796C625.89 112.72 625.008 113.182 623.842 113.182C622.852 113.182 622.017 112.827 621.336 112.118C620.645 111.399 620.3 110.527 620.3 109.5C620.3 108.483 620.645 107.615 621.336 106.896C622.026 106.177 622.862 105.818 623.842 105.818C625.008 105.818 625.89 106.28 626.488 107.204ZM623.996 112.006C624.705 112.006 625.298 111.768 625.774 111.292C626.25 110.797 626.488 110.2 626.488 109.5C626.488 108.791 626.25 108.198 625.774 107.722C625.298 107.237 624.705 106.994 623.996 106.994C623.296 106.994 622.708 107.237 622.232 107.722C621.756 108.198 621.518 108.791 621.518 109.5C621.518 110.2 621.756 110.797 622.232 111.292C622.708 111.768 623.296 112.006 623.996 112.006ZM637.895 108.912V106H639.113V113H637.895V110.074H634.269V113H633.051V106H634.269V108.912H637.895ZM646.763 107.204V106H647.981V113H646.763V111.796C646.166 112.72 645.284 113.182 644.117 113.182C643.128 113.182 642.292 112.827 641.611 112.118C640.92 111.399 640.575 110.527 640.575 109.5C640.575 108.483 640.92 107.615 641.611 106.896C642.302 106.177 643.137 105.818 644.117 105.818C645.284 105.818 646.166 106.28 646.763 107.204ZM644.271 112.006C644.98 112.006 645.573 111.768 646.049 111.292C646.525 110.797 646.763 110.2 646.763 109.5C646.763 108.791 646.525 108.198 646.049 107.722C645.573 107.237 644.98 106.994 644.271 106.994C643.571 106.994 642.983 107.237 642.507 107.722C642.031 108.198 641.793 108.791 641.793 109.5C641.793 110.2 642.031 110.797 642.507 111.292C642.983 111.768 643.571 112.006 644.271 112.006ZM653.606 109.416C654.381 109.743 654.768 110.298 654.768 111.082C654.768 111.689 654.53 112.193 654.054 112.594C653.578 112.986 652.92 113.182 652.08 113.182C650.68 113.182 649.742 112.622 649.266 111.502L650.288 110.9C650.55 111.665 651.152 112.048 652.094 112.048C652.552 112.048 652.911 111.95 653.172 111.754C653.434 111.558 653.564 111.297 653.564 110.97C653.564 110.69 653.457 110.461 653.242 110.284C653.037 110.107 652.757 110.018 652.402 110.018H651.38V108.912H652.136C652.491 108.912 652.766 108.828 652.962 108.66C653.158 108.483 653.256 108.245 653.256 107.946C653.256 107.638 653.14 107.395 652.906 107.218C652.673 107.031 652.36 106.938 651.968 106.938C651.184 106.938 650.652 107.269 650.372 107.932L649.378 107.358C649.873 106.331 650.736 105.818 651.968 105.818C652.715 105.818 653.312 106.014 653.76 106.406C654.218 106.789 654.446 107.269 654.446 107.848C654.446 108.557 654.166 109.08 653.606 109.416ZM661.884 107.204V106H663.102V113H661.884V111.796C661.287 112.72 660.405 113.182 659.238 113.182C658.249 113.182 657.413 112.827 656.732 112.118C656.041 111.399 655.696 110.527 655.696 109.5C655.696 108.483 656.041 107.615 656.732 106.896C657.423 106.177 658.258 105.818 659.238 105.818C660.405 105.818 661.287 106.28 661.884 107.204ZM659.392 112.006C660.101 112.006 660.694 111.768 661.17 111.292C661.646 110.797 661.884 110.2 661.884 109.5C661.884 108.791 661.646 108.198 661.17 107.722C660.694 107.237 660.101 106.994 659.392 106.994C658.692 106.994 658.104 107.237 657.628 107.722C657.152 108.198 656.914 108.791 656.914 109.5C656.914 110.2 657.152 110.797 657.628 111.292C658.104 111.768 658.692 112.006 659.392 112.006ZM670.967 106V111.838H671.933V114.876H670.729V113H665.479V114.876H664.275V111.838H665.129C665.577 111.222 665.801 110.359 665.801 109.248V106H670.967ZM666.515 111.838H669.763V107.134H667.005V109.248C667.005 110.275 666.842 111.138 666.515 111.838Z" fill="#AAAAB6"/>
<g opacity="0.538951">
<path fill-rule="evenodd" clip-rule="evenodd" d="M577.73 114.869L574.001 110.99C574.952 110.035 575.542 108.72 575.542 107.271C575.542 104.364 573.176 102 570.271 102C567.364 102 565 104.364 565 107.271C565 110.176 567.364 112.542 570.271 112.542C571.546 112.542 572.717 112.084 573.63 111.328L577.367 115.217C577.416 115.268 577.483 115.293 577.549 115.293C577.611 115.293 577.674 115.269 577.723 115.223C577.822 115.127 577.826 114.968 577.73 114.869ZM570.271 112.039C567.641 112.039 565.503 109.899 565.503 107.271C565.503 104.641 567.641 102.503 570.271 102.503C572.899 102.503 575.039 104.641 575.039 107.271C575.039 109.899 572.899 112.039 570.271 112.039Z" fill="#787993"/>
<path d="M577.73 114.869L577.37 115.215L577.37 115.216L577.73 114.869ZM574.001 110.99L573.647 110.637L573.301 110.984L573.64 111.336L574.001 110.99ZM573.63 111.328L573.99 110.982L573.668 110.647L573.311 110.943L573.63 111.328ZM577.367 115.217L577.73 114.872L577.728 114.87L577.367 115.217ZM577.723 115.223L578.066 115.587L578.07 115.583L577.723 115.223ZM578.09 114.522L574.361 110.643L573.64 111.336L577.37 115.215L578.09 114.522ZM574.355 111.343C575.395 110.299 576.042 108.859 576.042 107.271H575.042C575.042 108.582 574.509 109.772 573.647 110.637L574.355 111.343ZM576.042 107.271C576.042 104.088 573.452 101.5 570.271 101.5V102.5C572.9 102.5 575.042 104.64 575.042 107.271H576.042ZM570.271 101.5C567.088 101.5 564.5 104.088 564.5 107.271H565.5C565.5 104.64 567.64 102.5 570.271 102.5V101.5ZM564.5 107.271C564.5 110.452 567.088 113.042 570.271 113.042V112.042C567.64 112.042 565.5 109.9 565.5 107.271H564.5ZM570.271 113.042C571.668 113.042 572.95 112.54 573.949 111.713L573.311 110.943C572.484 111.629 571.425 112.042 570.271 112.042V113.042ZM573.269 111.675L577.007 115.563L577.728 114.87L573.99 110.982L573.269 111.675ZM577.005 115.561C577.158 115.722 577.36 115.793 577.549 115.793V114.793C577.605 114.793 577.675 114.814 577.73 114.872L577.005 115.561ZM577.549 115.793C577.736 115.793 577.922 115.723 578.066 115.587L577.38 114.859C577.425 114.816 577.486 114.793 577.549 114.793V115.793ZM578.07 115.583C578.365 115.298 578.38 114.822 578.09 114.521L577.37 115.216C577.272 115.114 577.279 114.957 577.376 114.863L578.07 115.583ZM570.271 111.539C567.917 111.539 566.003 109.623 566.003 107.271H565.003C565.003 110.175 567.365 112.539 570.271 112.539V111.539ZM566.003 107.271C566.003 104.917 567.917 103.003 570.271 103.003V102.003C567.365 102.003 565.003 104.365 565.003 107.271H566.003ZM570.271 103.003C572.623 103.003 574.539 104.917 574.539 107.271H575.539C575.539 104.365 573.175 102.003 570.271 102.003V103.003ZM574.539 107.271C574.539 109.623 572.623 111.539 570.271 111.539V112.539C573.176 112.539 575.539 110.176 575.539 107.271H574.539Z" fill="#787993"/>
</g>
</g>
<g clip-path="url(#clip4_1804_4608)">
<g filter="url(#filter3_d_1804_4608)">
<rect x="805" y="60" width="245" height="73" fill="white"/>
</g>
<path d="M831.008 84.952L834.32 89H831.92L829.008 85.368V89H826.944V81H829.008V84.52L831.76 81H834.224L831.008 84.952ZM838.712 86.376L840.488 81H842.696L839.784 89C838.973 91.2507 837.565 92.3173 835.56 92.2V90.28C836.104 90.2907 836.531 90.1893 836.84 89.976C837.16 89.7627 837.416 89.4053 837.608 88.904L834.376 81H836.568L838.712 86.376ZM843.678 81H850.99V89H848.926V82.936H845.742V89H843.678V81ZM854.898 85.544L858.658 81H860.194V89H858.178V84.456L854.418 89H852.882V81H854.898V85.544ZM861.301 81H868.389V82.984H865.893V89H863.829V82.984H861.301V81ZM871.555 83.56H873.107C874.014 83.56 874.744 83.8107 875.299 84.312C875.854 84.8027 876.131 85.4587 876.131 86.28C876.131 87.1013 875.854 87.7627 875.299 88.264C874.744 88.7547 874.014 89 873.107 89H869.491V81H871.555V83.56ZM871.555 87.176H873.123C873.411 87.176 873.646 87.096 873.827 86.936C874.019 86.7653 874.115 86.5467 874.115 86.28C874.115 86.0133 874.019 85.7947 873.827 85.624C873.646 85.4533 873.411 85.368 873.123 85.368H871.555V87.176ZM890.212 77.8H892.484V89H890.292V81.736L887.14 86.936H886.884L883.732 81.752V89H881.524V77.8H883.796L887.012 83.096L890.212 77.8ZM897.147 81H900.891V89H898.875V86.504H898.155L896.315 89H893.931L895.931 86.264C895.419 86.0507 895.009 85.7147 894.699 85.256C894.401 84.7973 894.251 84.296 894.251 83.752C894.251 83.016 894.518 82.3707 895.051 81.816C895.574 81.272 896.273 81 897.147 81ZM898.875 82.84H897.307C897.009 82.84 896.758 82.9307 896.555 83.112C896.363 83.2933 896.267 83.528 896.267 83.816C896.267 84.104 896.363 84.3333 896.555 84.504C896.758 84.6747 897.009 84.76 897.307 84.76H898.875V82.84ZM906.58 89.224C905.375 89.224 904.367 88.8187 903.556 88.008C902.756 87.1973 902.356 86.1947 902.356 85C902.356 83.8053 902.756 82.8027 903.556 81.992C904.367 81.1813 905.375 80.776 906.58 80.776C907.359 80.776 908.068 80.9627 908.708 81.336C909.348 81.7093 909.833 82.2107 910.164 82.84L908.388 83.88C908.228 83.5493 907.983 83.288 907.652 83.096C907.332 82.904 906.969 82.808 906.564 82.808C905.945 82.808 905.433 83.016 905.028 83.432C904.623 83.8373 904.42 84.36 904.42 85C904.42 85.6187 904.623 86.1413 905.028 86.568C905.433 86.9733 905.945 87.176 906.564 87.176C906.98 87.176 907.348 87.0853 907.668 86.904C907.999 86.712 908.244 86.4507 908.404 86.12L910.196 87.144C909.844 87.784 909.343 88.2907 908.692 88.664C908.052 89.0373 907.348 89.224 906.58 89.224ZM916.598 84.024V81H918.662V89H916.598V85.96H913.414V89H911.35V81H913.414V84.024H916.598ZM926.633 81.944V81H928.697V89H926.633V88.056C926.015 88.8347 925.145 89.224 924.025 89.224C922.959 89.224 922.041 88.8187 921.273 88.008C920.516 87.1867 920.137 86.184 920.137 85C920.137 83.8267 920.516 82.8293 921.273 82.008C922.041 81.1867 922.959 80.776 924.025 80.776C925.145 80.776 926.015 81.1653 926.633 81.944ZM922.825 86.632C923.241 87.048 923.769 87.256 924.409 87.256C925.049 87.256 925.577 87.048 925.993 86.632C926.42 86.2053 926.633 85.6613 926.633 85C926.633 84.3387 926.42 83.8 925.993 83.384C925.577 82.9573 925.049 82.744 924.409 82.744C923.769 82.744 923.241 82.9573 922.825 83.384C922.409 83.8 922.201 84.3387 922.201 85C922.201 85.6613 922.409 86.2053 922.825 86.632ZM933.241 81H936.985V89H934.969V86.504H934.249L932.409 89H930.025L932.025 86.264C931.513 86.0507 931.102 85.7147 930.793 85.256C930.494 84.7973 930.345 84.296 930.345 83.752C930.345 83.016 930.612 82.3707 931.145 81.816C931.668 81.272 932.366 81 933.241 81ZM934.969 82.84H933.401C933.102 82.84 932.852 82.9307 932.649 83.112C932.457 83.2933 932.361 83.528 932.361 83.816C932.361 84.104 932.457 84.3333 932.649 84.504C932.852 84.6747 933.102 84.76 933.401 84.76H934.969V82.84ZM942.866 81H950.178V89H948.114V82.936H944.93V89H942.866V81ZM956.725 80.776C957.802 80.776 958.72 81.1867 959.477 82.008C960.245 82.8293 960.629 83.8267 960.629 85C960.629 86.1947 960.245 87.1973 959.477 88.008C958.73 88.8187 957.813 89.224 956.725 89.224C955.605 89.224 954.741 88.8347 954.133 88.056V92.2H952.069V81H954.133V81.944C954.741 81.1653 955.605 80.776 956.725 80.776ZM954.757 86.632C955.173 87.048 955.701 87.256 956.341 87.256C956.981 87.256 957.509 87.048 957.925 86.632C958.352 86.2053 958.565 85.6613 958.565 85C958.565 84.3387 958.352 83.8 957.925 83.384C957.509 82.9573 956.981 82.744 956.341 82.744C955.701 82.744 955.173 82.9573 954.757 83.384C954.341 83.8 954.133 84.3387 954.133 85C954.133 85.6613 954.341 86.2053 954.757 86.632ZM968.901 88.008C968.09 88.8187 967.087 89.224 965.893 89.224C964.698 89.224 963.695 88.8187 962.885 88.008C962.074 87.1973 961.669 86.1947 961.669 85C961.669 83.816 962.074 82.8187 962.885 82.008C963.706 81.1867 964.709 80.776 965.893 80.776C967.077 80.776 968.079 81.1867 968.901 82.008C969.722 82.8293 970.133 83.8267 970.133 85C970.133 86.184 969.722 87.1867 968.901 88.008ZM964.341 86.584C964.757 87 965.274 87.208 965.893 87.208C966.511 87.208 967.029 87 967.445 86.584C967.861 86.168 968.069 85.64 968.069 85C968.069 84.36 967.861 83.832 967.445 83.416C967.029 83 966.511 82.792 965.893 82.792C965.274 82.792 964.757 83 964.341 83.416C963.935 83.8427 963.733 84.3707 963.733 85C963.733 85.6293 963.935 86.1573 964.341 86.584ZM978.472 81V87.064H979.528V91.144H977.512V89H972.552V91.144H970.536V87.064H971.512C971.971 86.3813 972.2 85.4373 972.2 84.232V81H978.472ZM973.72 87.064H976.456V82.856H974.216V84.232C974.216 85.384 974.051 86.328 973.72 87.064ZM983.962 86.376L985.738 81H987.946L985.034 89C984.223 91.2507 982.815 92.3173 980.81 92.2V90.28C981.354 90.2907 981.781 90.1893 982.09 89.976C982.41 89.7627 982.666 89.4053 982.858 88.904L979.626 81H981.818L983.962 86.376ZM992.992 84.952L996.304 89H993.904L990.992 85.368V89H988.928V81H990.992V84.52L993.744 81H996.208L992.992 84.952ZM1004.37 81V87.064H1005.72V91.144H1003.7V89H997.335V81H999.399V87.064H1002.31V81H1004.37ZM1009.04 85.544L1012.8 81H1014.33V89H1012.32V84.456L1008.56 89H1007.02V81H1009.04V85.544ZM1018.9 81H1022.64V89H1020.63V86.504H1019.91L1018.07 89H1015.68L1017.68 86.264C1017.17 86.0507 1016.76 85.7147 1016.45 85.256C1016.15 84.7973 1016 84.296 1016 83.752C1016 83.016 1016.27 82.3707 1016.8 81.816C1017.32 81.272 1018.02 81 1018.9 81ZM1020.63 82.84H1019.06C1018.76 82.84 1018.51 82.9307 1018.31 83.112C1018.11 83.2933 1018.02 83.528 1018.02 83.816C1018.02 84.104 1018.11 84.3333 1018.31 84.504C1018.51 84.6747 1018.76 84.76 1019.06 84.76H1020.63V82.84Z" fill="#4E72CA"/>
<path d="M853.832 113H847.504V111.936L850.962 108.408C851.886 107.484 852.348 106.691 852.348 106.028C852.348 105.487 852.18 105.062 851.844 104.754C851.517 104.437 851.107 104.278 850.612 104.278C849.688 104.278 849.016 104.717 848.596 105.594L847.504 104.95C847.803 104.325 848.223 103.849 848.764 103.522C849.305 103.186 849.917 103.018 850.598 103.018C851.429 103.018 852.143 103.289 852.74 103.83C853.347 104.381 853.65 105.109 853.65 106.014C853.65 107.003 853.067 108.081 851.9 109.248L849.394 111.74H853.832V113ZM863.217 109.346V106H864.435V113H863.217V110.48C862.647 110.723 862.017 110.844 861.327 110.844C860.421 110.844 859.726 110.629 859.241 110.2C858.755 109.771 858.513 109.145 858.513 108.324V106H859.731V108.254C859.731 108.767 859.866 109.141 860.137 109.374C860.417 109.598 860.841 109.71 861.411 109.71C862.055 109.71 862.657 109.589 863.217 109.346ZM872.081 107.204V106H873.299V113H872.081V111.796C871.484 112.72 870.602 113.182 869.435 113.182C868.446 113.182 867.611 112.827 866.929 112.118C866.239 111.399 865.893 110.527 865.893 109.5C865.893 108.483 866.239 107.615 866.929 106.896C867.62 106.177 868.455 105.818 869.435 105.818C870.602 105.818 871.484 106.28 872.081 107.204ZM869.589 112.006C870.299 112.006 870.891 111.768 871.367 111.292C871.843 110.797 872.081 110.2 872.081 109.5C872.081 108.791 871.843 108.198 871.367 107.722C870.891 107.237 870.299 106.994 869.589 106.994C868.889 106.994 868.301 107.237 867.825 107.722C867.349 108.198 867.111 108.791 867.111 109.5C867.111 110.2 867.349 110.797 867.825 111.292C868.301 111.768 868.889 112.006 869.589 112.006ZM878.435 113.182C877.38 113.182 876.503 112.832 875.803 112.132C875.103 111.423 874.753 110.545 874.753 109.5C874.753 108.455 875.103 107.582 875.803 106.882C876.503 106.173 877.38 105.818 878.435 105.818C879.125 105.818 879.746 105.986 880.297 106.322C880.847 106.649 881.258 107.092 881.529 107.652L880.507 108.24C880.329 107.867 880.054 107.568 879.681 107.344C879.317 107.12 878.901 107.008 878.435 107.008C877.735 107.008 877.147 107.246 876.671 107.722C876.204 108.207 875.971 108.8 875.971 109.5C875.971 110.191 876.204 110.779 876.671 111.264C877.147 111.74 877.735 111.978 878.435 111.978C878.901 111.978 879.321 111.871 879.695 111.656C880.068 111.432 880.353 111.133 880.549 110.76L881.585 111.362C881.277 111.922 880.843 112.365 880.283 112.692C879.723 113.019 879.107 113.182 878.435 113.182ZM888.488 107.204V106H889.706V113H888.488V111.796C887.89 112.72 887.008 113.182 885.842 113.182C884.852 113.182 884.017 112.827 883.336 112.118C882.645 111.399 882.3 110.527 882.3 109.5C882.3 108.483 882.645 107.615 883.336 106.896C884.026 106.177 884.862 105.818 885.842 105.818C887.008 105.818 887.89 106.28 888.488 107.204ZM885.996 112.006C886.705 112.006 887.298 111.768 887.774 111.292C888.25 110.797 888.488 110.2 888.488 109.5C888.488 108.791 888.25 108.198 887.774 107.722C887.298 107.237 886.705 106.994 885.996 106.994C885.296 106.994 884.708 107.237 884.232 107.722C883.756 108.198 883.518 108.791 883.518 109.5C883.518 110.2 883.756 110.797 884.232 111.292C884.708 111.768 885.296 112.006 885.996 112.006ZM899.895 108.912V106H901.113V113H899.895V110.074H896.269V113H895.051V106H896.269V108.912H899.895ZM908.763 107.204V106H909.981V113H908.763V111.796C908.166 112.72 907.284 113.182 906.117 113.182C905.128 113.182 904.292 112.827 903.611 112.118C902.92 111.399 902.575 110.527 902.575 109.5C902.575 108.483 902.92 107.615 903.611 106.896C904.302 106.177 905.137 105.818 906.117 105.818C907.284 105.818 908.166 106.28 908.763 107.204ZM906.271 112.006C906.98 112.006 907.573 111.768 908.049 111.292C908.525 110.797 908.763 110.2 908.763 109.5C908.763 108.791 908.525 108.198 908.049 107.722C907.573 107.237 906.98 106.994 906.271 106.994C905.571 106.994 904.983 107.237 904.507 107.722C904.031 108.198 903.793 108.791 903.793 109.5C903.793 110.2 904.031 110.797 904.507 111.292C904.983 111.768 905.571 112.006 906.271 112.006ZM915.606 109.416C916.381 109.743 916.768 110.298 916.768 111.082C916.768 111.689 916.53 112.193 916.054 112.594C915.578 112.986 914.92 113.182 914.08 113.182C912.68 113.182 911.742 112.622 911.266 111.502L912.288 110.9C912.55 111.665 913.152 112.048 914.094 112.048C914.552 112.048 914.911 111.95 915.172 111.754C915.434 111.558 915.564 111.297 915.564 110.97C915.564 110.69 915.457 110.461 915.242 110.284C915.037 110.107 914.757 110.018 914.402 110.018H913.38V108.912H914.136C914.491 108.912 914.766 108.828 914.962 108.66C915.158 108.483 915.256 108.245 915.256 107.946C915.256 107.638 915.14 107.395 914.906 107.218C914.673 107.031 914.36 106.938 913.968 106.938C913.184 106.938 912.652 107.269 912.372 107.932L911.378 107.358C911.873 106.331 912.736 105.818 913.968 105.818C914.715 105.818 915.312 106.014 915.76 106.406C916.218 106.789 916.446 107.269 916.446 107.848C916.446 108.557 916.166 109.08 915.606 109.416ZM923.884 107.204V106H925.102V113H923.884V111.796C923.287 112.72 922.405 113.182 921.238 113.182C920.249 113.182 919.413 112.827 918.732 112.118C918.041 111.399 917.696 110.527 917.696 109.5C917.696 108.483 918.041 107.615 918.732 106.896C919.423 106.177 920.258 105.818 921.238 105.818C922.405 105.818 923.287 106.28 923.884 107.204ZM921.392 112.006C922.101 112.006 922.694 111.768 923.17 111.292C923.646 110.797 923.884 110.2 923.884 109.5C923.884 108.791 923.646 108.198 923.17 107.722C922.694 107.237 922.101 106.994 921.392 106.994C920.692 106.994 920.104 107.237 919.628 107.722C919.152 108.198 918.914 108.791 918.914 109.5C918.914 110.2 919.152 110.797 919.628 111.292C920.104 111.768 920.692 112.006 921.392 112.006ZM932.967 106V111.838H933.933V114.876H932.729V113H927.479V114.876H926.275V111.838H927.129C927.577 111.222 927.801 110.359 927.801 109.248V106H932.967ZM928.515 111.838H931.763V107.134H929.005V109.248C929.005 110.275 928.842 111.138 928.515 111.838Z" fill="#AAAAB6"/>
<g opacity="0.538951">
<path fill-rule="evenodd" clip-rule="evenodd" d="M839.73 114.869L836.001 110.99C836.952 110.035 837.542 108.72 837.542 107.271C837.542 104.364 835.176 102 832.271 102C829.364 102 827 104.364 827 107.271C827 110.176 829.364 112.542 832.271 112.542C833.546 112.542 834.717 112.084 835.63 111.328L839.367 115.217C839.416 115.268 839.483 115.293 839.549 115.293C839.611 115.293 839.674 115.269 839.723 115.223C839.822 115.127 839.826 114.968 839.73 114.869ZM832.271 112.039C829.641 112.039 827.503 109.899 827.503 107.271C827.503 104.641 829.641 102.503 832.271 102.503C834.899 102.503 837.039 104.641 837.039 107.271C837.039 109.899 834.899 112.039 832.271 112.039Z" fill="#787993"/>
<path d="M839.73 114.869L839.37 115.215L839.37 115.216L839.73 114.869ZM836.001 110.99L835.647 110.637L835.301 110.984L835.64 111.336L836.001 110.99ZM835.63 111.328L835.99 110.982L835.668 110.647L835.311 110.943L835.63 111.328ZM839.367 115.217L839.73 114.872L839.728 114.87L839.367 115.217ZM839.723 115.223L840.066 115.587L840.07 115.583L839.723 115.223ZM840.09 114.522L836.361 110.643L835.64 111.336L839.37 115.215L840.09 114.522ZM836.355 111.343C837.395 110.299 838.042 108.859 838.042 107.271H837.042C837.042 108.582 836.509 109.772 835.647 110.637L836.355 111.343ZM838.042 107.271C838.042 104.088 835.452 101.5 832.271 101.5V102.5C834.9 102.5 837.042 104.64 837.042 107.271H838.042ZM832.271 101.5C829.088 101.5 826.5 104.088 826.5 107.271H827.5C827.5 104.64 829.64 102.5 832.271 102.5V101.5ZM826.5 107.271C826.5 110.452 829.088 113.042 832.271 113.042V112.042C829.64 112.042 827.5 109.9 827.5 107.271H826.5ZM832.271 113.042C833.668 113.042 834.95 112.54 835.949 111.713L835.311 110.943C834.484 111.629 833.425 112.042 832.271 112.042V113.042ZM835.269 111.675L839.007 115.563L839.728 114.87L835.99 110.982L835.269 111.675ZM839.005 115.561C839.158 115.722 839.36 115.793 839.549 115.793V114.793C839.605 114.793 839.675 114.814 839.73 114.872L839.005 115.561ZM839.549 115.793C839.736 115.793 839.922 115.723 840.066 115.587L839.38 114.859C839.425 114.816 839.486 114.793 839.549 114.793V115.793ZM840.07 115.583C840.365 115.298 840.38 114.822 840.09 114.521L839.37 115.216C839.272 115.114 839.279 114.957 839.376 114.863L840.07 115.583ZM832.271 111.539C829.917 111.539 828.003 109.623 828.003 107.271H827.003C827.003 110.175 829.365 112.539 832.271 112.539V111.539ZM828.003 107.271C828.003 104.917 829.917 103.003 832.271 103.003V102.003C829.365 102.003 827.003 104.365 827.003 107.271H828.003ZM832.271 103.003C834.623 103.003 836.539 104.917 836.539 107.271H837.539C837.539 104.365 835.175 102.003 832.271 102.003V103.003ZM836.539 107.271C836.539 109.623 834.623 111.539 832.271 111.539V112.539C835.176 112.539 837.539 110.176 837.539 107.271H836.539Z" fill="#787993"/>
</g>
</g>
<g clip-path="url(#clip5_1804_4608)">
<g filter="url(#filter4_d_1804_4608)">
<rect x="1067" y="60" width="245" height="73" fill="white"/>
</g>
<path d="M1093.01 84.952L1096.32 89H1093.92L1091.01 85.368V89H1088.94V81H1091.01V84.52L1093.76 81H1096.22L1093.01 84.952ZM1100.71 86.376L1102.49 81H1104.7L1101.78 89C1100.97 91.2507 1099.57 92.3173 1097.56 92.2V90.28C1098.1 90.2907 1098.53 90.1893 1098.84 89.976C1099.16 89.7627 1099.42 89.4053 1099.61 88.904L1096.38 81H1098.57L1100.71 86.376ZM1105.68 81H1112.99V89H1110.93V82.936H1107.74V89H1105.68V81ZM1116.9 85.544L1120.66 81H1122.19V89H1120.18V84.456L1116.42 89H1114.88V81H1116.9V85.544ZM1123.3 81H1130.39V82.984H1127.89V89H1125.83V82.984H1123.3V81ZM1133.55 83.56H1135.11C1136.01 83.56 1136.74 83.8107 1137.3 84.312C1137.85 84.8027 1138.13 85.4587 1138.13 86.28C1138.13 87.1013 1137.85 87.7627 1137.3 88.264C1136.74 88.7547 1136.01 89 1135.11 89H1131.49V81H1133.55V83.56ZM1133.55 87.176H1135.12C1135.41 87.176 1135.65 87.096 1135.83 86.936C1136.02 86.7653 1136.11 86.5467 1136.11 86.28C1136.11 86.0133 1136.02 85.7947 1135.83 85.624C1135.65 85.4533 1135.41 85.368 1135.12 85.368H1133.55V87.176ZM1152.21 77.8H1154.48V89H1152.29V81.736L1149.14 86.936H1148.88L1145.73 81.752V89H1143.52V77.8H1145.8L1149.01 83.096L1152.21 77.8ZM1159.15 81H1162.89V89H1160.88V86.504H1160.16L1158.32 89H1155.93L1157.93 86.264C1157.42 86.0507 1157.01 85.7147 1156.7 85.256C1156.4 84.7973 1156.25 84.296 1156.25 83.752C1156.25 83.016 1156.52 82.3707 1157.05 81.816C1157.57 81.272 1158.27 81 1159.15 81ZM1160.88 82.84H1159.31C1159.01 82.84 1158.76 82.9307 1158.56 83.112C1158.36 83.2933 1158.27 83.528 1158.27 83.816C1158.27 84.104 1158.36 84.3333 1158.56 84.504C1158.76 84.6747 1159.01 84.76 1159.31 84.76H1160.88V82.84ZM1168.58 89.224C1167.37 89.224 1166.37 88.8187 1165.56 88.008C1164.76 87.1973 1164.36 86.1947 1164.36 85C1164.36 83.8053 1164.76 82.8027 1165.56 81.992C1166.37 81.1813 1167.37 80.776 1168.58 80.776C1169.36 80.776 1170.07 80.9627 1170.71 81.336C1171.35 81.7093 1171.83 82.2107 1172.16 82.84L1170.39 83.88C1170.23 83.5493 1169.98 83.288 1169.65 83.096C1169.33 82.904 1168.97 82.808 1168.56 82.808C1167.95 82.808 1167.43 83.016 1167.03 83.432C1166.62 83.8373 1166.42 84.36 1166.42 85C1166.42 85.6187 1166.62 86.1413 1167.03 86.568C1167.43 86.9733 1167.95 87.176 1168.56 87.176C1168.98 87.176 1169.35 87.0853 1169.67 86.904C1170 86.712 1170.24 86.4507 1170.4 86.12L1172.2 87.144C1171.84 87.784 1171.34 88.2907 1170.69 88.664C1170.05 89.0373 1169.35 89.224 1168.58 89.224ZM1178.6 84.024V81H1180.66V89H1178.6V85.96H1175.41V89H1173.35V81H1175.41V84.024H1178.6ZM1188.63 81.944V81H1190.7V89H1188.63V88.056C1188.01 88.8347 1187.15 89.224 1186.03 89.224C1184.96 89.224 1184.04 88.8187 1183.27 88.008C1182.52 87.1867 1182.14 86.184 1182.14 85C1182.14 83.8267 1182.52 82.8293 1183.27 82.008C1184.04 81.1867 1184.96 80.776 1186.03 80.776C1187.15 80.776 1188.01 81.1653 1188.63 81.944ZM1184.83 86.632C1185.24 87.048 1185.77 87.256 1186.41 87.256C1187.05 87.256 1187.58 87.048 1187.99 86.632C1188.42 86.2053 1188.63 85.6613 1188.63 85C1188.63 84.3387 1188.42 83.8 1187.99 83.384C1187.58 82.9573 1187.05 82.744 1186.41 82.744C1185.77 82.744 1185.24 82.9573 1184.83 83.384C1184.41 83.8 1184.2 84.3387 1184.2 85C1184.2 85.6613 1184.41 86.2053 1184.83 86.632ZM1195.24 81H1198.99V89H1196.97V86.504H1196.25L1194.41 89H1192.03L1194.03 86.264C1193.51 86.0507 1193.1 85.7147 1192.79 85.256C1192.49 84.7973 1192.35 84.296 1192.35 83.752C1192.35 83.016 1192.61 82.3707 1193.15 81.816C1193.67 81.272 1194.37 81 1195.24 81ZM1196.97 82.84H1195.4C1195.1 82.84 1194.85 82.9307 1194.65 83.112C1194.46 83.2933 1194.36 83.528 1194.36 83.816C1194.36 84.104 1194.46 84.3333 1194.65 84.504C1194.85 84.6747 1195.1 84.76 1195.4 84.76H1196.97V82.84ZM1204.87 81H1212.18V89H1210.11V82.936H1206.93V89H1204.87V81ZM1218.73 80.776C1219.8 80.776 1220.72 81.1867 1221.48 82.008C1222.25 82.8293 1222.63 83.8267 1222.63 85C1222.63 86.1947 1222.25 87.1973 1221.48 88.008C1220.73 88.8187 1219.81 89.224 1218.73 89.224C1217.61 89.224 1216.74 88.8347 1216.13 88.056V92.2H1214.07V81H1216.13V81.944C1216.74 81.1653 1217.61 80.776 1218.73 80.776ZM1216.76 86.632C1217.17 87.048 1217.7 87.256 1218.34 87.256C1218.98 87.256 1219.51 87.048 1219.93 86.632C1220.35 86.2053 1220.57 85.6613 1220.57 85C1220.57 84.3387 1220.35 83.8 1219.93 83.384C1219.51 82.9573 1218.98 82.744 1218.34 82.744C1217.7 82.744 1217.17 82.9573 1216.76 83.384C1216.34 83.8 1216.13 84.3387 1216.13 85C1216.13 85.6613 1216.34 86.2053 1216.76 86.632ZM1230.9 88.008C1230.09 88.8187 1229.09 89.224 1227.89 89.224C1226.7 89.224 1225.7 88.8187 1224.88 88.008C1224.07 87.1973 1223.67 86.1947 1223.67 85C1223.67 83.816 1224.07 82.8187 1224.88 82.008C1225.71 81.1867 1226.71 80.776 1227.89 80.776C1229.08 80.776 1230.08 81.1867 1230.9 82.008C1231.72 82.8293 1232.13 83.8267 1232.13 85C1232.13 86.184 1231.72 87.1867 1230.9 88.008ZM1226.34 86.584C1226.76 87 1227.27 87.208 1227.89 87.208C1228.51 87.208 1229.03 87 1229.44 86.584C1229.86 86.168 1230.07 85.64 1230.07 85C1230.07 84.36 1229.86 83.832 1229.44 83.416C1229.03 83 1228.51 82.792 1227.89 82.792C1227.27 82.792 1226.76 83 1226.34 83.416C1225.94 83.8427 1225.73 84.3707 1225.73 85C1225.73 85.6293 1225.94 86.1573 1226.34 86.584ZM1240.47 81V87.064H1241.53V91.144H1239.51V89H1234.55V91.144H1232.54V87.064H1233.51C1233.97 86.3813 1234.2 85.4373 1234.2 84.232V81H1240.47ZM1235.72 87.064H1238.46V82.856H1236.22V84.232C1236.22 85.384 1236.05 86.328 1235.72 87.064ZM1245.96 86.376L1247.74 81H1249.95L1247.03 89C1246.22 91.2507 1244.82 92.3173 1242.81 92.2V90.28C1243.35 90.2907 1243.78 90.1893 1244.09 89.976C1244.41 89.7627 1244.67 89.4053 1244.86 88.904L1241.63 81H1243.82L1245.96 86.376ZM1254.99 84.952L1258.3 89H1255.9L1252.99 85.368V89H1250.93V81H1252.99V84.52L1255.74 81H1258.21L1254.99 84.952ZM1266.37 81V87.064H1267.72V91.144H1265.7V89H1259.33V81H1261.4V87.064H1264.31V81H1266.37ZM1271.04 85.544L1274.8 81H1276.33V89H1274.32V84.456L1270.56 89H1269.02V81H1271.04V85.544ZM1280.9 81H1284.64V89H1282.63V86.504H1281.91L1280.07 89H1277.68L1279.68 86.264C1279.17 86.0507 1278.76 85.7147 1278.45 85.256C1278.15 84.7973 1278 84.296 1278 83.752C1278 83.016 1278.27 82.3707 1278.8 81.816C1279.32 81.272 1280.02 81 1280.9 81ZM1282.63 82.84H1281.06C1280.76 82.84 1280.51 82.9307 1280.31 83.112C1280.11 83.2933 1280.02 83.528 1280.02 83.816C1280.02 84.104 1280.11 84.3333 1280.31 84.504C1280.51 84.6747 1280.76 84.76 1281.06 84.76H1282.63V82.84Z" fill="#4E72CA"/>
<path d="M1115.83 113H1109.5V111.936L1112.96 108.408C1113.89 107.484 1114.35 106.691 1114.35 106.028C1114.35 105.487 1114.18 105.062 1113.84 104.754C1113.52 104.437 1113.11 104.278 1112.61 104.278C1111.69 104.278 1111.02 104.717 1110.6 105.594L1109.5 104.95C1109.8 104.325 1110.22 103.849 1110.76 103.522C1111.31 103.186 1111.92 103.018 1112.6 103.018C1113.43 103.018 1114.14 103.289 1114.74 103.83C1115.35 104.381 1115.65 105.109 1115.65 106.014C1115.65 107.003 1115.07 108.081 1113.9 109.248L1111.39 111.74H1115.83V113ZM1125.22 109.346V106H1126.43V113H1125.22V110.48C1124.65 110.723 1124.02 110.844 1123.33 110.844C1122.42 110.844 1121.73 110.629 1121.24 110.2C1120.76 109.771 1120.51 109.145 1120.51 108.324V106H1121.73V108.254C1121.73 108.767 1121.87 109.141 1122.14 109.374C1122.42 109.598 1122.84 109.71 1123.41 109.71C1124.05 109.71 1124.66 109.589 1125.22 109.346ZM1134.08 107.204V106H1135.3V113H1134.08V111.796C1133.48 112.72 1132.6 113.182 1131.44 113.182C1130.45 113.182 1129.61 112.827 1128.93 112.118C1128.24 111.399 1127.89 110.527 1127.89 109.5C1127.89 108.483 1128.24 107.615 1128.93 106.896C1129.62 106.177 1130.46 105.818 1131.44 105.818C1132.6 105.818 1133.48 106.28 1134.08 107.204ZM1131.59 112.006C1132.3 112.006 1132.89 111.768 1133.37 111.292C1133.84 110.797 1134.08 110.2 1134.08 109.5C1134.08 108.791 1133.84 108.198 1133.37 107.722C1132.89 107.237 1132.3 106.994 1131.59 106.994C1130.89 106.994 1130.3 107.237 1129.83 107.722C1129.35 108.198 1129.11 108.791 1129.11 109.5C1129.11 110.2 1129.35 110.797 1129.83 111.292C1130.3 111.768 1130.89 112.006 1131.59 112.006ZM1140.43 113.182C1139.38 113.182 1138.5 112.832 1137.8 112.132C1137.1 111.423 1136.75 110.545 1136.75 109.5C1136.75 108.455 1137.1 107.582 1137.8 106.882C1138.5 106.173 1139.38 105.818 1140.43 105.818C1141.13 105.818 1141.75 105.986 1142.3 106.322C1142.85 106.649 1143.26 107.092 1143.53 107.652L1142.51 108.24C1142.33 107.867 1142.05 107.568 1141.68 107.344C1141.32 107.12 1140.9 107.008 1140.43 107.008C1139.73 107.008 1139.15 107.246 1138.67 107.722C1138.2 108.207 1137.97 108.8 1137.97 109.5C1137.97 110.191 1138.2 110.779 1138.67 111.264C1139.15 111.74 1139.73 111.978 1140.43 111.978C1140.9 111.978 1141.32 111.871 1141.69 111.656C1142.07 111.432 1142.35 111.133 1142.55 110.76L1143.58 111.362C1143.28 111.922 1142.84 112.365 1142.28 112.692C1141.72 113.019 1141.11 113.182 1140.43 113.182ZM1150.49 107.204V106H1151.71V113H1150.49V111.796C1149.89 112.72 1149.01 113.182 1147.84 113.182C1146.85 113.182 1146.02 112.827 1145.34 112.118C1144.64 111.399 1144.3 110.527 1144.3 109.5C1144.3 108.483 1144.64 107.615 1145.34 106.896C1146.03 106.177 1146.86 105.818 1147.84 105.818C1149.01 105.818 1149.89 106.28 1150.49 107.204ZM1148 112.006C1148.7 112.006 1149.3 111.768 1149.77 111.292C1150.25 110.797 1150.49 110.2 1150.49 109.5C1150.49 108.791 1150.25 108.198 1149.77 107.722C1149.3 107.237 1148.7 106.994 1148 106.994C1147.3 106.994 1146.71 107.237 1146.23 107.722C1145.76 108.198 1145.52 108.791 1145.52 109.5C1145.52 110.2 1145.76 110.797 1146.23 111.292C1146.71 111.768 1147.3 112.006 1148 112.006ZM1161.89 108.912V106H1163.11V113H1161.89V110.074H1158.27V113H1157.05V106H1158.27V108.912H1161.89ZM1170.76 107.204V106H1171.98V113H1170.76V111.796C1170.17 112.72 1169.28 113.182 1168.12 113.182C1167.13 113.182 1166.29 112.827 1165.61 112.118C1164.92 111.399 1164.57 110.527 1164.57 109.5C1164.57 108.483 1164.92 107.615 1165.61 106.896C1166.3 106.177 1167.14 105.818 1168.12 105.818C1169.28 105.818 1170.17 106.28 1170.76 107.204ZM1168.27 112.006C1168.98 112.006 1169.57 111.768 1170.05 111.292C1170.52 110.797 1170.76 110.2 1170.76 109.5C1170.76 108.791 1170.52 108.198 1170.05 107.722C1169.57 107.237 1168.98 106.994 1168.27 106.994C1167.57 106.994 1166.98 107.237 1166.51 107.722C1166.03 108.198 1165.79 108.791 1165.79 109.5C1165.79 110.2 1166.03 110.797 1166.51 111.292C1166.98 111.768 1167.57 112.006 1168.27 112.006ZM1177.61 109.416C1178.38 109.743 1178.77 110.298 1178.77 111.082C1178.77 111.689 1178.53 112.193 1178.05 112.594C1177.58 112.986 1176.92 113.182 1176.08 113.182C1174.68 113.182 1173.74 112.622 1173.27 111.502L1174.29 110.9C1174.55 111.665 1175.15 112.048 1176.09 112.048C1176.55 112.048 1176.91 111.95 1177.17 111.754C1177.43 111.558 1177.56 111.297 1177.56 110.97C1177.56 110.69 1177.46 110.461 1177.24 110.284C1177.04 110.107 1176.76 110.018 1176.4 110.018H1175.38V108.912H1176.14C1176.49 108.912 1176.77 108.828 1176.96 108.66C1177.16 108.483 1177.26 108.245 1177.26 107.946C1177.26 107.638 1177.14 107.395 1176.91 107.218C1176.67 107.031 1176.36 106.938 1175.97 106.938C1175.18 106.938 1174.65 107.269 1174.37 107.932L1173.38 107.358C1173.87 106.331 1174.74 105.818 1175.97 105.818C1176.72 105.818 1177.31 106.014 1177.76 106.406C1178.22 106.789 1178.45 107.269 1178.45 107.848C1178.45 108.557 1178.17 109.08 1177.61 109.416ZM1185.88 107.204V106H1187.1V113H1185.88V111.796C1185.29 112.72 1184.4 113.182 1183.24 113.182C1182.25 113.182 1181.41 112.827 1180.73 112.118C1180.04 111.399 1179.7 110.527 1179.7 109.5C1179.7 108.483 1180.04 107.615 1180.73 106.896C1181.42 106.177 1182.26 105.818 1183.24 105.818C1184.4 105.818 1185.29 106.28 1185.88 107.204ZM1183.39 112.006C1184.1 112.006 1184.69 111.768 1185.17 111.292C1185.65 110.797 1185.88 110.2 1185.88 109.5C1185.88 108.791 1185.65 108.198 1185.17 107.722C1184.69 107.237 1184.1 106.994 1183.39 106.994C1182.69 106.994 1182.1 107.237 1181.63 107.722C1181.15 108.198 1180.91 108.791 1180.91 109.5C1180.91 110.2 1181.15 110.797 1181.63 111.292C1182.1 111.768 1182.69 112.006 1183.39 112.006ZM1194.97 106V111.838H1195.93V114.876H1194.73V113H1189.48V114.876H1188.28V111.838H1189.13C1189.58 111.222 1189.8 110.359 1189.8 109.248V106H1194.97ZM1190.52 111.838H1193.76V107.134H1191.01V109.248C1191.01 110.275 1190.84 111.138 1190.52 111.838Z" fill="#AAAAB6"/>
<g opacity="0.538951">
<path fill-rule="evenodd" clip-rule="evenodd" d="M1101.73 114.869L1098 110.99C1098.95 110.035 1099.54 108.72 1099.54 107.271C1099.54 104.364 1097.18 102 1094.27 102C1091.36 102 1089 104.364 1089 107.271C1089 110.176 1091.36 112.542 1094.27 112.542C1095.55 112.542 1096.72 112.084 1097.63 111.328L1101.37 115.217C1101.42 115.268 1101.48 115.293 1101.55 115.293C1101.61 115.293 1101.67 115.269 1101.72 115.223C1101.82 115.127 1101.83 114.968 1101.73 114.869ZM1094.27 112.039C1091.64 112.039 1089.5 109.899 1089.5 107.271C1089.5 104.641 1091.64 102.503 1094.27 102.503C1096.9 102.503 1099.04 104.641 1099.04 107.271C1099.04 109.899 1096.9 112.039 1094.27 112.039Z" fill="#787993"/>
<path d="M1101.73 114.869L1101.37 115.215L1101.37 115.216L1101.73 114.869ZM1098 110.99L1097.65 110.637L1097.3 110.984L1097.64 111.336L1098 110.99ZM1097.63 111.328L1097.99 110.982L1097.67 110.647L1097.31 110.943L1097.63 111.328ZM1101.37 115.217L1101.73 114.872L1101.73 114.87L1101.37 115.217ZM1101.72 115.223L1102.07 115.587L1102.07 115.583L1101.72 115.223ZM1102.09 114.522L1098.36 110.643L1097.64 111.336L1101.37 115.215L1102.09 114.522ZM1098.36 111.343C1099.4 110.299 1100.04 108.859 1100.04 107.271H1099.04C1099.04 108.582 1098.51 109.772 1097.65 110.637L1098.36 111.343ZM1100.04 107.271C1100.04 104.088 1097.45 101.5 1094.27 101.5V102.5C1096.9 102.5 1099.04 104.64 1099.04 107.271H1100.04ZM1094.27 101.5C1091.09 101.5 1088.5 104.088 1088.5 107.271H1089.5C1089.5 104.64 1091.64 102.5 1094.27 102.5V101.5ZM1088.5 107.271C1088.5 110.452 1091.09 113.042 1094.27 113.042V112.042C1091.64 112.042 1089.5 109.9 1089.5 107.271H1088.5ZM1094.27 113.042C1095.67 113.042 1096.95 112.54 1097.95 111.713L1097.31 110.943C1096.48 111.629 1095.42 112.042 1094.27 112.042V113.042ZM1097.27 111.675L1101.01 115.563L1101.73 114.87L1097.99 110.982L1097.27 111.675ZM1101.01 115.561C1101.16 115.722 1101.36 115.793 1101.55 115.793V114.793C1101.6 114.793 1101.67 114.814 1101.73 114.872L1101.01 115.561ZM1101.55 115.793C1101.74 115.793 1101.92 115.723 1102.07 115.587L1101.38 114.859C1101.43 114.816 1101.49 114.793 1101.55 114.793V115.793ZM1102.07 115.583C1102.37 115.298 1102.38 114.822 1102.09 114.521L1101.37 115.216C1101.27 115.114 1101.28 114.957 1101.38 114.863L1102.07 115.583ZM1094.27 111.539C1091.92 111.539 1090 109.623 1090 107.271H1089C1089 110.175 1091.36 112.539 1094.27 112.539V111.539ZM1090 107.271C1090 104.917 1091.92 103.003 1094.27 103.003V102.003C1091.36 102.003 1089 104.365 1089 107.271H1090ZM1094.27 103.003C1096.62 103.003 1098.54 104.917 1098.54 107.271H1099.54C1099.54 104.365 1097.18 102.003 1094.27 102.003V103.003ZM1098.54 107.271C1098.54 109.623 1096.62 111.539 1094.27 111.539V112.539C1097.18 112.539 1099.54 110.176 1099.54 107.271H1098.54Z" fill="#787993"/>
</g>
</g>
</g>
</g>
<defs>
<filter id="filter0_d_1804_4608" x="13" y="55" width="261" height="89" filterUnits="userSpaceOnUse" color-interpolation-filters="sRGB">
<feFlood flood-opacity="0" result="BackgroundImageFix"/>
<feColorMatrix in="SourceAlpha" type="matrix" values="0 0 0 0 0 0 0 0 0 0 0 0 0 0 0 0 0 0 127 0" result="hardAlpha"/>
<feOffset dx="2" dy="3"/>
<feGaussianBlur stdDeviation="4"/>
<feColorMatrix type="matrix" values="0 0 0 0 0 0 0 0 0 0 0 0 0 0 0 0 0 0 0.0675102 0"/>
<feBlend mode="normal" in2="BackgroundImageFix" result="effect1_dropShadow_1804_4608"/>
<feBlend mode="normal" in="SourceGraphic" in2="effect1_dropShadow_1804_4608" result="shape"/>
</filter>
<filter id="filter1_d_1804_4608" x="275" y="55" width="261" height="89" filterUnits="userSpaceOnUse" color-interpolation-filters="sRGB">
<feFlood flood-opacity="0" result="BackgroundImageFix"/>
<feColorMatrix in="SourceAlpha" type="matrix" values="0 0 0 0 0 0 0 0 0 0 0 0 0 0 0 0 0 0 127 0" result="hardAlpha"/>
<feOffset dx="2" dy="3"/>
<feGaussianBlur stdDeviation="4"/>
<feColorMatrix type="matrix" values="0 0 0 0 0 0 0 0 0 0 0 0 0 0 0 0 0 0 0.0675102 0"/>
<feBlend mode="normal" in2="BackgroundImageFix" result="effect1_dropShadow_1804_4608"/>
<feBlend mode="normal" in="SourceGraphic" in2="effect1_dropShadow_1804_4608" result="shape"/>
</filter>
<filter id="filter2_d_1804_4608" x="537" y="55" width="261" height="89" filterUnits="userSpaceOnUse" color-interpolation-filters="sRGB">
<feFlood flood-opacity="0" result="BackgroundImageFix"/>
<feColorMatrix in="SourceAlpha" type="matrix" values="0 0 0 0 0 0 0 0 0 0 0 0 0 0 0 0 0 0 127 0" result="hardAlpha"/>
<feOffset dx="2" dy="3"/>
<feGaussianBlur stdDeviation="4"/>
<feColorMatrix type="matrix" values="0 0 0 0 0 0 0 0 0 0 0 0 0 0 0 0 0 0 0.0675102 0"/>
<feBlend mode="normal" in2="BackgroundImageFix" result="effect1_dropShadow_1804_4608"/>
<feBlend mode="normal" in="SourceGraphic" in2="effect1_dropShadow_1804_4608" result="shape"/>
</filter>
<filter id="filter3_d_1804_4608" x="799" y="55" width="261" height="89" filterUnits="userSpaceOnUse" color-interpolation-filters="sRGB">
<feFlood flood-opacity="0" result="BackgroundImageFix"/>
<feColorMatrix in="SourceAlpha" type="matrix" values="0 0 0 0 0 0 0 0 0 0 0 0 0 0 0 0 0 0 127 0" result="hardAlpha"/>
<feOffset dx="2" dy="3"/>
<feGaussianBlur stdDeviation="4"/>
<feColorMatrix type="matrix" values="0 0 0 0 0 0 0 0 0 0 0 0 0 0 0 0 0 0 0.0675102 0"/>
<feBlend mode="normal" in2="BackgroundImageFix" result="effect1_dropShadow_1804_4608"/>
<feBlend mode="normal" in="SourceGraphic" in2="effect1_dropShadow_1804_4608" result="shape"/>
</filter>
<filter id="filter4_d_1804_4608" x="1061" y="55" width="261" height="89" filterUnits="userSpaceOnUse" color-interpolation-filters="sRGB">
<feFlood flood-opacity="0" result="BackgroundImageFix"/>
<feColorMatrix in="SourceAlpha" type="matrix" values="0 0 0 0 0 0 0 0 0 0 0 0 0 0 0 0 0 0 127 0" result="hardAlpha"/>
<feOffset dx="2" dy="3"/>
<feGaussianBlur stdDeviation="4"/>
<feColorMatrix type="matrix" values="0 0 0 0 0 0 0 0 0 0 0 0 0 0 0 0 0 0 0.0675102 0"/>
<feBlend mode="normal" in2="BackgroundImageFix" result="effect1_dropShadow_1804_4608"/>
<feBlend mode="normal" in="SourceGraphic" in2="effect1_dropShadow_1804_4608" result="shape"/>
</filter>
<clipPath id="clip0_1804_4608">
<rect width="1143" height="147" fill="white"/>
</clipPath>
<clipPath id="clip1_1804_4608">
<rect width="245" height="73" fill="white" transform="translate(19 60)"/>
</clipPath>
<clipPath id="clip2_1804_4608">
<rect width="245" height="73" fill="white" transform="translate(281 60)"/>
</clipPath>
<clipPath id="clip3_1804_4608">
<rect width="245" height="73" fill="white" transform="translate(543 60)"/>
</clipPath>
<clipPath id="clip4_1804_4608">
<rect width="245" height="73" fill="white" transform="translate(805 60)"/>
</clipPath>
<clipPath id="clip5_1804_4608">
<rect width="245" height="73" fill="white" transform="translate(1067 60)"/>
</clipPath>
</defs>
</svg>
