<svg width="151" height="37" viewBox="0 0 151 37" fill="none" xmlns="http://www.w3.org/2000/svg">
<g clip-path="url(#clip0_1804_14925)">
<path d="M1.5 18.5C1.5 8.55887 9.55888 0.5 19.5 0.5H146C148.485 0.5 150.5 2.51472 150.5 5V32C150.5 34.4853 148.485 36.5 146 36.5H19.5C9.55888 36.5 1.5 28.4411 1.5 18.5Z" fill="white" stroke="#41D481"/>
<path d="M49.2 10.8H57.328V22H55.84V12.208H50.688V22H49.2V10.8ZM66.3393 20.992C65.5286 21.8027 64.5313 22.208 63.3473 22.208C62.1633 22.208 61.1659 21.8027 60.3553 20.992C59.5446 20.1813 59.1393 19.184 59.1393 18C59.1393 16.816 59.5446 15.8187 60.3553 15.008C61.1659 14.1973 62.1633 13.792 63.3473 13.792C64.5313 13.792 65.5286 14.1973 66.3393 15.008C67.1606 15.8293 67.5712 16.8267 67.5712 18C67.5712 19.1733 67.1606 20.1707 66.3393 20.992ZM63.3473 20.848C64.1473 20.848 64.8193 20.576 65.3633 20.032C65.9073 19.488 66.1793 18.8107 66.1793 18C66.1793 17.1893 65.9073 16.512 65.3633 15.968C64.8193 15.424 64.1473 15.152 63.3473 15.152C62.5579 15.152 61.8913 15.424 61.3473 15.968C60.8033 16.512 60.5312 17.1893 60.5312 18C60.5312 18.8107 60.8033 19.488 61.3473 20.032C61.8913 20.576 62.5579 20.848 63.3473 20.848ZM69.2122 14H76.1403V22H74.7483V15.328H70.6043V22H69.2122V14ZM85.0111 20.992C84.2005 21.8027 83.2031 22.208 82.0191 22.208C80.8351 22.208 79.8378 21.8027 79.0271 20.992C78.2165 20.1813 77.8111 19.184 77.8111 18C77.8111 16.816 78.2165 15.8187 79.0271 15.008C79.8378 14.1973 80.8351 13.792 82.0191 13.792C83.2031 13.792 84.2005 14.1973 85.0111 15.008C85.8325 15.8293 86.2431 16.8267 86.2431 18C86.2431 19.1733 85.8325 20.1707 85.0111 20.992ZM82.0191 20.848C82.8191 20.848 83.4911 20.576 84.0351 20.032C84.5791 19.488 84.8511 18.8107 84.8511 18C84.8511 17.1893 84.5791 16.512 84.0351 15.968C83.4911 15.424 82.8191 15.152 82.0191 15.152C81.2298 15.152 80.5631 15.424 80.0191 15.968C79.4751 16.512 79.2031 17.1893 79.2031 18C79.2031 18.8107 79.4751 19.488 80.0191 20.032C80.5631 20.576 81.2298 20.848 82.0191 20.848ZM88.3389 14H94.2749V22H92.8829V15.344H89.7309V18.608C89.7309 19.888 89.4749 20.8 88.9629 21.344C88.4509 21.8773 87.6989 22.096 86.7069 22V20.688C87.2615 20.7627 87.6722 20.64 87.9389 20.32C88.2055 19.9893 88.3389 19.408 88.3389 18.576V14ZM101.92 17.328V14H103.312V22H101.92V18.656H97.7761V22H96.3841V14H97.7761V17.328H101.92ZM106.807 19.616L111.239 14H112.359V22H110.983V16.384L106.551 22H105.431V14H106.807V19.616ZM113.582 14H120.43V15.344H117.71V22H116.318V15.344H113.582V14ZM123.042 16.88H125.026C125.826 16.88 126.487 17.12 127.01 17.6C127.543 18.0693 127.81 18.6827 127.81 19.44C127.81 20.1973 127.543 20.816 127.01 21.296C126.476 21.7653 125.815 22 125.026 22H121.65V14H123.042V16.88ZM123.042 20.704H125.026C125.431 20.704 125.767 20.5867 126.034 20.352C126.3 20.1173 126.434 19.8133 126.434 19.44C126.434 19.0667 126.295 18.7627 126.018 18.528C125.751 18.2827 125.42 18.16 125.026 18.16H123.042V20.704Z" fill="black"/>
<circle cx="17" cy="18" r="17" fill="#41D481"/>
</g>
<mask id="mask0_1804_14925" style="mask-type:alpha" maskUnits="userSpaceOnUse" x="10" y="11" width="15" height="15">
<path fill-rule="evenodd" clip-rule="evenodd" d="M10.002 11H25.0002V26H10.002V11Z" fill="white"/>
</mask>
<g mask="url(#mask0_1804_14925)">
<path fill-rule="evenodd" clip-rule="evenodd" d="M24.4141 17.9141H18.0859V11.5859C18.0859 11.2623 17.8236 11 17.5 11C17.1764 11 16.9141 11.2623 16.9141 11.5859V17.9141H10.5859C10.2623 17.9141 10 18.1764 10 18.5C10 18.8236 10.2623 19.0859 10.5859 19.0859H16.9141V25.4141C16.9141 25.7377 17.1764 26 17.5 26C17.8236 26 18.0859 25.7377 18.0859 25.4141V19.0859H24.4141C24.7377 19.0859 25 18.8236 25 18.5C25 18.1764 24.7377 17.9141 24.4141 17.9141Z" fill="#0A090B"/>
</g>
<defs>
<clipPath id="clip0_1804_14925">
<rect width="151" height="37" fill="white"/>
</clipPath>
</defs>
</svg>
