<svg width="67" height="67" viewBox="0 0 67 67" fill="none" xmlns="http://www.w3.org/2000/svg">
<g opacity="0.9">
<g clip-path="url(#clip0_1804_15152)">
<circle cx="33.5" cy="33.5" r="33.5" fill="#414D6A"/>
<mask id="mask0_1804_15152" style="mask-type:alpha" maskUnits="userSpaceOnUse" x="0" y="0" width="67" height="67">
<circle cx="33.5" cy="33.5" r="33.5" fill="white"/>
</mask>
<g mask="url(#mask0_1804_15152)">
</g>
</g>
<path fill-rule="evenodd" clip-rule="evenodd" d="M13 42.1014V21.5887C13 21.4441 13.0624 21.3099 13.1872 21.1859C13.312 21.062 13.4473 21 13.5929 21H17.0565C17.2229 21 17.3633 21.062 17.4777 21.1859C17.5921 21.3099 17.6493 21.4441 17.6493 21.5887V35.0056L21.425 30.6676C21.6746 30.4197 21.9346 30.2958 22.2051 30.2958H25.6999C25.9703 30.2958 26.1575 30.3991 26.2615 30.6056C26.3655 30.8122 26.3343 31.0291 26.1679 31.2563L22.049 35.9972L27.0416 41.7606C27.208 41.9671 27.2392 42.1737 27.1352 42.3803C27.0312 42.5869 26.844 42.6901 26.5736 42.6901H22.3611C22.1738 42.6901 22.0178 42.6075 21.893 42.4423L17.6493 37.0507V42.1014C17.6493 42.246 17.5921 42.3803 17.4777 42.5042C17.3633 42.6282 17.2229 42.6901 17.0565 42.6901H13.5929C13.4473 42.6901 13.312 42.6282 13.1872 42.5042C13.0624 42.3803 13 42.246 13 42.1014ZM32.9703 25.8338C32.4918 26.3089 31.9094 26.5465 31.2229 26.5465C30.5364 26.5465 29.9539 26.3089 29.4755 25.8338C28.997 25.3587 28.7578 24.7803 28.7578 24.0986C28.7578 23.4169 28.997 22.8333 29.4755 22.3479C29.9539 21.8624 30.5364 21.6197 31.2229 21.6197C31.9094 21.6197 32.497 21.8624 32.9859 22.3479C33.4747 22.8333 33.7192 23.4169 33.7192 24.0986C33.7192 24.7803 33.4695 25.3587 32.9703 25.8338ZM28.9453 42.1014V30.8845C28.9453 30.7192 29.0025 30.5798 29.1169 30.4662C29.2313 30.3526 29.3718 30.2958 29.5382 30.2958H32.9706C33.137 30.2958 33.2774 30.3526 33.3918 30.4662C33.5062 30.5798 33.5634 30.7192 33.5634 30.8845V42.1014C33.5634 42.246 33.501 42.3803 33.3762 42.5042C33.2514 42.6282 33.1162 42.6901 32.9706 42.6901H29.5382C29.3926 42.6901 29.2573 42.6282 29.1325 42.5042C29.0077 42.3803 28.9453 42.246 28.9453 42.1014ZM41.2392 42.6901L35.373 31.1324C35.2689 30.9258 35.2741 30.7347 35.3886 30.5592C35.503 30.3836 35.6746 30.2958 35.9034 30.2958H39.3982C39.6686 30.2958 39.8559 30.4094 39.9599 30.6366L41.8009 34.8507H41.8945L43.8603 30.6366C43.9435 30.4714 44.0371 30.3732 44.1412 30.3423C44.2452 30.3113 44.4324 30.2958 44.7028 30.2958H47.8544C48.0832 30.2958 48.2548 30.3836 48.3692 30.5592C48.4837 30.7347 48.4889 30.9258 48.3848 31.1324L42.4562 42.6901C42.3314 42.8967 42.1545 43 41.9257 43H41.7697C41.5409 43 41.364 42.8967 41.2392 42.6901ZM54.2515 25.8338C53.7731 26.3089 53.1906 26.5465 52.5041 26.5465C51.8177 26.5465 51.2352 26.3089 50.7567 25.8338C50.2783 25.3587 50.0391 24.7803 50.0391 24.0986C50.0391 23.4169 50.2783 22.8333 50.7567 22.3479C51.2352 21.8624 51.8177 21.6197 52.5041 21.6197C53.1906 21.6197 53.7783 21.8624 54.2671 22.3479C54.756 22.8333 55.0004 23.4169 55.0004 24.0986C55.0004 24.7803 54.7508 25.3587 54.2515 25.8338ZM50.2266 42.1014V30.8845C50.2266 30.7192 50.2838 30.5798 50.3982 30.4662C50.5126 30.3526 50.653 30.2958 50.8194 30.2958H54.2518C54.4182 30.2958 54.5587 30.3526 54.6731 30.4662C54.7875 30.5798 54.8447 30.7192 54.8447 30.8845V42.1014C54.8447 42.246 54.7823 42.3803 54.6575 42.5042C54.5327 42.6282 54.3974 42.6901 54.2518 42.6901H50.8194C50.6738 42.6901 50.5386 42.6282 50.4138 42.5042C50.289 42.3803 50.2266 42.246 50.2266 42.1014Z" fill="white"/>
</g>
<defs>
<clipPath id="clip0_1804_15152">
<rect width="67" height="67" fill="white"/>
</clipPath>
</defs>
</svg>
