<svg width="240" height="44" viewBox="0 0 240 44" fill="none" xmlns="http://www.w3.org/2000/svg">
<rect width="240" height="44" rx="22" fill="#19D476"/>
<rect width="44" height="44" rx="22" fill="#11B463"/>
<path d="M65.045 15.5V24.02H66.17V28.01H64.1V26H58.295V28.01H56.225V24.02H57.245C57.825 23.22 58.115 22.035 58.115 20.465V15.5H65.045ZM59.465 24.02H62.975V17.435H60.185V20.495C60.185 22.025 59.945 23.2 59.465 24.02ZM73.5582 25.07C72.7982 25.83 71.8582 26.21 70.7382 26.21C69.6182 26.21 68.6782 25.83 67.9182 25.07C67.1582 24.31 66.7782 23.37 66.7782 22.25C66.7782 21.14 67.1582 20.205 67.9182 19.445C68.6882 18.675 69.6282 18.29 70.7382 18.29C71.8482 18.29 72.7882 18.675 73.5582 19.445C74.3282 20.215 74.7132 21.15 74.7132 22.25C74.7132 23.36 74.3282 24.3 73.5582 25.07ZM69.2832 23.735C69.6732 24.125 70.1582 24.32 70.7382 24.32C71.3182 24.32 71.8032 24.125 72.1932 23.735C72.5832 23.345 72.7782 22.85 72.7782 22.25C72.7782 21.65 72.5832 21.155 72.1932 20.765C71.8032 20.375 71.3182 20.18 70.7382 20.18C70.1582 20.18 69.6732 20.375 69.2832 20.765C68.9032 21.165 68.7132 21.66 68.7132 22.25C68.7132 22.84 68.9032 23.335 69.2832 23.735ZM79.6295 26.21C78.4495 26.21 77.4945 25.83 76.7645 25.07C76.0445 24.31 75.6845 23.345 75.6845 22.175C75.6845 20.905 75.8745 19.92 76.2545 19.22C76.6245 18.52 77.3895 17.885 78.5495 17.315C78.5795 17.295 78.6345 17.265 78.7145 17.225C78.8045 17.185 78.8945 17.145 78.9845 17.105C79.0845 17.065 79.1795 17.025 79.2695 16.985L79.8995 16.67C80.0495 16.6 80.2095 16.51 80.3795 16.4C80.6295 16.25 80.8145 16.095 80.9345 15.935C81.0545 15.775 81.1845 15.535 81.3245 15.215L82.9145 16.13C82.7845 16.74 82.4895 17.215 82.0295 17.555C81.5595 17.895 80.8795 18.235 79.9895 18.575C79.3695 18.815 78.9095 19.06 78.6095 19.31C78.3095 19.56 78.0945 19.865 77.9645 20.225C78.5145 19.655 79.2645 19.37 80.2145 19.37C81.0545 19.37 81.7945 19.675 82.4345 20.285C83.0845 20.885 83.4095 21.685 83.4095 22.685C83.4095 23.715 83.0595 24.56 82.3595 25.22C81.6695 25.88 80.7595 26.21 79.6295 26.21ZM79.5995 20.915C79.0995 20.915 78.6595 21.07 78.2795 21.38C77.8995 21.7 77.7095 22.115 77.7095 22.625C77.7095 23.155 77.8895 23.59 78.2495 23.93C78.6195 24.27 79.0745 24.44 79.6145 24.44C80.1645 24.44 80.6095 24.275 80.9495 23.945C81.2995 23.615 81.4745 23.195 81.4745 22.685C81.4745 22.175 81.2995 21.755 80.9495 21.425C80.5995 21.085 80.1495 20.915 79.5995 20.915ZM90.2852 19.385V18.5H92.2202V26H90.2852V25.115C89.7052 25.845 88.8902 26.21 87.8402 26.21C86.8402 26.21 85.9802 25.83 85.2602 25.07C84.5502 24.3 84.1952 23.36 84.1952 22.25C84.1952 21.15 84.5502 20.215 85.2602 19.445C85.9802 18.675 86.8402 18.29 87.8402 18.29C88.8902 18.29 89.7052 18.655 90.2852 19.385ZM86.7152 23.78C87.1052 24.17 87.6002 24.365 88.2002 24.365C88.8002 24.365 89.2952 24.17 89.6852 23.78C90.0852 23.38 90.2852 22.87 90.2852 22.25C90.2852 21.63 90.0852 21.125 89.6852 20.735C89.2952 20.335 88.8002 20.135 88.2002 20.135C87.6002 20.135 87.1052 20.335 86.7152 20.735C86.3252 21.125 86.1302 21.63 86.1302 22.25C86.1302 22.87 86.3252 23.38 86.7152 23.78ZM99.3748 22.16C100.075 22.5 100.425 23.07 100.425 23.87C100.425 24.51 100.205 25.025 99.7648 25.415C99.3248 25.805 98.7098 26 97.9198 26H93.9748V18.5H97.6198C98.3998 18.5 99.0098 18.695 99.4498 19.085C99.8898 19.465 100.11 19.975 100.11 20.615C100.11 21.275 99.8648 21.79 99.3748 22.16ZM97.4398 20.09H95.7898V21.44H97.4398C97.9898 21.44 98.2648 21.215 98.2648 20.765C98.2648 20.315 97.9898 20.09 97.4398 20.09ZM95.7898 24.365H97.6948C98.2548 24.365 98.5348 24.125 98.5348 23.645C98.5348 23.435 98.4598 23.27 98.3098 23.15C98.1598 23.03 97.9548 22.97 97.6948 22.97H95.7898V24.365ZM103.526 22.76L107.051 18.5H108.491V26H106.601V21.74L103.076 26H101.636V18.5H103.526V22.76ZM109.529 18.5H116.174V20.36H113.834V26H111.899V20.36H109.529V18.5ZM119.142 20.9H120.597C121.447 20.9 122.132 21.135 122.652 21.605C123.172 22.065 123.432 22.68 123.432 23.45C123.432 24.22 123.172 24.84 122.652 25.31C122.132 25.77 121.447 26 120.597 26H117.207V18.5H119.142V20.9ZM119.142 24.29H120.612C120.882 24.29 121.102 24.215 121.272 24.065C121.452 23.905 121.542 23.7 121.542 23.45C121.542 23.2 121.452 22.995 121.272 22.835C121.102 22.675 120.882 22.595 120.612 22.595H119.142V24.29ZM134.789 25.07C134.029 25.83 133.089 26.21 131.969 26.21C130.849 26.21 129.909 25.83 129.149 25.07C128.389 24.31 128.009 23.37 128.009 22.25C128.009 21.14 128.389 20.205 129.149 19.445C129.919 18.675 130.859 18.29 131.969 18.29C133.079 18.29 134.019 18.675 134.789 19.445C135.559 20.215 135.944 21.15 135.944 22.25C135.944 23.36 135.559 24.3 134.789 25.07ZM130.514 23.735C130.904 24.125 131.389 24.32 131.969 24.32C132.549 24.32 133.034 24.125 133.424 23.735C133.814 23.345 134.009 22.85 134.009 22.25C134.009 21.65 133.814 21.155 133.424 20.765C133.034 20.375 132.549 20.18 131.969 20.18C131.389 20.18 130.904 20.375 130.514 20.765C130.134 21.165 129.944 21.66 129.944 22.25C129.944 22.84 130.134 23.335 130.514 23.735ZM140.86 26.21C139.68 26.21 138.725 25.83 137.995 25.07C137.275 24.31 136.915 23.345 136.915 22.175C136.915 20.905 137.105 19.92 137.485 19.22C137.855 18.52 138.62 17.885 139.78 17.315C139.81 17.295 139.865 17.265 139.945 17.225C140.035 17.185 140.125 17.145 140.215 17.105C140.315 17.065 140.41 17.025 140.5 16.985L141.13 16.67C141.28 16.6 141.44 16.51 141.61 16.4C141.86 16.25 142.045 16.095 142.165 15.935C142.285 15.775 142.415 15.535 142.555 15.215L144.145 16.13C144.015 16.74 143.72 17.215 143.26 17.555C142.79 17.895 142.11 18.235 141.22 18.575C140.6 18.815 140.14 19.06 139.84 19.31C139.54 19.56 139.325 19.865 139.195 20.225C139.745 19.655 140.495 19.37 141.445 19.37C142.285 19.37 143.025 19.675 143.665 20.285C144.315 20.885 144.64 21.685 144.64 22.685C144.64 23.715 144.29 24.56 143.59 25.22C142.9 25.88 141.99 26.21 140.86 26.21ZM140.83 20.915C140.33 20.915 139.89 21.07 139.51 21.38C139.13 21.7 138.94 22.115 138.94 22.625C138.94 23.155 139.12 23.59 139.48 23.93C139.85 24.27 140.305 24.44 140.845 24.44C141.395 24.44 141.84 24.275 142.18 23.945C142.53 23.615 142.705 23.195 142.705 22.685C142.705 22.175 142.53 21.755 142.18 21.425C141.83 21.085 141.38 20.915 140.83 20.915ZM147.751 20.9H149.206C150.056 20.9 150.741 21.135 151.261 21.605C151.781 22.065 152.041 22.68 152.041 23.45C152.041 24.22 151.781 24.84 151.261 25.31C150.741 25.77 150.056 26 149.206 26H145.816V18.5H147.751V20.9ZM147.751 24.29H149.221C149.491 24.29 149.711 24.215 149.881 24.065C150.061 23.905 150.151 23.7 150.151 23.45C150.151 23.2 150.061 22.995 149.881 22.835C149.711 22.675 149.491 22.595 149.221 22.595H147.751V24.29ZM155.293 18.5H158.803V26H156.913V23.66H156.238L154.513 26H152.278L154.153 23.435C153.673 23.235 153.288 22.92 152.998 22.49C152.718 22.06 152.578 21.59 152.578 21.08C152.578 20.39 152.828 19.785 153.328 19.265C153.818 18.755 154.473 18.5 155.293 18.5ZM156.913 20.225H155.443C155.163 20.225 154.928 20.31 154.738 20.48C154.558 20.65 154.468 20.87 154.468 21.14C154.468 21.41 154.558 21.625 154.738 21.785C154.928 21.945 155.163 22.025 155.443 22.025H156.913V20.225ZM165.967 22.16C166.667 22.5 167.017 23.07 167.017 23.87C167.017 24.51 166.797 25.025 166.357 25.415C165.917 25.805 165.302 26 164.512 26H160.567V18.5H164.212C164.992 18.5 165.602 18.695 166.042 19.085C166.482 19.465 166.702 19.975 166.702 20.615C166.702 21.275 166.457 21.79 165.967 22.16ZM164.032 20.09H162.382V21.44H164.032C164.582 21.44 164.857 21.215 164.857 20.765C164.857 20.315 164.582 20.09 164.032 20.09ZM162.382 24.365H164.287C164.847 24.365 165.127 24.125 165.127 23.645C165.127 23.435 165.052 23.27 164.902 23.15C164.752 23.03 164.547 22.97 164.287 22.97H162.382V24.365ZM168.65 18.5H174.59V26H172.655V20.36H170.585V22.865C170.585 25.175 169.53 26.22 167.42 26V24.185C167.82 24.285 168.125 24.215 168.335 23.975C168.545 23.735 168.65 23.33 168.65 22.76V18.5ZM183.633 23.045H177.978C178.228 23.985 178.933 24.455 180.093 24.455C180.833 24.455 181.393 24.205 181.773 23.705L183.333 24.605C182.593 25.675 181.503 26.21 180.063 26.21C178.823 26.21 177.828 25.835 177.078 25.085C176.328 24.335 175.953 23.39 175.953 22.25C175.953 21.13 176.323 20.19 177.063 19.43C177.793 18.67 178.743 18.29 179.913 18.29C181.023 18.29 181.928 18.67 182.628 19.43C183.348 20.19 183.708 21.13 183.708 22.25C183.708 22.46 183.683 22.725 183.633 23.045ZM177.948 21.545H181.773C181.663 21.055 181.438 20.68 181.098 20.42C180.768 20.16 180.373 20.03 179.913 20.03C179.393 20.03 178.963 20.165 178.623 20.435C178.283 20.695 178.058 21.065 177.948 21.545ZM189.979 21.335V18.5H191.914V26H189.979V23.15H186.994V26H185.059V18.5H186.994V21.335H189.979ZM195.577 22.76L199.102 18.5H200.542V26H198.652V21.74L195.127 26H193.687V18.5H195.577V22.76ZM204.82 18.5H208.33V26H206.44V23.66H205.765L204.04 26H201.805L203.68 23.435C203.2 23.235 202.815 22.92 202.525 22.49C202.245 22.06 202.105 21.59 202.105 21.08C202.105 20.39 202.355 19.785 202.855 19.265C203.345 18.755 204 18.5 204.82 18.5ZM206.44 20.225H204.97C204.69 20.225 204.455 20.31 204.265 20.48C204.085 20.65 203.995 20.87 203.995 21.14C203.995 21.41 204.085 21.625 204.265 21.785C204.455 21.945 204.69 22.025 204.97 22.025H206.44V20.225Z" fill="white"/>
<path d="M24.128 19.772H28.86V22.628H24.128V27.36H21.272V22.628H16.54V19.772H21.272V15.04H24.128V19.772Z" fill="white"/>
<rect width="240" height="44" rx="22" fill="#19D476"/>
<rect width="44" height="44" rx="22" fill="#11B463"/>
<path d="M65.045 15.5V24.02H66.17V28.01H64.1V26H58.295V28.01H56.225V24.02H57.245C57.825 23.22 58.115 22.035 58.115 20.465V15.5H65.045ZM59.465 24.02H62.975V17.435H60.185V20.495C60.185 22.025 59.945 23.2 59.465 24.02ZM73.5582 25.07C72.7982 25.83 71.8582 26.21 70.7382 26.21C69.6182 26.21 68.6782 25.83 67.9182 25.07C67.1582 24.31 66.7782 23.37 66.7782 22.25C66.7782 21.14 67.1582 20.205 67.9182 19.445C68.6882 18.675 69.6282 18.29 70.7382 18.29C71.8482 18.29 72.7882 18.675 73.5582 19.445C74.3282 20.215 74.7132 21.15 74.7132 22.25C74.7132 23.36 74.3282 24.3 73.5582 25.07ZM69.2832 23.735C69.6732 24.125 70.1582 24.32 70.7382 24.32C71.3182 24.32 71.8032 24.125 72.1932 23.735C72.5832 23.345 72.7782 22.85 72.7782 22.25C72.7782 21.65 72.5832 21.155 72.1932 20.765C71.8032 20.375 71.3182 20.18 70.7382 20.18C70.1582 20.18 69.6732 20.375 69.2832 20.765C68.9032 21.165 68.7132 21.66 68.7132 22.25C68.7132 22.84 68.9032 23.335 69.2832 23.735ZM79.6295 26.21C78.4495 26.21 77.4945 25.83 76.7645 25.07C76.0445 24.31 75.6845 23.345 75.6845 22.175C75.6845 20.905 75.8745 19.92 76.2545 19.22C76.6245 18.52 77.3895 17.885 78.5495 17.315C78.5795 17.295 78.6345 17.265 78.7145 17.225C78.8045 17.185 78.8945 17.145 78.9845 17.105C79.0845 17.065 79.1795 17.025 79.2695 16.985L79.8995 16.67C80.0495 16.6 80.2095 16.51 80.3795 16.4C80.6295 16.25 80.8145 16.095 80.9345 15.935C81.0545 15.775 81.1845 15.535 81.3245 15.215L82.9145 16.13C82.7845 16.74 82.4895 17.215 82.0295 17.555C81.5595 17.895 80.8795 18.235 79.9895 18.575C79.3695 18.815 78.9095 19.06 78.6095 19.31C78.3095 19.56 78.0945 19.865 77.9645 20.225C78.5145 19.655 79.2645 19.37 80.2145 19.37C81.0545 19.37 81.7945 19.675 82.4345 20.285C83.0845 20.885 83.4095 21.685 83.4095 22.685C83.4095 23.715 83.0595 24.56 82.3595 25.22C81.6695 25.88 80.7595 26.21 79.6295 26.21ZM79.5995 20.915C79.0995 20.915 78.6595 21.07 78.2795 21.38C77.8995 21.7 77.7095 22.115 77.7095 22.625C77.7095 23.155 77.8895 23.59 78.2495 23.93C78.6195 24.27 79.0745 24.44 79.6145 24.44C80.1645 24.44 80.6095 24.275 80.9495 23.945C81.2995 23.615 81.4745 23.195 81.4745 22.685C81.4745 22.175 81.2995 21.755 80.9495 21.425C80.5995 21.085 80.1495 20.915 79.5995 20.915ZM90.2852 19.385V18.5H92.2202V26H90.2852V25.115C89.7052 25.845 88.8902 26.21 87.8402 26.21C86.8402 26.21 85.9802 25.83 85.2602 25.07C84.5502 24.3 84.1952 23.36 84.1952 22.25C84.1952 21.15 84.5502 20.215 85.2602 19.445C85.9802 18.675 86.8402 18.29 87.8402 18.29C88.8902 18.29 89.7052 18.655 90.2852 19.385ZM86.7152 23.78C87.1052 24.17 87.6002 24.365 88.2002 24.365C88.8002 24.365 89.2952 24.17 89.6852 23.78C90.0852 23.38 90.2852 22.87 90.2852 22.25C90.2852 21.63 90.0852 21.125 89.6852 20.735C89.2952 20.335 88.8002 20.135 88.2002 20.135C87.6002 20.135 87.1052 20.335 86.7152 20.735C86.3252 21.125 86.1302 21.63 86.1302 22.25C86.1302 22.87 86.3252 23.38 86.7152 23.78ZM99.3748 22.16C100.075 22.5 100.425 23.07 100.425 23.87C100.425 24.51 100.205 25.025 99.7648 25.415C99.3248 25.805 98.7098 26 97.9198 26H93.9748V18.5H97.6198C98.3998 18.5 99.0098 18.695 99.4498 19.085C99.8898 19.465 100.11 19.975 100.11 20.615C100.11 21.275 99.8648 21.79 99.3748 22.16ZM97.4398 20.09H95.7898V21.44H97.4398C97.9898 21.44 98.2648 21.215 98.2648 20.765C98.2648 20.315 97.9898 20.09 97.4398 20.09ZM95.7898 24.365H97.6948C98.2548 24.365 98.5348 24.125 98.5348 23.645C98.5348 23.435 98.4598 23.27 98.3098 23.15C98.1598 23.03 97.9548 22.97 97.6948 22.97H95.7898V24.365ZM103.526 22.76L107.051 18.5H108.491V26H106.601V21.74L103.076 26H101.636V18.5H103.526V22.76ZM109.529 18.5H116.174V20.36H113.834V26H111.899V20.36H109.529V18.5ZM119.142 20.9H120.597C121.447 20.9 122.132 21.135 122.652 21.605C123.172 22.065 123.432 22.68 123.432 23.45C123.432 24.22 123.172 24.84 122.652 25.31C122.132 25.77 121.447 26 120.597 26H117.207V18.5H119.142V20.9ZM119.142 24.29H120.612C120.882 24.29 121.102 24.215 121.272 24.065C121.452 23.905 121.542 23.7 121.542 23.45C121.542 23.2 121.452 22.995 121.272 22.835C121.102 22.675 120.882 22.595 120.612 22.595H119.142V24.29ZM134.789 25.07C134.029 25.83 133.089 26.21 131.969 26.21C130.849 26.21 129.909 25.83 129.149 25.07C128.389 24.31 128.009 23.37 128.009 22.25C128.009 21.14 128.389 20.205 129.149 19.445C129.919 18.675 130.859 18.29 131.969 18.29C133.079 18.29 134.019 18.675 134.789 19.445C135.559 20.215 135.944 21.15 135.944 22.25C135.944 23.36 135.559 24.3 134.789 25.07ZM130.514 23.735C130.904 24.125 131.389 24.32 131.969 24.32C132.549 24.32 133.034 24.125 133.424 23.735C133.814 23.345 134.009 22.85 134.009 22.25C134.009 21.65 133.814 21.155 133.424 20.765C133.034 20.375 132.549 20.18 131.969 20.18C131.389 20.18 130.904 20.375 130.514 20.765C130.134 21.165 129.944 21.66 129.944 22.25C129.944 22.84 130.134 23.335 130.514 23.735ZM140.86 26.21C139.68 26.21 138.725 25.83 137.995 25.07C137.275 24.31 136.915 23.345 136.915 22.175C136.915 20.905 137.105 19.92 137.485 19.22C137.855 18.52 138.62 17.885 139.78 17.315C139.81 17.295 139.865 17.265 139.945 17.225C140.035 17.185 140.125 17.145 140.215 17.105C140.315 17.065 140.41 17.025 140.5 16.985L141.13 16.67C141.28 16.6 141.44 16.51 141.61 16.4C141.86 16.25 142.045 16.095 142.165 15.935C142.285 15.775 142.415 15.535 142.555 15.215L144.145 16.13C144.015 16.74 143.72 17.215 143.26 17.555C142.79 17.895 142.11 18.235 141.22 18.575C140.6 18.815 140.14 19.06 139.84 19.31C139.54 19.56 139.325 19.865 139.195 20.225C139.745 19.655 140.495 19.37 141.445 19.37C142.285 19.37 143.025 19.675 143.665 20.285C144.315 20.885 144.64 21.685 144.64 22.685C144.64 23.715 144.29 24.56 143.59 25.22C142.9 25.88 141.99 26.21 140.86 26.21ZM140.83 20.915C140.33 20.915 139.89 21.07 139.51 21.38C139.13 21.7 138.94 22.115 138.94 22.625C138.94 23.155 139.12 23.59 139.48 23.93C139.85 24.27 140.305 24.44 140.845 24.44C141.395 24.44 141.84 24.275 142.18 23.945C142.53 23.615 142.705 23.195 142.705 22.685C142.705 22.175 142.53 21.755 142.18 21.425C141.83 21.085 141.38 20.915 140.83 20.915ZM147.751 20.9H149.206C150.056 20.9 150.741 21.135 151.261 21.605C151.781 22.065 152.041 22.68 152.041 23.45C152.041 24.22 151.781 24.84 151.261 25.31C150.741 25.77 150.056 26 149.206 26H145.816V18.5H147.751V20.9ZM147.751 24.29H149.221C149.491 24.29 149.711 24.215 149.881 24.065C150.061 23.905 150.151 23.7 150.151 23.45C150.151 23.2 150.061 22.995 149.881 22.835C149.711 22.675 149.491 22.595 149.221 22.595H147.751V24.29ZM155.293 18.5H158.803V26H156.913V23.66H156.238L154.513 26H152.278L154.153 23.435C153.673 23.235 153.288 22.92 152.998 22.49C152.718 22.06 152.578 21.59 152.578 21.08C152.578 20.39 152.828 19.785 153.328 19.265C153.818 18.755 154.473 18.5 155.293 18.5ZM156.913 20.225H155.443C155.163 20.225 154.928 20.31 154.738 20.48C154.558 20.65 154.468 20.87 154.468 21.14C154.468 21.41 154.558 21.625 154.738 21.785C154.928 21.945 155.163 22.025 155.443 22.025H156.913V20.225ZM165.967 22.16C166.667 22.5 167.017 23.07 167.017 23.87C167.017 24.51 166.797 25.025 166.357 25.415C165.917 25.805 165.302 26 164.512 26H160.567V18.5H164.212C164.992 18.5 165.602 18.695 166.042 19.085C166.482 19.465 166.702 19.975 166.702 20.615C166.702 21.275 166.457 21.79 165.967 22.16ZM164.032 20.09H162.382V21.44H164.032C164.582 21.44 164.857 21.215 164.857 20.765C164.857 20.315 164.582 20.09 164.032 20.09ZM162.382 24.365H164.287C164.847 24.365 165.127 24.125 165.127 23.645C165.127 23.435 165.052 23.27 164.902 23.15C164.752 23.03 164.547 22.97 164.287 22.97H162.382V24.365ZM168.65 18.5H174.59V26H172.655V20.36H170.585V22.865C170.585 25.175 169.53 26.22 167.42 26V24.185C167.82 24.285 168.125 24.215 168.335 23.975C168.545 23.735 168.65 23.33 168.65 22.76V18.5ZM183.633 23.045H177.978C178.228 23.985 178.933 24.455 180.093 24.455C180.833 24.455 181.393 24.205 181.773 23.705L183.333 24.605C182.593 25.675 181.503 26.21 180.063 26.21C178.823 26.21 177.828 25.835 177.078 25.085C176.328 24.335 175.953 23.39 175.953 22.25C175.953 21.13 176.323 20.19 177.063 19.43C177.793 18.67 178.743 18.29 179.913 18.29C181.023 18.29 181.928 18.67 182.628 19.43C183.348 20.19 183.708 21.13 183.708 22.25C183.708 22.46 183.683 22.725 183.633 23.045ZM177.948 21.545H181.773C181.663 21.055 181.438 20.68 181.098 20.42C180.768 20.16 180.373 20.03 179.913 20.03C179.393 20.03 178.963 20.165 178.623 20.435C178.283 20.695 178.058 21.065 177.948 21.545ZM189.979 21.335V18.5H191.914V26H189.979V23.15H186.994V26H185.059V18.5H186.994V21.335H189.979ZM195.577 22.76L199.102 18.5H200.542V26H198.652V21.74L195.127 26H193.687V18.5H195.577V22.76ZM204.82 18.5H208.33V26H206.44V23.66H205.765L204.04 26H201.805L203.68 23.435C203.2 23.235 202.815 22.92 202.525 22.49C202.245 22.06 202.105 21.59 202.105 21.08C202.105 20.39 202.355 19.785 202.855 19.265C203.345 18.755 204 18.5 204.82 18.5ZM206.44 20.225H204.97C204.69 20.225 204.455 20.31 204.265 20.48C204.085 20.65 203.995 20.87 203.995 21.14C203.995 21.41 204.085 21.625 204.265 21.785C204.455 21.945 204.69 22.025 204.97 22.025H206.44V20.225Z" fill="white"/>
<path d="M24.128 19.772H28.86V22.628H24.128V27.36H21.272V22.628H16.54V19.772H21.272V15.04H24.128V19.772Z" fill="white"/>
</svg>
