<svg width="472" height="54" viewBox="0 0 472 54" fill="none" xmlns="http://www.w3.org/2000/svg">
<rect width="472" height="54" rx="27" fill="white"/>
<rect x="0.5" y="0.5" width="471" height="53" rx="26.5" stroke="#979797" stroke-opacity="0.496575"/>
<g clip-path="url(#clip0_1804_4503)">
<rect x="8.5" y="7.5" width="170" height="40" rx="20" fill="#EBF5FF" stroke="#B3D9FF"/>
<rect x="138.5" y="7.5" width="40" height="40" rx="20" fill="#EBF5FF" stroke="#B3D9FF"/>
<path fill-rule="evenodd" clip-rule="evenodd" d="M158.105 27.2583L163.34 22.0232C163.574 21.7893 163.574 21.4103 163.34 21.1762C163.105 20.9412 162.723 20.9412 162.488 21.1762L157.258 26.4103L152.023 21.1762C151.789 20.9412 151.41 20.9412 151.176 21.1762C150.941 21.4103 150.941 21.7893 151.176 22.0273L156.41 27.2583L151.176 32.4882C150.941 32.7232 150.941 33.1053 151.176 33.3403C151.293 33.4572 151.445 33.5162 151.602 33.5162C151.754 33.5162 151.906 33.4572 152.023 33.3403L157.258 28.1052L162.488 33.3403C162.609 33.4572 162.762 33.5162 162.914 33.5162C163.066 33.5162 163.223 33.4572 163.34 33.3403C163.574 33.1053 163.574 32.7232 163.34 32.4882L158.105 27.2583Z" fill="#2979FF"/>
<path d="M33.025 20.305C34.605 20.305 35.905 20.83 36.925 21.88C37.945 22.92 38.455 24.21 38.455 25.75C38.455 27.28 37.945 28.57 36.925 29.62C35.905 30.67 34.605 31.195 33.025 31.195C32.065 31.195 31.175 30.965 30.355 30.505C29.545 30.035 28.925 29.41 28.495 28.63L29.71 27.94C30 28.51 30.445 28.97 31.045 29.32C31.645 29.66 32.305 29.83 33.025 29.83C34.125 29.83 35.03 29.51 35.74 28.87C36.47 28.22 36.9 27.395 37.03 26.395H31.63V25.09H37.03C36.9 24.09 36.47 23.265 35.74 22.615C35.03 21.975 34.125 21.655 33.025 21.655C32.305 21.655 31.645 21.83 31.045 22.18C30.455 22.52 30.01 22.98 29.71 23.56L28.495 22.855C28.925 22.085 29.55 21.465 30.37 20.995C31.17 20.535 32.055 20.305 33.025 20.305ZM40.4173 23.5H45.9823V31H44.6773V24.76H41.7223V27.82C41.7223 29.02 41.4823 29.875 41.0023 30.385C40.5223 30.885 39.8173 31.09 38.8873 31V29.77C39.4073 29.84 39.7923 29.725 40.0423 29.425C40.2923 29.115 40.4173 28.57 40.4173 27.79V23.5ZM55.1597 27.85H48.8747C49.0047 28.51 49.3097 29.03 49.7897 29.41C50.2697 29.78 50.8697 29.965 51.5897 29.965C52.5797 29.965 53.2997 29.6 53.7497 28.87L54.8597 29.5C54.1197 30.63 53.0197 31.195 51.5597 31.195C50.3797 31.195 49.4097 30.825 48.6497 30.085C47.9097 29.325 47.5397 28.38 47.5397 27.25C47.5397 26.11 47.9047 25.17 48.6347 24.43C49.3647 23.68 50.3097 23.305 51.4697 23.305C52.5697 23.305 53.4647 23.695 54.1547 24.475C54.8547 25.235 55.2047 26.165 55.2047 27.265C55.2047 27.455 55.1897 27.65 55.1597 27.85ZM51.4697 24.535C50.7797 24.535 50.1997 24.73 49.7297 25.12C49.2697 25.51 48.9847 26.04 48.8747 26.71H53.8847C53.7747 26.02 53.4997 25.485 53.0597 25.105C52.6197 24.725 52.0897 24.535 51.4697 24.535ZM59.3448 27.13L63.0498 31H61.4298L58.0098 27.445V31H56.7048V23.5H58.0098V26.815L61.2498 23.5H62.9298L59.3448 27.13ZM63.4234 23.5H69.8434V24.76H67.2934V31H65.9884V24.76H63.4234V23.5ZM75.1271 23.305C76.1771 23.305 77.0721 23.69 77.8121 24.46C78.5521 25.23 78.9221 26.16 78.9221 27.25C78.9221 28.35 78.5521 29.285 77.8121 30.055C77.0821 30.815 76.1871 31.195 75.1271 31.195C73.8871 31.195 72.9421 30.7 72.2921 29.71V34H70.9871V23.5H72.2921V24.79C72.9421 23.8 73.8871 23.305 75.1271 23.305ZM74.9621 29.935C75.7121 29.935 76.3421 29.68 76.8521 29.17C77.3621 28.64 77.6171 28 77.6171 27.25C77.6171 26.49 77.3621 25.855 76.8521 25.345C76.3421 24.825 75.7121 24.565 74.9621 24.565C74.2021 24.565 73.5671 24.825 73.0571 25.345C72.5471 25.855 72.2921 26.49 72.2921 27.25C72.2921 28 72.5471 28.64 73.0571 29.17C73.5671 29.68 74.2021 29.935 74.9621 29.935ZM86.8093 30.055C86.0493 30.815 85.1143 31.195 84.0043 31.195C82.8943 31.195 81.9593 30.815 81.1993 30.055C80.4393 29.295 80.0593 28.36 80.0593 27.25C80.0593 26.14 80.4393 25.205 81.1993 24.445C81.9593 23.685 82.8943 23.305 84.0043 23.305C85.1143 23.305 86.0493 23.685 86.8093 24.445C87.5793 25.215 87.9643 26.15 87.9643 27.25C87.9643 28.35 87.5793 29.285 86.8093 30.055ZM84.0043 29.92C84.7543 29.92 85.3843 29.665 85.8943 29.155C86.4043 28.645 86.6593 28.01 86.6593 27.25C86.6593 26.49 86.4043 25.855 85.8943 25.345C85.3843 24.835 84.7543 24.58 84.0043 24.58C83.2643 24.58 82.6393 24.835 82.1293 25.345C81.6193 25.855 81.3643 26.49 81.3643 27.25C81.3643 28.01 81.6193 28.645 82.1293 29.155C82.6393 29.665 83.2643 29.92 84.0043 29.92ZM94.6927 26.62V23.5H95.9977V31H94.6927V27.865H90.8077V31H89.5027V23.5H90.8077V26.62H94.6927ZM99.2741 28.765L103.429 23.5H104.479V31H103.189V25.735L99.0341 31H97.9841V23.5H99.2741V28.765ZM109.106 27.13L112.811 31H111.191L107.771 27.445V31H106.466V23.5H107.771V26.815L111.011 23.5H112.691L109.106 27.13ZM119.546 24.79V23.5H120.851V31H119.546V29.71C118.906 30.7 117.961 31.195 116.711 31.195C115.651 31.195 114.756 30.815 114.026 30.055C113.286 29.285 112.916 28.35 112.916 27.25C112.916 26.16 113.286 25.23 114.026 24.46C114.766 23.69 115.661 23.305 116.711 23.305C117.961 23.305 118.906 23.8 119.546 24.79ZM116.876 29.935C117.636 29.935 118.271 29.68 118.781 29.17C119.291 28.64 119.546 28 119.546 27.25C119.546 26.49 119.291 25.855 118.781 25.345C118.271 24.825 117.636 24.565 116.876 24.565C116.126 24.565 115.496 24.825 114.986 25.345C114.476 25.855 114.221 26.49 114.221 27.25C114.221 28 114.476 28.64 114.986 29.17C115.496 29.68 116.126 29.935 116.876 29.935Z" fill="#2979FF"/>
</g>
<g clip-path="url(#clip1_1804_4503)">
<rect x="186.5" y="7.5" width="152" height="40" rx="20" fill="#EBF5FF" stroke="#B3D9FF"/>
<rect x="298.5" y="7.5" width="40" height="40" rx="20" fill="#EBF5FF" stroke="#B3D9FF"/>
<path fill-rule="evenodd" clip-rule="evenodd" d="M318.105 27.2583L323.34 22.0232C323.574 21.7893 323.574 21.4103 323.34 21.1762C323.105 20.9412 322.723 20.9412 322.488 21.1762L317.258 26.4103L312.023 21.1762C311.789 20.9412 311.41 20.9412 311.176 21.1762C310.941 21.4103 310.941 21.7893 311.176 22.0273L316.41 27.2583L311.176 32.4882C310.941 32.7232 310.941 33.1053 311.176 33.3403C311.293 33.4572 311.445 33.5162 311.602 33.5162C311.754 33.5162 311.906 33.4572 312.023 33.3403L317.258 28.1052L322.488 33.3403C322.609 33.4572 322.762 33.5162 322.914 33.5162C323.066 33.5162 323.223 33.4572 323.34 33.3403C323.574 33.1053 323.574 32.7232 323.34 32.4882L318.105 27.2583Z" fill="#2979FF"/>
<path d="M215.375 20.5H216.95V31H215.57V22.795L212.135 28.51H211.955L208.52 22.81V31H207.125V20.5H208.7L212.045 26.05L215.375 20.5ZM225.39 30.055C224.63 30.815 223.695 31.195 222.585 31.195C221.475 31.195 220.54 30.815 219.78 30.055C219.02 29.295 218.64 28.36 218.64 27.25C218.64 26.14 219.02 25.205 219.78 24.445C220.54 23.685 221.475 23.305 222.585 23.305C223.695 23.305 224.63 23.685 225.39 24.445C226.16 25.215 226.545 26.15 226.545 27.25C226.545 28.35 226.16 29.285 225.39 30.055ZM222.585 29.92C223.335 29.92 223.965 29.665 224.475 29.155C224.985 28.645 225.24 28.01 225.24 27.25C225.24 26.49 224.985 25.855 224.475 25.345C223.965 24.835 223.335 24.58 222.585 24.58C221.845 24.58 221.22 24.835 220.71 25.345C220.2 25.855 219.945 26.49 219.945 27.25C219.945 28.01 220.2 28.645 220.71 29.155C221.22 29.665 221.845 29.92 222.585 29.92ZM233.274 26.62V23.5H234.579V31H233.274V27.865H229.389V31H228.084V23.5H229.389V26.62H233.274ZM237.855 28.765L242.01 23.5H243.06V31H241.77V25.735L237.615 31H236.565V23.5H237.855V28.765ZM244.207 23.5H250.627V24.76H248.077V31H246.772V24.76H244.207V23.5ZM257.807 30.055C257.047 30.815 256.112 31.195 255.002 31.195C253.892 31.195 252.957 30.815 252.197 30.055C251.437 29.295 251.057 28.36 251.057 27.25C251.057 26.14 251.437 25.205 252.197 24.445C252.957 23.685 253.892 23.305 255.002 23.305C256.112 23.305 257.047 23.685 257.807 24.445C258.577 25.215 258.962 26.15 258.962 27.25C258.962 28.35 258.577 29.285 257.807 30.055ZM255.002 29.92C255.752 29.92 256.382 29.665 256.892 29.155C257.402 28.645 257.657 28.01 257.657 27.25C257.657 26.49 257.402 25.855 256.892 25.345C256.382 24.835 255.752 24.58 255.002 24.58C254.262 24.58 253.637 24.835 253.127 25.345C252.617 25.855 252.362 26.49 252.362 27.25C252.362 28.01 252.617 28.645 253.127 29.155C253.637 29.665 254.262 29.92 255.002 29.92ZM264.641 23.305C265.691 23.305 266.586 23.69 267.326 24.46C268.066 25.23 268.436 26.16 268.436 27.25C268.436 28.35 268.066 29.285 267.326 30.055C266.596 30.815 265.701 31.195 264.641 31.195C263.401 31.195 262.456 30.7 261.806 29.71V34H260.501V23.5H261.806V24.79C262.456 23.8 263.401 23.305 264.641 23.305ZM264.476 29.935C265.226 29.935 265.856 29.68 266.366 29.17C266.876 28.64 267.131 28 267.131 27.25C267.131 26.49 266.876 25.855 266.366 25.345C265.856 24.825 265.226 24.565 264.476 24.565C263.716 24.565 263.081 24.825 262.571 25.345C262.061 25.855 261.806 26.49 261.806 27.25C261.806 28 262.061 28.64 262.571 29.17C263.081 29.68 263.716 29.935 264.476 29.935ZM271.298 26.2H273.158C273.908 26.2 274.528 26.425 275.018 26.875C275.518 27.315 275.768 27.89 275.768 28.6C275.768 29.31 275.518 29.89 275.018 30.34C274.518 30.78 273.898 31 273.158 31H269.993V23.5H271.298V26.2ZM276.743 31V23.5H278.048V31H276.743ZM271.298 29.785H273.158C273.538 29.785 273.853 29.675 274.103 29.455C274.353 29.235 274.478 28.95 274.478 28.6C274.478 28.25 274.348 27.965 274.088 27.745C273.838 27.515 273.528 27.4 273.158 27.4H271.298V29.785Z" fill="#2979FF"/>
</g>
<mask id="mask0_1804_4503" style="mask-type:alpha" maskUnits="userSpaceOnUse" x="431" y="25" width="18" height="9">
<path fill-rule="evenodd" clip-rule="evenodd" d="M431.5 33.5V25.5L448.5 25.5V33.5H431.5Z" fill="white"/>
</mask>
<g mask="url(#mask0_1804_4503)">
<path fill-rule="evenodd" clip-rule="evenodd" d="M440 32.4633L432.322 25.6262C432.133 25.4579 431.83 25.4579 431.642 25.6262C431.453 25.7942 431.453 26.064 431.642 26.232L439.661 33.3739C439.85 33.542 440.153 33.542 440.342 33.3739L448.358 26.232C448.45 26.1496 448.5 26.0385 448.5 25.9308C448.5 25.8229 448.454 25.7118 448.358 25.6293C448.169 25.4612 447.866 25.4612 447.677 25.6293L440 32.4633Z" fill="black"/>
</g>
<defs>
<clipPath id="clip0_1804_4503">
<rect width="171" height="41" fill="white" transform="translate(8 7)"/>
</clipPath>
<clipPath id="clip1_1804_4503">
<rect width="153" height="41" fill="white" transform="translate(186 7)"/>
</clipPath>
</defs>
</svg>
