<svg width="130" height="37" viewBox="0 0 130 37" fill="none" xmlns="http://www.w3.org/2000/svg">
<g clip-path="url(#clip0_1804_14937)">
<path d="M1.5 18.5C1.5 8.55887 9.55887 0.5 19.5 0.5H125C127.485 0.5 129.5 2.51472 129.5 5V32C129.5 34.4853 127.485 36.5 125 36.5H19.5C9.55888 36.5 1.5 28.4411 1.5 18.5Z" fill="white" stroke="#41D481"/>
<path d="M49.2 10.8H57.328V22H55.84V12.208H50.688V22H49.2V10.8ZM66.3393 20.992C65.5286 21.8027 64.5313 22.208 63.3473 22.208C62.1633 22.208 61.1659 21.8027 60.3553 20.992C59.5446 20.1813 59.1393 19.184 59.1393 18C59.1393 16.816 59.5446 15.8187 60.3553 15.008C61.1659 14.1973 62.1633 13.792 63.3473 13.792C64.5313 13.792 65.5286 14.1973 66.3393 15.008C67.1606 15.8293 67.5712 16.8267 67.5712 18C67.5712 19.1733 67.1606 20.1707 66.3393 20.992ZM63.3473 20.848C64.1473 20.848 64.8193 20.576 65.3633 20.032C65.9073 19.488 66.1793 18.8107 66.1793 18C66.1793 17.1893 65.9073 16.512 65.3633 15.968C64.8193 15.424 64.1473 15.152 63.3473 15.152C62.5579 15.152 61.8913 15.424 61.3473 15.968C60.8033 16.512 60.5312 17.1893 60.5312 18C60.5312 18.8107 60.8033 19.488 61.3473 20.032C61.8913 20.576 62.5579 20.848 63.3473 20.848ZM75.7798 14V20.672H76.8837V24.144H75.5078V22H69.5078V24.144H68.1318V20.672H69.1078C69.6198 19.968 69.8758 18.9813 69.8758 17.712V14H75.7798ZM70.6918 20.672H74.4038V15.296H71.2518V17.712C71.2518 18.8853 71.0651 19.872 70.6918 20.672ZM83.9201 17.328V14H85.3121V22H83.9201V18.656H79.7761V22H78.3841V14H79.7761V17.328H83.9201ZM90.007 14H93.415V22H92.039V19.12H90.871L88.631 22H86.935L89.271 19.04C88.663 18.8907 88.1723 18.592 87.799 18.144C87.4363 17.696 87.255 17.1733 87.255 16.576C87.255 15.84 87.5163 15.2267 88.039 14.736C88.5617 14.2453 89.2177 14 90.007 14ZM90.055 17.872H92.039V15.296H90.055C89.6497 15.296 89.3083 15.4187 89.031 15.664C88.7643 15.8987 88.631 16.208 88.631 16.592C88.631 16.9653 88.7643 17.2747 89.031 17.52C89.3083 17.7547 89.6497 17.872 90.055 17.872ZM94.6288 14H101.477V15.344H98.7568V22H97.3648V15.344H94.6288V14ZM104.089 16.88H106.073C106.873 16.88 107.534 17.12 108.057 17.6C108.59 18.0693 108.857 18.6827 108.857 19.44C108.857 20.1973 108.59 20.816 108.057 21.296C107.523 21.7653 106.862 22 106.073 22H102.697V14H104.089V16.88ZM104.089 20.704H106.073C106.478 20.704 106.814 20.5867 107.081 20.352C107.347 20.1173 107.481 19.8133 107.481 19.44C107.481 19.0667 107.342 18.7627 107.065 18.528C106.798 18.2827 106.467 18.16 106.073 18.16H104.089V20.704Z" fill="black"/>
<circle cx="17" cy="18" r="17" fill="#41D481"/>
<path fill-rule="evenodd" clip-rule="evenodd" d="M17.2497 11.0583L10.5598 17.7478C10.1467 18.1613 10.1467 18.8241 10.5598 19.2372C10.9732 19.6507 11.6361 19.6507 12.0492 19.2372L16.9459 14.3408V35.6966C16.9459 36.2814 17.4135 36.7492 17.9982 36.7492C18.583 36.7492 19.0508 36.2814 19.0508 35.6966V14.3408L23.9476 19.2372C24.3607 19.6507 25.0235 19.6507 25.4366 19.2372C25.6395 19.0347 25.7484 18.7617 25.7484 18.4963C25.7484 18.2313 25.6471 17.9584 25.4366 17.7558L18.7466 11.0659C18.326 10.6449 17.6552 10.6449 17.2497 11.0583Z" fill="white" stroke="#41D481" stroke-width="0.5"/>
<mask id="mask0_1804_14937" style="mask-type:alpha" maskUnits="userSpaceOnUse" x="10" y="10" width="16" height="27">
<path fill-rule="evenodd" clip-rule="evenodd" d="M17.2497 11.0583L10.5598 17.7478C10.1467 18.1613 10.1467 18.8241 10.5598 19.2372C10.9732 19.6507 11.6361 19.6507 12.0492 19.2372L16.9459 14.3408V35.6966C16.9459 36.2814 17.4135 36.7492 17.9982 36.7492C18.583 36.7492 19.0508 36.2814 19.0508 35.6966V14.3408L23.9476 19.2372C24.3607 19.6507 25.0235 19.6507 25.4366 19.2372C25.6395 19.0347 25.7484 18.7617 25.7484 18.4963C25.7484 18.2313 25.6471 17.9584 25.4366 17.7558L18.7466 11.0659C18.326 10.6449 17.6552 10.6449 17.2497 11.0583Z" fill="white" stroke="white" stroke-width="0.5"/>
</mask>
<g mask="url(#mask0_1804_14937)">
</g>
</g>
<defs>
<clipPath id="clip0_1804_14937">
<rect width="130" height="37" fill="white"/>
</clipPath>
</defs>
</svg>
