<svg width="185" height="37" viewBox="0 0 185 37" fill="none" xmlns="http://www.w3.org/2000/svg">
<g clip-path="url(#clip0_1804_14947)">
<path d="M1.5 18.5C1.5 8.55887 9.55887 0.5 19.5 0.5H180C182.485 0.5 184.5 2.51472 184.5 5V32C184.5 34.4853 182.485 36.5 180 36.5H19.5C9.55888 36.5 1.5 28.4411 1.5 18.5Z" fill="white" stroke="#304FFF"/>
<path d="M49.2 10.8H53.264C54.288 10.8 55.1467 11.1467 55.84 11.84C56.5333 12.5333 56.88 13.3867 56.88 14.4C56.88 15.4133 56.5333 16.2667 55.84 16.96C55.1467 17.6533 54.288 18 53.264 18H50.688V22H49.2V10.8ZM50.688 16.608H53.264C53.8933 16.608 54.4053 16.4 54.8 15.984C55.2053 15.5467 55.408 15.0187 55.408 14.4C55.408 13.76 55.2053 13.232 54.8 12.816C54.3947 12.4 53.8827 12.192 53.264 12.192H50.688V16.608ZM65.5641 18.64H58.8601C58.9988 19.344 59.3241 19.8987 59.8361 20.304C60.3481 20.6987 60.9881 20.896 61.7561 20.896C62.8121 20.896 63.5801 20.5067 64.0601 19.728L65.2441 20.4C64.4548 21.6053 63.2815 22.208 61.7241 22.208C60.4655 22.208 59.4308 21.8133 58.6201 21.024C57.8308 20.2133 57.4361 19.2053 57.4361 18C57.4361 16.784 57.8255 15.7813 58.6041 14.992C59.3828 14.192 60.3908 13.792 61.6281 13.792C62.8015 13.792 63.7561 14.208 64.4921 15.04C65.2388 15.8507 65.6121 16.8427 65.6121 18.016C65.6121 18.2187 65.5961 18.4267 65.5641 18.64ZM61.6281 15.104C60.8921 15.104 60.2735 15.312 59.7721 15.728C59.2815 16.144 58.9775 16.7093 58.8601 17.424H64.2041C64.0868 16.688 63.7935 16.1173 63.3241 15.712C62.8548 15.3067 62.2895 15.104 61.6281 15.104ZM70.0283 17.872L73.9803 22H72.2523L68.6043 18.208V22H67.2122V14H68.6043V17.536L72.0603 14H73.8523L70.0283 17.872ZM76.0108 14H81.9468V22H80.5548V15.344H77.4028V18.608C77.4028 19.888 77.1468 20.8 76.6348 21.344C76.1228 21.8773 75.3708 22.096 74.3788 22V20.688C74.9334 20.7627 75.3441 20.64 75.6108 20.32C75.8774 19.9893 76.0108 19.408 76.0108 18.576V14ZM90.68 15.376V14H92.072V22H90.68V20.624C89.9973 21.68 88.9893 22.208 87.656 22.208C86.5253 22.208 85.5707 21.8027 84.792 20.992C84.0027 20.1707 83.608 19.1733 83.608 18C83.608 16.8373 84.0027 15.8453 84.792 15.024C85.5813 14.2027 86.536 13.792 87.656 13.792C88.9893 13.792 89.9973 14.32 90.68 15.376ZM87.832 20.864C88.6427 20.864 89.32 20.592 89.864 20.048C90.408 19.4827 90.68 18.8 90.68 18C90.68 17.1893 90.408 16.512 89.864 15.968C89.32 15.4133 88.6427 15.136 87.832 15.136C87.032 15.136 86.36 15.4133 85.816 15.968C85.272 16.512 85 17.1893 85 18C85 18.8 85.272 19.4827 85.816 20.048C86.36 20.592 87.032 20.864 87.832 20.864ZM100.693 14H102.181V22H100.821V16.192L98.277 20.288H98.101L95.557 16.192V22H94.181V14H95.669L98.181 18.048L100.693 14ZM105.682 19.616L110.114 14H111.234V22H109.858V16.384L105.426 22H104.306V14H105.682V19.616ZM117.769 13.792C118.889 13.792 119.844 14.2027 120.633 15.024C121.422 15.8453 121.817 16.8373 121.817 18C121.817 19.1733 121.422 20.1707 120.633 20.992C119.854 21.8027 118.9 22.208 117.769 22.208C116.446 22.208 115.438 21.68 114.745 20.624V25.2H113.353V14H114.745V15.376C115.438 14.32 116.446 13.792 117.769 13.792ZM117.593 20.864C118.393 20.864 119.065 20.592 119.609 20.048C120.153 19.4827 120.425 18.8 120.425 18C120.425 17.1893 120.153 16.512 119.609 15.968C119.065 15.4133 118.393 15.136 117.593 15.136C116.782 15.136 116.105 15.4133 115.561 15.968C115.017 16.512 114.745 17.1893 114.745 18C114.745 18.8 115.017 19.4827 115.561 20.048C116.105 20.592 116.782 20.864 117.593 20.864ZM130.23 20.992C129.419 21.8027 128.422 22.208 127.238 22.208C126.054 22.208 125.057 21.8027 124.246 20.992C123.435 20.1813 123.03 19.184 123.03 18C123.03 16.816 123.435 15.8187 124.246 15.008C125.057 14.1973 126.054 13.792 127.238 13.792C128.422 13.792 129.419 14.1973 130.23 15.008C131.051 15.8293 131.462 16.8267 131.462 18C131.462 19.1733 131.051 20.1707 130.23 20.992ZM127.238 20.848C128.038 20.848 128.71 20.576 129.254 20.032C129.798 19.488 130.07 18.8107 130.07 18C130.07 17.1893 129.798 16.512 129.254 15.968C128.71 15.424 128.038 15.152 127.238 15.152C126.449 15.152 125.782 15.424 125.238 15.968C124.694 16.512 124.422 17.1893 124.422 18C124.422 18.8107 124.694 19.488 125.238 20.032C125.782 20.576 126.449 20.848 127.238 20.848ZM138.431 17.888C139.252 18.2293 139.663 18.848 139.663 19.744C139.663 20.4267 139.439 20.976 138.991 21.392C138.543 21.7973 137.914 22 137.103 22H133.103V14H136.783C137.572 14 138.186 14.1973 138.623 14.592C139.071 14.9867 139.295 15.5147 139.295 16.176C139.295 16.944 139.007 17.5147 138.431 17.888ZM136.719 15.248H134.463V17.344H136.719C137.53 17.344 137.935 16.9867 137.935 16.272C137.935 15.5893 137.53 15.248 136.719 15.248ZM134.463 20.736H137.023C137.428 20.736 137.738 20.64 137.951 20.448C138.175 20.256 138.287 19.984 138.287 19.632C138.287 19.3013 138.175 19.0453 137.951 18.864C137.738 18.672 137.428 18.576 137.023 18.576H134.463V20.736ZM147.789 15.376V14H149.181V22H147.789V20.624C147.107 21.68 146.099 22.208 144.765 22.208C143.635 22.208 142.68 21.8027 141.901 20.992C141.112 20.1707 140.717 19.1733 140.717 18C140.717 16.8373 141.112 15.8453 141.901 15.024C142.691 14.2027 143.645 13.792 144.765 13.792C146.099 13.792 147.107 14.32 147.789 15.376ZM144.941 20.864C145.752 20.864 146.429 20.592 146.973 20.048C147.517 19.4827 147.789 18.8 147.789 18C147.789 17.1893 147.517 16.512 146.973 15.968C146.429 15.4133 145.752 15.136 144.941 15.136C144.141 15.136 143.469 15.4133 142.925 15.968C142.381 16.512 142.109 17.1893 142.109 18C142.109 18.8 142.381 19.4827 142.925 20.048C143.469 20.592 144.141 20.864 144.941 20.864ZM150.394 14H157.242V15.344H154.522V22H153.13V15.344H150.394V14ZM159.854 16.88H161.838C162.638 16.88 163.3 17.12 163.822 17.6C164.356 18.0693 164.622 18.6827 164.622 19.44C164.622 20.1973 164.356 20.816 163.822 21.296C163.289 21.7653 162.628 22 161.838 22H158.462V14H159.854V16.88ZM159.854 20.704H161.838C162.244 20.704 162.58 20.5867 162.846 20.352C163.113 20.1173 163.246 19.8133 163.246 19.44C163.246 19.0667 163.108 18.7627 162.83 18.528C162.564 18.2827 162.233 18.16 161.838 18.16H159.854V20.704Z" fill="black"/>
<circle cx="17" cy="18" r="17" fill="#304FFF"/>
<path fill-rule="evenodd" clip-rule="evenodd" d="M17.2746 10.8091L10.7998 17.4986C10.4001 17.9121 10.4001 18.5749 10.7998 18.988C11.2 19.4014 11.8415 19.4014 12.2414 18.988L16.9806 14.0916V35.4474C16.9806 36.0322 17.4331 36.5 17.9991 36.5C18.5651 36.5 19.0178 36.0322 19.0178 35.4474V14.0916L23.7572 18.988C24.1569 19.4014 24.7985 19.4014 25.1982 18.988C25.3946 18.7855 25.5 18.5125 25.5 18.2471C25.5 17.9821 25.402 17.7092 25.1982 17.5066L18.7234 10.8167C18.3163 10.3957 17.667 10.3957 17.2746 10.8091Z" fill="white" stroke="#41D481" stroke-width="0.5"/>
<mask id="mask0_1804_14947" style="mask-type:alpha" maskUnits="userSpaceOnUse" x="10" y="10" width="16" height="27">
<path fill-rule="evenodd" clip-rule="evenodd" d="M17.2746 10.8091L10.7998 17.4986C10.4001 17.9121 10.4001 18.5749 10.7998 18.988C11.2 19.4014 11.8415 19.4014 12.2414 18.988L16.9806 14.0916V35.4474C16.9806 36.0322 17.4331 36.5 17.9991 36.5C18.5651 36.5 19.0178 36.0322 19.0178 35.4474V14.0916L23.7572 18.988C24.1569 19.4014 24.7985 19.4014 25.1982 18.988C25.3946 18.7855 25.5 18.5125 25.5 18.2471C25.5 17.9821 25.402 17.7092 25.1982 17.5066L18.7234 10.8167C18.3163 10.3957 17.667 10.3957 17.2746 10.8091Z" fill="white" stroke="white" stroke-width="0.5"/>
</mask>
<g mask="url(#mask0_1804_14947)">
</g>
</g>
<defs>
<clipPath id="clip0_1804_14947">
<rect width="185" height="37" fill="white"/>
</clipPath>
</defs>
</svg>
