<svg width="89" height="21" viewBox="0 0 89 21" fill="none" xmlns="http://www.w3.org/2000/svg">
<g clip-path="url(#clip0_1804_4528)">
<rect width="89" height="21" rx="3" fill="#E5E3FF"/>
<path d="M18.904 14H17.11V8.449L13.21 14H11.845V4.9H13.639V10.464L17.539 4.9H18.904V14ZM24.7781 9.957V7.5H26.4551V14H24.7781V11.53H22.1911V14H20.5141V7.5H22.1911V9.957H24.7781ZM27.3546 7.5H33.1136V9.112H31.0856V14H29.4086V9.112H27.3546V7.5ZM40.0733 11.439H35.1723C35.3889 12.2537 35.9999 12.661 37.0053 12.661C37.6466 12.661 38.1319 12.4443 38.4613 12.011L39.8133 12.791C39.1719 13.7183 38.2273 14.182 36.9793 14.182C35.9046 14.182 35.0423 13.857 34.3923 13.207C33.7423 12.557 33.4173 11.738 33.4173 10.75C33.4173 9.77933 33.7379 8.96467 34.3793 8.306C35.0119 7.64733 35.8353 7.318 36.8493 7.318C37.8113 7.318 38.5956 7.64733 39.2023 8.306C39.8263 8.96467 40.1383 9.77933 40.1383 10.75C40.1383 10.932 40.1166 11.1617 40.0733 11.439ZM35.1463 10.139H38.4613C38.3659 9.71433 38.1709 9.38933 37.8763 9.164C37.5903 8.93867 37.2479 8.826 36.8493 8.826C36.3986 8.826 36.0259 8.943 35.7313 9.177C35.4366 9.40233 35.2416 9.723 35.1463 10.139ZM45.092 7.318C45.9673 7.318 46.7127 7.65167 47.328 8.319C47.952 8.98633 48.264 9.79667 48.264 10.75C48.264 11.7207 47.952 12.5353 47.328 13.194C46.7213 13.8527 45.976 14.182 45.092 14.182C44.182 14.182 43.48 13.8657 42.986 13.233V16.6H41.309V7.5H42.986V8.267C43.48 7.63433 44.182 7.318 45.092 7.318ZM43.493 12.076C43.831 12.414 44.26 12.583 44.78 12.583C45.3 12.583 45.729 12.414 46.067 12.076C46.4137 11.7293 46.587 11.2873 46.587 10.75C46.587 10.2127 46.4137 9.775 46.067 9.437C45.729 9.09033 45.3 8.917 44.78 8.917C44.26 8.917 43.831 9.09033 43.493 9.437C43.155 9.775 42.986 10.2127 42.986 10.75C42.986 11.2873 43.155 11.7293 43.493 12.076ZM52.5407 14.182C51.5614 14.182 50.7424 13.8527 50.0837 13.194C49.4337 12.5353 49.1087 11.7207 49.1087 10.75C49.1087 9.77933 49.4337 8.96467 50.0837 8.306C50.7424 7.64733 51.5614 7.318 52.5407 7.318C53.1734 7.318 53.7497 7.46967 54.2697 7.773C54.7897 8.07633 55.184 8.48367 55.4527 8.995L54.0097 9.84C53.8797 9.57133 53.6804 9.359 53.4117 9.203C53.1517 9.047 52.857 8.969 52.5277 8.969C52.025 8.969 51.609 9.138 51.2797 9.476C50.9504 9.80533 50.7857 10.23 50.7857 10.75C50.7857 11.2527 50.9504 11.6773 51.2797 12.024C51.609 12.3533 52.025 12.518 52.5277 12.518C52.8657 12.518 53.1647 12.4443 53.4247 12.297C53.6934 12.141 53.8927 11.9287 54.0227 11.66L55.4787 12.492C55.1927 13.012 54.7854 13.4237 54.2567 13.727C53.7367 14.0303 53.1647 14.182 52.5407 14.182ZM60.6804 9.957V7.5H62.3574V14H60.6804V11.53H58.0934V14H56.4164V7.5H58.0934V9.957H60.6804ZM69.432 13.194C68.7733 13.8527 67.9586 14.182 66.988 14.182C66.0173 14.182 65.2026 13.8527 64.544 13.194C63.8853 12.5353 63.556 11.7207 63.556 10.75C63.556 9.788 63.8853 8.97767 64.544 8.319C65.2113 7.65167 66.026 7.318 66.988 7.318C67.95 7.318 68.7646 7.65167 69.432 8.319C70.0993 8.98633 70.433 9.79667 70.433 10.75C70.433 11.712 70.0993 12.5267 69.432 13.194ZM65.727 12.037C66.065 12.375 66.4853 12.544 66.988 12.544C67.4906 12.544 67.911 12.375 68.249 12.037C68.587 11.699 68.756 11.27 68.756 10.75C68.756 10.23 68.587 9.801 68.249 9.463C67.911 9.125 67.4906 8.956 66.988 8.956C66.4853 8.956 66.065 9.125 65.727 9.463C65.3976 9.80967 65.233 10.2387 65.233 10.75C65.233 11.2613 65.3976 11.6903 65.727 12.037ZM77.9307 11.439H73.0297C73.2464 12.2537 73.8574 12.661 74.8627 12.661C75.504 12.661 75.9894 12.4443 76.3187 12.011L77.6707 12.791C77.0294 13.7183 76.0847 14.182 74.8367 14.182C73.762 14.182 72.8997 13.857 72.2497 13.207C71.5997 12.557 71.2747 11.738 71.2747 10.75C71.2747 9.77933 71.5954 8.96467 72.2367 8.306C72.8694 7.64733 73.6927 7.318 74.7067 7.318C75.6687 7.318 76.453 7.64733 77.0597 8.306C77.6837 8.96467 77.9957 9.77933 77.9957 10.75C77.9957 10.932 77.974 11.1617 77.9307 11.439ZM73.0037 10.139H76.3187C76.2234 9.71433 76.0284 9.38933 75.7337 9.164C75.4477 8.93867 75.1054 8.826 74.7067 8.826C74.256 8.826 73.8834 8.943 73.5887 9.177C73.294 9.40233 73.099 9.723 73.0037 10.139Z" fill="#704FFF"/>
</g>
<defs>
<clipPath id="clip0_1804_4528">
<rect width="89" height="21" fill="white"/>
</clipPath>
</defs>
</svg>
