<svg width="46" height="21" viewBox="0 0 46 21" fill="none" xmlns="http://www.w3.org/2000/svg">
<g clip-path="url(#clip0_1804_4555)">
<rect width="46" height="21" rx="3" fill="#E4F6FF"/>
<path d="M11.169 4.9H17.864V6.616H15.407V14H13.613V6.616H11.169V4.9ZM23.1448 13.194C22.4862 13.8527 21.6715 14.182 20.7008 14.182C19.7302 14.182 18.9155 13.8527 18.2568 13.194C17.5982 12.5353 17.2688 11.7207 17.2688 10.75C17.2688 9.788 17.5982 8.97767 18.2568 8.319C18.9242 7.65167 19.7388 7.318 20.7008 7.318C21.6628 7.318 22.4775 7.65167 23.1448 8.319C23.8122 8.98633 24.1458 9.79667 24.1458 10.75C24.1458 11.712 23.8122 12.5267 23.1448 13.194ZM19.4398 12.037C19.7778 12.375 20.1982 12.544 20.7008 12.544C21.2035 12.544 21.6238 12.375 21.9618 12.037C22.2998 11.699 22.4688 11.27 22.4688 10.75C22.4688 10.23 22.2998 9.801 21.9618 9.463C21.6238 9.125 21.2035 8.956 20.7008 8.956C20.1982 8.956 19.7778 9.125 19.4398 9.463C19.1105 9.80967 18.9458 10.2387 18.9458 10.75C18.9458 11.2613 19.1105 11.6903 19.4398 12.037ZM25.3256 7.5H31.2666V14H29.5896V9.073H27.0026V14H25.3256V7.5Z" fill="#57B4E2"/>
</g>
<defs>
<clipPath id="clip0_1804_4555">
<rect width="46" height="21" fill="white"/>
</clipPath>
</defs>
</svg>
