<svg width="174" height="21" viewBox="0 0 174 21" fill="none" xmlns="http://www.w3.org/2000/svg">
<g clip-path="url(#clip0_1804_4531)">
<rect width="174" height="21" rx="3" fill="#D2FFDB"/>
<path d="M19.502 12.817C18.5833 13.727 17.4653 14.182 16.148 14.182C14.8307 14.182 13.7127 13.727 12.794 12.817C11.884 11.8897 11.429 10.7673 11.429 9.45C11.429 8.124 11.884 7.006 12.794 6.096C13.7127 5.17733 14.8307 4.718 16.148 4.718C17.4653 4.718 18.5833 5.17733 19.502 6.096C20.4207 7.006 20.88 8.124 20.88 9.45C20.88 10.776 20.4207 11.8983 19.502 12.817ZM14.055 11.595C14.6097 12.1497 15.3073 12.427 16.148 12.427C16.9887 12.427 17.6863 12.1497 18.241 11.595C18.8043 11.0317 19.086 10.3167 19.086 9.45C19.086 8.58333 18.8043 7.86833 18.241 7.305C17.6777 6.74167 16.98 6.46 16.148 6.46C15.316 6.46 14.6183 6.74167 14.055 7.305C13.4917 7.86833 13.21 8.58333 13.21 9.45C13.21 10.3167 13.4917 11.0317 14.055 11.595ZM21.4259 7.5H27.1849V9.112H25.1569V14H23.4799V9.112H21.4259V7.5ZM28.1032 7.5H33.2512V14H31.5742V9.112H29.7802V11.283C29.7802 13.285 28.8659 14.1907 27.0372 14V12.427C27.3839 12.5137 27.6482 12.453 27.8302 12.245C28.0122 12.037 28.1032 11.686 28.1032 11.192V7.5ZM36.4089 11.192L39.4639 7.5H40.7119V14H39.0739V10.308L36.0189 14H34.7709V7.5H36.4089V11.192ZM46.0834 10.36V7.5H47.7604V14H46.0834V11.933C45.5981 12.089 45.0824 12.167 44.5364 12.167C43.7391 12.167 43.1064 11.9633 42.6384 11.556C42.1704 11.1487 41.9364 10.5723 41.9364 9.827V7.5H43.6134V9.632C43.6134 10.282 44.0164 10.607 44.8224 10.607C45.2991 10.607 45.7194 10.5247 46.0834 10.36ZM53.5456 9.957V7.5H55.2226V14H53.5456V11.53H50.9586V14H49.2816V7.5H50.9586V9.957H53.5456ZM58.4362 9.58H59.6972C60.4339 9.58 61.0275 9.78367 61.4782 10.191C61.9289 10.5897 62.1542 11.1227 62.1542 11.79C62.1542 12.4573 61.9289 12.9947 61.4782 13.402C61.0275 13.8007 60.4339 14 59.6972 14H56.7592V7.5H58.4362V9.58ZM62.8692 14V7.5H64.5462V14H62.8692ZM58.4362 12.518H59.7102C59.9442 12.518 60.1349 12.453 60.2822 12.323C60.4382 12.1843 60.5162 12.0067 60.5162 11.79C60.5162 11.5733 60.4382 11.3957 60.2822 11.257C60.1349 11.1183 59.9442 11.049 59.7102 11.049H58.4362V12.518ZM72.3955 11.439H67.4945C67.7112 12.2537 68.3222 12.661 69.3275 12.661C69.9689 12.661 70.4542 12.4443 70.7835 12.011L72.1355 12.791C71.4942 13.7183 70.5495 14.182 69.3015 14.182C68.2269 14.182 67.3645 13.857 66.7145 13.207C66.0645 12.557 65.7395 11.738 65.7395 10.75C65.7395 9.77933 66.0602 8.96467 66.7015 8.306C67.3342 7.64733 68.1575 7.318 69.1715 7.318C70.1335 7.318 70.9179 7.64733 71.5245 8.306C72.1485 8.96467 72.4605 9.77933 72.4605 10.75C72.4605 10.932 72.4389 11.1617 72.3955 11.439ZM67.4685 10.139H70.7835C70.6882 9.71433 70.4932 9.38933 70.1985 9.164C69.9125 8.93867 69.5702 8.826 69.1715 8.826C68.7209 8.826 68.3482 8.943 68.0535 9.177C67.7589 9.40233 67.5639 9.723 67.4685 10.139ZM76.8813 7.5H82.8223V14H81.1453V9.073H78.5583V14H76.8813V7.5ZM88.1418 7.318C89.0171 7.318 89.7625 7.65167 90.3778 8.319C91.0018 8.98633 91.3138 9.79667 91.3138 10.75C91.3138 11.7207 91.0018 12.5353 90.3778 13.194C89.7711 13.8527 89.0258 14.182 88.1418 14.182C87.2318 14.182 86.5298 13.8657 86.0358 13.233V16.6H84.3588V7.5H86.0358V8.267C86.5298 7.63433 87.2318 7.318 88.1418 7.318ZM86.5428 12.076C86.8808 12.414 87.3098 12.583 87.8298 12.583C88.3498 12.583 88.7788 12.414 89.1168 12.076C89.4635 11.7293 89.6368 11.2873 89.6368 10.75C89.6368 10.2127 89.4635 9.775 89.1168 9.437C88.7788 9.09033 88.3498 8.917 87.8298 8.917C87.3098 8.917 86.8808 9.09033 86.5428 9.437C86.2048 9.775 86.0358 10.2127 86.0358 10.75C86.0358 11.2873 86.2048 11.7293 86.5428 12.076ZM98.8145 11.439H93.9135C94.1302 12.2537 94.7412 12.661 95.7465 12.661C96.3878 12.661 96.8732 12.4443 97.2025 12.011L98.5545 12.791C97.9132 13.7183 96.9685 14.182 95.7205 14.182C94.6458 14.182 93.7835 13.857 93.1335 13.207C92.4835 12.557 92.1585 11.738 92.1585 10.75C92.1585 9.77933 92.4792 8.96467 93.1205 8.306C93.7532 7.64733 94.5765 7.318 95.5905 7.318C96.5525 7.318 97.3368 7.64733 97.9435 8.306C98.5675 8.96467 98.8795 9.77933 98.8795 10.75C98.8795 10.932 98.8578 11.1617 98.8145 11.439ZM93.8875 10.139H97.2025C97.1072 9.71433 96.9122 9.38933 96.6175 9.164C96.3315 8.93867 95.9892 8.826 95.5905 8.826C95.1398 8.826 94.7672 8.943 94.4725 9.177C94.1778 9.40233 93.9828 9.723 93.8875 10.139ZM105.646 7.5V12.427H106.504V15.742H104.866V14H100.836V15.742H99.1983V12.427H99.9913C100.364 11.8723 100.55 11.1053 100.55 10.126V7.5H105.646ZM101.785 12.427H104.008V9.008H102.188V10.126C102.188 11.062 102.054 11.829 101.785 12.427ZM107.995 7.5H113.143V14H111.466V9.112H109.672V11.283C109.672 13.285 108.757 14.1907 106.929 14V12.427C107.275 12.5137 107.54 12.453 107.722 12.245C107.904 12.037 107.995 11.686 107.995 11.192V7.5ZM120.201 13.194C119.542 13.8527 118.727 14.182 117.757 14.182C116.786 14.182 115.971 13.8527 115.313 13.194C114.654 12.5353 114.325 11.7207 114.325 10.75C114.325 9.788 114.654 8.97767 115.313 8.319C115.98 7.65167 116.795 7.318 117.757 7.318C118.719 7.318 119.533 7.65167 120.201 8.319C120.868 8.98633 121.202 9.79667 121.202 10.75C121.202 11.712 120.868 12.5267 120.201 13.194ZM116.496 12.037C116.834 12.375 117.254 12.544 117.757 12.544C118.259 12.544 118.68 12.375 119.018 12.037C119.356 11.699 119.525 11.27 119.525 10.75C119.525 10.23 119.356 9.801 119.018 9.463C118.68 9.125 118.259 8.956 117.757 8.956C117.254 8.956 116.834 9.125 116.496 9.463C116.166 9.80967 116.002 10.2387 116.002 10.75C116.002 11.2613 116.166 11.6903 116.496 12.037ZM128.283 10.711L130.636 14H128.751L126.762 11.088V14H125.124V11.088L123.135 14H121.263L123.603 10.711L121.393 7.5H123.265L125.124 10.321V7.5H126.762V10.321L128.621 7.5H130.506L128.283 10.711ZM137.357 11.439H132.456C132.673 12.2537 133.284 12.661 134.289 12.661C134.931 12.661 135.416 12.4443 135.745 12.011L137.097 12.791C136.456 13.7183 135.511 14.182 134.263 14.182C133.189 14.182 132.326 13.857 131.676 13.207C131.026 12.557 130.701 11.738 130.701 10.75C130.701 9.77933 131.022 8.96467 131.663 8.306C132.296 7.64733 133.119 7.318 134.133 7.318C135.095 7.318 135.88 7.64733 136.486 8.306C137.11 8.96467 137.422 9.77933 137.422 10.75C137.422 10.932 137.401 11.1617 137.357 11.439ZM132.43 10.139H135.745C135.65 9.71433 135.455 9.38933 135.16 9.164C134.874 8.93867 134.532 8.826 134.133 8.826C133.683 8.826 133.31 8.943 133.015 9.177C132.721 9.40233 132.526 9.723 132.43 10.139ZM142.857 9.957V7.5H144.534V14H142.857V11.53H140.27V14H138.593V7.5H140.27V9.957H142.857ZM147.709 11.192L150.764 7.5H152.012V14H150.374V10.308L147.319 14H146.071V7.5H147.709V11.192ZM159.866 11.439H154.965C155.182 12.2537 155.793 12.661 156.798 12.661C157.44 12.661 157.925 12.4443 158.254 12.011L159.606 12.791C158.965 13.7183 158.02 14.182 156.772 14.182C155.698 14.182 154.835 13.857 154.185 13.207C153.535 12.557 153.21 11.738 153.21 10.75C153.21 9.77933 153.531 8.96467 154.172 8.306C154.805 7.64733 155.628 7.318 156.642 7.318C157.604 7.318 158.389 7.64733 158.995 8.306C159.619 8.96467 159.931 9.77933 159.931 10.75C159.931 10.932 159.91 11.1617 159.866 11.439ZM154.939 10.139H158.254C158.159 9.71433 157.964 9.38933 157.669 9.164C157.383 8.93867 157.041 8.826 156.642 8.826C156.192 8.826 155.819 8.943 155.524 9.177C155.23 9.40233 155.035 9.723 154.939 10.139Z" fill="#47B95E"/>
</g>
<defs>
<clipPath id="clip0_1804_4531">
<rect width="174" height="21" fill="white"/>
</clipPath>
</defs>
</svg>
