<svg width="100" height="21" viewBox="0 0 100 21" fill="none" xmlns="http://www.w3.org/2000/svg">
<g clip-path="url(#clip0_1804_4534)">
<rect width="100" height="21" rx="3" fill="#F6DAC2"/>
<path d="M18.161 14.182C16.8003 14.182 15.6693 13.727 14.768 12.817C13.8753 11.9157 13.429 10.7933 13.429 9.45C13.429 8.098 13.8753 6.97567 14.768 6.083C15.6693 5.173 16.8003 4.718 18.161 4.718C18.9843 4.718 19.7427 4.913 20.436 5.303C21.138 5.68433 21.684 6.20433 22.074 6.863L20.527 7.76C20.3017 7.35267 19.981 7.03633 19.565 6.811C19.149 6.577 18.681 6.46 18.161 6.46C17.277 6.46 16.562 6.73733 16.016 7.292C15.4787 7.85533 15.21 8.57467 15.21 9.45C15.21 10.3167 15.4787 11.0317 16.016 11.595C16.562 12.1497 17.277 12.427 18.161 12.427C18.681 12.427 19.149 12.3143 19.565 12.089C19.9897 11.855 20.3103 11.5387 20.527 11.14L22.074 12.037C21.684 12.6957 21.138 13.22 20.436 13.61C19.7427 13.9913 18.9843 14.182 18.161 14.182ZM25.8931 11.868L27.3361 7.5H29.1301L26.7641 14C26.1054 15.8287 24.9614 16.6953 23.3321 16.6V15.04C23.7741 15.0487 24.1207 14.9663 24.3721 14.793C24.6321 14.6197 24.8401 14.3293 24.9961 13.922L22.3701 7.5H24.1511L25.8931 11.868ZM29.9281 7.5H35.8691V14H34.1921V9.073H31.6051V14H29.9281V7.5ZM43.7237 11.439H38.8227C39.0393 12.2537 39.6503 12.661 40.6557 12.661C41.297 12.661 41.7823 12.4443 42.1117 12.011L43.4637 12.791C42.8223 13.7183 41.8777 14.182 40.6297 14.182C39.555 14.182 38.6927 13.857 38.0427 13.207C37.3927 12.557 37.0677 11.738 37.0677 10.75C37.0677 9.77933 37.3883 8.96467 38.0297 8.306C38.6623 7.64733 39.4857 7.318 40.4997 7.318C41.4617 7.318 42.246 7.64733 42.8527 8.306C43.4767 8.96467 43.7887 9.77933 43.7887 10.75C43.7887 10.932 43.767 11.1617 43.7237 11.439ZM38.7967 10.139H42.1117C42.0163 9.71433 41.8213 9.38933 41.5267 9.164C41.2407 8.93867 40.8983 8.826 40.4997 8.826C40.049 8.826 39.6763 8.943 39.3817 9.177C39.087 9.40233 38.892 9.723 38.7967 10.139ZM48.7424 7.318C49.6177 7.318 50.363 7.65167 50.9784 8.319C51.6024 8.98633 51.9144 9.79667 51.9144 10.75C51.9144 11.7207 51.6024 12.5353 50.9784 13.194C50.3717 13.8527 49.6264 14.182 48.7424 14.182C47.8324 14.182 47.1304 13.8657 46.6364 13.233V16.6H44.9594V7.5H46.6364V8.267C47.1304 7.63433 47.8324 7.318 48.7424 7.318ZM47.1434 12.076C47.4814 12.414 47.9104 12.583 48.4304 12.583C48.9504 12.583 49.3794 12.414 49.7174 12.076C50.064 11.7293 50.2374 11.2873 50.2374 10.75C50.2374 10.2127 50.064 9.775 49.7174 9.437C49.3794 9.09033 48.9504 8.917 48.4304 8.917C47.9104 8.917 47.4814 9.09033 47.1434 9.437C46.8054 9.775 46.6364 10.2127 46.6364 10.75C46.6364 11.2873 46.8054 11.7293 47.1434 12.076ZM62.0671 7.5V12.427H63.1591V15.742H61.5211V14H56.3471V7.5H58.0241V12.427H60.3901V7.5H62.0671ZM70.2823 11.439H65.3813C65.5979 12.2537 66.2089 12.661 67.2143 12.661C67.8556 12.661 68.3409 12.4443 68.6703 12.011L70.0223 12.791C69.3809 13.7183 68.4363 14.182 67.1883 14.182C66.1136 14.182 65.2513 13.857 64.6013 13.207C63.9513 12.557 63.6263 11.738 63.6263 10.75C63.6263 9.77933 63.9469 8.96467 64.5883 8.306C65.2209 7.64733 66.0443 7.318 67.0583 7.318C68.0203 7.318 68.8046 7.64733 69.4113 8.306C70.0353 8.96467 70.3473 9.77933 70.3473 10.75C70.3473 10.932 70.3256 11.1617 70.2823 11.439ZM65.3553 10.139H68.6703C68.5749 9.71433 68.3799 9.38933 68.0853 9.164C67.7993 8.93867 67.4569 8.826 67.0583 8.826C66.6076 8.826 66.2349 8.943 65.9403 9.177C65.6456 9.40233 65.4506 9.723 65.3553 10.139ZM75.782 9.957V7.5H77.459V14H75.782V11.53H73.195V14H71.518V7.5H73.195V9.957H75.782ZM83.9355 8.267V7.5H85.6125V14H83.9355V13.233C83.4328 13.8657 82.7265 14.182 81.8165 14.182C80.9498 14.182 80.2045 13.8527 79.5805 13.194C78.9652 12.5267 78.6575 11.712 78.6575 10.75C78.6575 9.79667 78.9652 8.98633 79.5805 8.319C80.2045 7.65167 80.9498 7.318 81.8165 7.318C82.7265 7.318 83.4328 7.63433 83.9355 8.267ZM80.8415 12.076C81.1795 12.414 81.6085 12.583 82.1285 12.583C82.6485 12.583 83.0775 12.414 83.4155 12.076C83.7622 11.7293 83.9355 11.2873 83.9355 10.75C83.9355 10.2127 83.7622 9.775 83.4155 9.437C83.0775 9.09033 82.6485 8.917 82.1285 8.917C81.6085 8.917 81.1795 9.09033 80.8415 9.437C80.5035 9.775 80.3345 10.2127 80.3345 10.75C80.3345 11.2873 80.5035 11.7293 80.8415 12.076Z" fill="#874C1A"/>
</g>
<defs>
<clipPath id="clip0_1804_4534">
<rect width="100" height="21" fill="white"/>
</clipPath>
</defs>
</svg>
