<svg width="103" height="21" viewBox="0 0 103 21" fill="none" xmlns="http://www.w3.org/2000/svg">
<g clip-path="url(#clip0_1804_4537)">
<rect width="103" height="21" rx="3" fill="#D8D8D8"/>
<path d="M13.767 7.5H18.213V9.112H15.444V14H13.767V7.5ZM20.0111 13.064C20.0111 13.3673 19.9027 13.6273 19.6861 13.844C19.4694 14.0607 19.2094 14.169 18.9061 14.169C18.6027 14.169 18.3427 14.0607 18.1261 13.844C17.9094 13.6273 17.8011 13.3673 17.8011 13.064C17.8011 12.7607 17.9094 12.5007 18.1261 12.284C18.3427 12.0673 18.6027 11.959 18.9061 11.959C19.2094 11.959 19.4694 12.0673 19.6861 12.284C19.9027 12.5007 20.0111 12.7607 20.0111 13.064ZM19.5167 4.9H26.2117V6.616H23.7547V14H21.9607V6.616H19.5167V4.9ZM30.8945 8.267V7.5H32.5715V14H30.8945V13.233C30.3918 13.8657 29.6855 14.182 28.7755 14.182C27.9088 14.182 27.1635 13.8527 26.5395 13.194C25.9242 12.5267 25.6165 11.712 25.6165 10.75C25.6165 9.79667 25.9242 8.98633 26.5395 8.319C27.1635 7.65167 27.9088 7.318 28.7755 7.318C29.6855 7.318 30.3918 7.63433 30.8945 8.267ZM27.8005 12.076C28.1385 12.414 28.5675 12.583 29.0875 12.583C29.6075 12.583 30.0365 12.414 30.3745 12.076C30.7212 11.7293 30.8945 11.2873 30.8945 10.75C30.8945 10.2127 30.7212 9.775 30.3745 9.437C30.0365 9.09033 29.6075 8.917 29.0875 8.917C28.5675 8.917 28.1385 9.09033 27.8005 9.437C27.4625 9.775 27.2935 10.2127 27.2935 10.75C27.2935 11.2873 27.4625 11.7293 27.8005 12.076ZM41.7102 12.427V7.5H43.3872V14H34.0922V7.5H35.7692V12.427H37.9012V7.5H39.5782V12.427H41.7102ZM48.2233 10.711L50.9143 14H48.9643L46.5983 11.049V14H44.9213V7.5H46.5983V10.36L48.8343 7.5H50.8363L48.2233 10.711ZM57.5996 11.439H52.6986C52.9153 12.2537 53.5263 12.661 54.5316 12.661C55.173 12.661 55.6583 12.4443 55.9876 12.011L57.3396 12.791C56.6983 13.7183 55.7536 14.182 54.5056 14.182C53.431 14.182 52.5686 13.857 51.9186 13.207C51.2686 12.557 50.9436 11.738 50.9436 10.75C50.9436 9.77933 51.2643 8.96467 51.9056 8.306C52.5383 7.64733 53.3616 7.318 54.3756 7.318C55.3376 7.318 56.122 7.64733 56.7286 8.306C57.3526 8.96467 57.6646 9.77933 57.6646 10.75C57.6646 10.932 57.643 11.1617 57.5996 11.439ZM52.6726 10.139H55.9876C55.8923 9.71433 55.6973 9.38933 55.4026 9.164C55.1166 8.93867 54.7743 8.826 54.3756 8.826C53.925 8.826 53.5523 8.943 53.2576 9.177C52.963 9.40233 52.768 9.723 52.6726 10.139ZM63.0994 9.957V7.5H64.7764V14H63.0994V11.53H60.5124V14H58.8354V7.5H60.5124V9.957H63.0994ZM65.6759 7.5H71.4349V9.112H69.4069V14H67.7299V9.112H65.6759V7.5Z" fill="#787993"/>
<path fill-rule="evenodd" clip-rule="evenodd" d="M89.5 10.25C88.5351 10.25 87.75 9.46494 87.75 8.50001C87.75 7.53508 88.5351 6.74999 89.5 6.74999C90.4649 6.74999 91.25 7.53508 91.25 8.50001C91.25 9.46494 90.4649 10.25 89.5 10.25ZM89.5 5C87.5701 5 86 6.57014 86 8.50001C86 9.07936 86.1448 9.65378 86.4202 10.1633L89.3086 15.3872C89.347 15.4569 89.4203 15.5 89.5 15.5C89.5797 15.5 89.653 15.4569 89.6914 15.3872L92.5809 10.1616C92.8552 9.65378 93 9.07936 93 8.50001C93 6.57014 91.4299 5 89.5 5Z" fill="#414D6A"/>
</g>
<defs>
<clipPath id="clip0_1804_4537">
<rect width="103" height="21" fill="white"/>
</clipPath>
</defs>
</svg>
