<svg width="87" height="21" viewBox="0 0 87 21" fill="none" xmlns="http://www.w3.org/2000/svg">
<g clip-path="url(#clip0_1804_4543)">
<rect width="87" height="21" rx="3" fill="#D8D8D8"/>
<path d="M13.767 7.5H18.213V9.112H15.444V14H13.767V7.5ZM20.0111 13.064C20.0111 13.3673 19.9027 13.6273 19.6861 13.844C19.4694 14.0607 19.2094 14.169 18.9061 14.169C18.6027 14.169 18.3427 14.0607 18.1261 13.844C17.9094 13.6273 17.8011 13.3673 17.8011 13.064C17.8011 12.7607 17.9094 12.5007 18.1261 12.284C18.3427 12.0673 18.6027 11.959 18.9061 11.959C19.2094 11.959 19.4694 12.0673 19.6861 12.284C19.9027 12.5007 20.0111 12.7607 20.0111 13.064ZM19.5167 4.9H26.2117V6.616H23.7547V14H21.9607V6.616H19.5167V4.9ZM32.2725 11.439H27.3715C27.5882 12.2537 28.1992 12.661 29.2045 12.661C29.8458 12.661 30.3312 12.4443 30.6605 12.011L32.0125 12.791C31.3712 13.7183 30.4265 14.182 29.1785 14.182C28.1038 14.182 27.2415 13.857 26.5915 13.207C25.9415 12.557 25.6165 11.738 25.6165 10.75C25.6165 9.77933 25.9372 8.96467 26.5785 8.306C27.2112 7.64733 28.0345 7.318 29.0485 7.318C30.0105 7.318 30.7948 7.64733 31.4015 8.306C32.0255 8.96467 32.3375 9.77933 32.3375 10.75C32.3375 10.932 32.3158 11.1617 32.2725 11.439ZM27.3455 10.139H30.6605C30.5652 9.71433 30.3702 9.38933 30.0755 9.164C29.7895 8.93867 29.4472 8.826 29.0485 8.826C28.5978 8.826 28.2252 8.943 27.9305 9.177C27.6358 9.40233 27.4408 9.723 27.3455 10.139ZM37.2912 7.318C38.1665 7.318 38.9119 7.65167 39.5272 8.319C40.1512 8.98633 40.4632 9.79667 40.4632 10.75C40.4632 11.7207 40.1512 12.5353 39.5272 13.194C38.9205 13.8527 38.1752 14.182 37.2912 14.182C36.3812 14.182 35.6792 13.8657 35.1852 13.233V16.6H33.5082V7.5H35.1852V8.267C35.6792 7.63433 36.3812 7.318 37.2912 7.318ZM35.6922 12.076C36.0302 12.414 36.4592 12.583 36.9792 12.583C37.4992 12.583 37.9282 12.414 38.2662 12.076C38.6129 11.7293 38.7862 11.2873 38.7862 10.75C38.7862 10.2127 38.6129 9.775 38.2662 9.437C37.9282 9.09033 37.4992 8.917 36.9792 8.917C36.4592 8.917 36.0302 9.09033 35.6922 9.437C35.3542 9.775 35.1852 10.2127 35.1852 10.75C35.1852 11.2873 35.3542 11.7293 35.6922 12.076ZM46.7549 7.5H48.4059V14H46.7809V10.204L45.1299 12.804H44.9219L43.2579 10.178V14H41.6459V7.5H43.2969L45.0259 10.23L46.7549 7.5ZM56.2539 11.439H51.3529C51.5696 12.2537 52.1806 12.661 53.1859 12.661C53.8273 12.661 54.3126 12.4443 54.6419 12.011L55.9939 12.791C55.3526 13.7183 54.4079 14.182 53.1599 14.182C52.0853 14.182 51.2229 13.857 50.5729 13.207C49.9229 12.557 49.5979 11.738 49.5979 10.75C49.5979 9.77933 49.9186 8.96467 50.5599 8.306C51.1926 7.64733 52.0159 7.318 53.0299 7.318C53.9919 7.318 54.7763 7.64733 55.3829 8.306C56.0069 8.96467 56.3189 9.77933 56.3189 10.75C56.3189 10.932 56.2973 11.1617 56.2539 11.439ZM51.3269 10.139H54.6419C54.5466 9.71433 54.3516 9.38933 54.0569 9.164C53.7709 8.93867 53.4286 8.826 53.0299 8.826C52.5793 8.826 52.2066 8.943 51.9119 9.177C51.6173 9.40233 51.4223 9.723 51.3269 10.139ZM61.159 10.685C61.8177 11.0057 62.147 11.5213 62.147 12.232C62.147 12.804 61.913 13.272 61.445 13.636C60.977 14 60.3357 14.182 59.521 14.182C58.2037 14.182 57.3067 13.662 56.83 12.622L58.195 11.816C58.403 12.4053 58.8493 12.7 59.534 12.7C59.846 12.7 60.0843 12.6393 60.249 12.518C60.4223 12.3967 60.509 12.232 60.509 12.024C60.509 11.6253 60.2533 11.426 59.742 11.426H58.819V9.996H59.521C60.0237 9.996 60.275 9.79667 60.275 9.398C60.275 9.20733 60.2013 9.05567 60.054 8.943C59.9067 8.83033 59.7117 8.774 59.469 8.774C58.9143 8.774 58.5113 9.047 58.26 9.593L56.908 8.813C57.402 7.81633 58.247 7.318 59.443 7.318C60.1883 7.318 60.7777 7.50867 61.211 7.89C61.653 8.27133 61.874 8.72633 61.874 9.255C61.874 9.88767 61.6357 10.3643 61.159 10.685Z" fill="#787993"/>
<path fill-rule="evenodd" clip-rule="evenodd" d="M74.5 10.25C73.5351 10.25 72.75 9.46494 72.75 8.50001C72.75 7.53508 73.5351 6.74999 74.5 6.74999C75.4649 6.74999 76.25 7.53508 76.25 8.50001C76.25 9.46494 75.4649 10.25 74.5 10.25ZM74.5 5C72.5701 5 71 6.57014 71 8.50001C71 9.07936 71.1448 9.65378 71.4202 10.1633L74.3086 15.3872C74.347 15.4569 74.4203 15.5 74.5 15.5C74.5797 15.5 74.653 15.4569 74.6914 15.3872L77.5809 10.1616C77.8552 9.65378 78 9.07936 78 8.50001C78 6.57014 76.4299 5 74.5 5Z" fill="#414D6A"/>
</g>
<defs>
<clipPath id="clip0_1804_4543">
<rect width="87" height="21" fill="white"/>
</clipPath>
</defs>
</svg>
