<svg width="114" height="21" viewBox="0 0 114 21" fill="none" xmlns="http://www.w3.org/2000/svg">
<g clip-path="url(#clip0_1804_4549)">
<rect width="114" height="21" rx="3" fill="#D8D8D8"/>
<path d="M13.767 7.5H18.213V9.112H15.444V14H13.767V7.5ZM20.0111 13.064C20.0111 13.3673 19.9027 13.6273 19.6861 13.844C19.4694 14.0607 19.2094 14.169 18.9061 14.169C18.6027 14.169 18.3427 14.0607 18.1261 13.844C17.9094 13.6273 17.8011 13.3673 17.8011 13.064C17.8011 12.7607 17.9094 12.5007 18.1261 12.284C18.3427 12.0673 18.6027 11.959 18.9061 11.959C19.2094 11.959 19.4694 12.0673 19.6861 12.284C19.9027 12.5007 20.0111 12.7607 20.0111 13.064ZM25.1434 14.182C23.7828 14.182 22.6518 13.727 21.7504 12.817C20.8578 11.9157 20.4114 10.7933 20.4114 9.45C20.4114 8.098 20.8578 6.97567 21.7504 6.083C22.6518 5.173 23.7828 4.718 25.1434 4.718C25.9668 4.718 26.7251 4.913 27.4184 5.303C28.1204 5.68433 28.6664 6.20433 29.0564 6.863L27.5094 7.76C27.2841 7.35267 26.9634 7.03633 26.5474 6.811C26.1314 6.577 25.6634 6.46 25.1434 6.46C24.2594 6.46 23.5444 6.73733 22.9984 7.292C22.4611 7.85533 22.1924 8.57467 22.1924 9.45C22.1924 10.3167 22.4611 11.0317 22.9984 11.595C23.5444 12.1497 24.2594 12.427 25.1434 12.427C25.6634 12.427 26.1314 12.3143 26.5474 12.089C26.9721 11.855 27.2928 11.5387 27.5094 11.14L29.0564 12.037C28.6664 12.6957 28.1204 13.22 27.4184 13.61C26.7251 13.9913 25.9668 14.182 25.1434 14.182ZM35.0586 8.267V7.5H36.7356V14H35.0586V13.233C34.5559 13.8657 33.8496 14.182 32.9396 14.182C32.0729 14.182 31.3276 13.8527 30.7036 13.194C30.0882 12.5267 29.7806 11.712 29.7806 10.75C29.7806 9.79667 30.0882 8.98633 30.7036 8.319C31.3276 7.65167 32.0729 7.318 32.9396 7.318C33.8496 7.318 34.5559 7.63433 35.0586 8.267ZM31.9646 12.076C32.3026 12.414 32.7316 12.583 33.2516 12.583C33.7716 12.583 34.2006 12.414 34.5386 12.076C34.8852 11.7293 35.0586 11.2873 35.0586 10.75C35.0586 10.2127 34.8852 9.775 34.5386 9.437C34.2006 9.09033 33.7716 8.917 33.2516 8.917C32.7316 8.917 32.3026 9.09033 31.9646 9.437C31.6266 9.775 31.4576 10.2127 31.4576 10.75C31.4576 11.2873 31.6266 11.7293 31.9646 12.076ZM43.3653 7.5H45.0163V14H43.3913V10.204L41.7403 12.804H41.5323L39.8683 10.178V14H38.2563V7.5H39.9073L41.6363 10.23L43.3653 7.5ZM51.4863 8.267V7.5H53.1633V14H51.4863V13.233C50.9836 13.8657 50.2773 14.182 49.3673 14.182C48.5006 14.182 47.7553 13.8527 47.1313 13.194C46.516 12.5267 46.2083 11.712 46.2083 10.75C46.2083 9.79667 46.516 8.98633 47.1313 8.319C47.7553 7.65167 48.5006 7.318 49.3673 7.318C50.2773 7.318 50.9836 7.63433 51.4863 8.267ZM48.3923 12.076C48.7303 12.414 49.1593 12.583 49.6793 12.583C50.1993 12.583 50.6283 12.414 50.9663 12.076C51.313 11.7293 51.4863 11.2873 51.4863 10.75C51.4863 10.2127 51.313 9.775 50.9663 9.437C50.6283 9.09033 50.1993 8.917 49.6793 8.917C49.1593 8.917 48.7303 9.09033 48.3923 9.437C48.0543 9.775 47.8853 10.2127 47.8853 10.75C47.8853 11.2873 48.0543 11.7293 48.3923 12.076ZM58.467 7.318C59.3423 7.318 60.0877 7.65167 60.703 8.319C61.327 8.98633 61.639 9.79667 61.639 10.75C61.639 11.7207 61.327 12.5353 60.703 13.194C60.0963 13.8527 59.351 14.182 58.467 14.182C57.557 14.182 56.855 13.8657 56.361 13.233V16.6H54.684V7.5H56.361V8.267C56.855 7.63433 57.557 7.318 58.467 7.318ZM56.868 12.076C57.206 12.414 57.635 12.583 58.155 12.583C58.675 12.583 59.104 12.414 59.442 12.076C59.7887 11.7293 59.962 11.2873 59.962 10.75C59.962 10.2127 59.7887 9.775 59.442 9.437C59.104 9.09033 58.675 8.917 58.155 8.917C57.635 8.917 57.206 9.09033 56.868 9.437C56.53 9.775 56.361 10.2127 56.361 10.75C56.361 11.2873 56.53 11.7293 56.868 12.076ZM66.1237 10.711L68.8147 14H66.8647L64.4987 11.049V14H62.8217V7.5H64.4987V10.36L66.7347 7.5H68.7367L66.1237 10.711ZM74.122 8.267V7.5H75.799V14H74.122V13.233C73.6194 13.8657 72.913 14.182 72.003 14.182C71.1364 14.182 70.391 13.8527 69.767 13.194C69.1517 12.5267 68.844 11.712 68.844 10.75C68.844 9.79667 69.1517 8.98633 69.767 8.319C70.391 7.65167 71.1364 7.318 72.003 7.318C72.913 7.318 73.6194 7.63433 74.122 8.267ZM71.028 12.076C71.366 12.414 71.795 12.583 72.315 12.583C72.835 12.583 73.264 12.414 73.602 12.076C73.9487 11.7293 74.122 11.2873 74.122 10.75C74.122 10.2127 73.9487 9.775 73.602 9.437C73.264 9.09033 72.835 8.917 72.315 8.917C71.795 8.917 71.366 9.09033 71.028 9.437C70.69 9.775 70.521 10.2127 70.521 10.75C70.521 11.2873 70.69 11.7293 71.028 12.076ZM81.5837 9.957V7.5H83.2607V14H81.5837V11.53H78.9967V14H77.3197V7.5H78.9967V9.957H81.5837ZM90.6473 7.5V12.427H91.5053V15.742H89.8673V14H85.8373V15.742H84.1993V12.427H84.9923C85.3649 11.8723 85.5513 11.1053 85.5513 10.126V7.5H90.6473ZM86.7863 12.427H89.0093V9.008H87.1893V10.126C87.1893 11.062 87.0549 11.829 86.7863 12.427Z" fill="#787993"/>
<path fill-rule="evenodd" clip-rule="evenodd" d="M103.5 10.25C102.535 10.25 101.75 9.46494 101.75 8.50001C101.75 7.53508 102.535 6.74999 103.5 6.74999C104.465 6.74999 105.25 7.53508 105.25 8.50001C105.25 9.46494 104.465 10.25 103.5 10.25ZM103.5 5C101.57 5 100 6.57014 100 8.50001C100 9.07936 100.145 9.65378 100.42 10.1633L103.309 15.3872C103.347 15.4569 103.42 15.5 103.5 15.5C103.58 15.5 103.653 15.4569 103.691 15.3872L106.581 10.1616C106.855 9.65378 107 9.07936 107 8.50001C107 6.57014 105.43 5 103.5 5Z" fill="#414D6A"/>
</g>
<defs>
<clipPath id="clip0_1804_4549">
<rect width="114" height="21" fill="white"/>
</clipPath>
</defs>
</svg>
